<ttFont>
<head>
    <!-- Most of this table will be recalculated by the compiler -->
    <tableVersion value="1.0"/>
    <fontRevision value="1.0"/>
    <checkSumAdjustment value="0xd9252496"/>
    <magicNumber value="0x5f0f3cf5"/>
    <flags value="00000000 00011111"/>
    <unitsPerEm value="2048"/>
    <created value="Wed Sep 08 11:29:02 2010"/>
    <modified value="Fri Nov 19 12:49:15 2010"/>
    <xMin value="-116"/>
    <yMin value="-592"/>
    <xMax value="2860"/>
    <yMax value="2354"/>
    <macStyle value="00000000 00000010"/>
    <lowestRecPPEM value="8"/>
    <fontDirectionHint value="2"/>
    <indexToLocFormat value="0"/>
    <glyphDataFormat value="0"/>
  </head>
    <TTGlyph name=".notdef" xMin="73" yMin="0" xMax="818" yMax="1374">
      <contour>
        <pt x="73" y="0" on="1"/>
        <pt x="265" y="1374" on="1"/>
        <pt x="818" y="1374" on="1"/>
        <pt x="626" y="0" on="1"/>
      </contour>
      <contour>
        <pt x="175" y="82" on="1"/>
        <pt x="546" y="82" on="1"/>
        <pt x="716" y="1292" on="1"/>
        <pt x="344" y="1292" on="1"/>
      </contour>
    </TTGlyph>
    <TTGlyph name="A" xMin="26" yMin="0" xMax="1289" yMax="1586">
      <contour>
        <pt x="877" y="1403" on="1"/>
        <pt x="714" y="1041" on="1"/>
        <pt x="469" y="503" on="1"/>
        <pt x="1000" y="503" on="1"/>
        <pt x="925" y="1032" on="1"/>
      </contour>
      <contour>
        <pt x="757" y="1586" on="1"/>
        <pt x="1045" y="1586" on="1"/>
        <pt x="1289" y="0" on="1"/>
        <pt x="1074" y="0" on="1"/>
        <pt x="1019" y="387" on="1"/>
        <pt x="419" y="387" on="1"/>
        <pt x="244" y="0" on="1"/>
        <pt x="26" y="0" on="1"/>
      </contour>
    </TTGlyph>
    <TTGlyph name="AE" xMin="26" yMin="0" xMax="2024" yMax="1582">
      <contour>
        <pt x="1237" y="908" on="1"/>
        <pt x="1855" y="908" on="1"/>
        <pt x="1838" y="764" on="1"/>
        <pt x="1219" y="764" on="1"/>
        <pt x="1139" y="174" on="1"/>
        <pt x="1850" y="174" on="1"/>
        <pt x="1830" y="0" on="1"/>
        <pt x="921" y="0" on="1"/>
        <pt x="970" y="373" on="1"/>
        <pt x="490" y="373" on="1"/>
        <pt x="255" y="0" on="1"/>
        <pt x="26" y="0" on="1"/>
        <pt x="1049" y="1582" on="1"/>
        <pt x="2024" y="1582" on="1"/>
        <pt x="2001" y="1413" on="1"/>
        <pt x="1304" y="1413" on="1"/>
      </contour>
      <contour>
        <pt x="987" y="508" on="1"/>
        <pt x="1098" y="1340" on="1"/>
        <pt x="583" y="508" on="1"/>
      </contour>
    </TTGlyph>
    <TTGlyph name="AEacute" xMin="26" yMin="0" xMax="2024" yMax="1582">
      <component glyphName="AE" x="0" y="0" flags="0x4"/>
    </TTGlyph>
    <TTGlyph name="Aacute" xMin="26" yMin="0" xMax="1289" yMax="2327">
      <component glyphName="A" x="0" y="0" flags="0x204"/>
      <component glyphName="acute" x="436" y="1560" flags="0x4"/>
    </TTGlyph>
    <TTGlyph name="Aasciitilde" xMin="26" yMin="0" xMax="1371" yMax="2000">
      <component glyphName="A" x="0" y="0" flags="0x4"/>
      <component glyphName="asciitilde" x="513" y="1579" flags="0x4"/>
    </TTGlyph>
    <TTGlyph name="Abreve" xMin="26" yMin="0" xMax="1289" yMax="1586">
      <component glyphName="A" x="0" y="0" flags="0x4"/>
    </TTGlyph>
    <TTGlyph name="Acaron" xMin="26" yMin="0" xMax="1289" yMax="2246">
      <component glyphName="A" x="0" y="0" flags="0x204"/>
      <component glyphName="caron" x="404" y="1560" flags="0x4"/>
    </TTGlyph>
    <TTGlyph name="Acircumflex" xMin="26" yMin="0" xMax="1289" yMax="2246">
      <component glyphName="A" x="0" y="0" flags="0x204"/>
      <component glyphName="circumflex" x="485" y="1560" flags="0x4"/>
    </TTGlyph>
    <TTGlyph name="Adieresis" xMin="26" yMin="0" xMax="1289" yMax="1972">
      <component glyphName="A" x="0" y="0" flags="0x204"/>
      <component glyphName="dieresis" x="360" y="1560" flags="0x4"/>
    </TTGlyph>
    <TTGlyph name="Agrave" xMin="26" yMin="0" xMax="1289" yMax="2351">
      <component glyphName="A" x="0" y="0" flags="0x204"/>
      <component glyphName="grave" x="540" y="1560" flags="0x4"/>
    </TTGlyph>
    <TTGlyph name="Amacron" xMin="26" yMin="0" xMax="1289" yMax="1586">
      <component glyphName="A" x="0" y="0" flags="0x4"/>
    </TTGlyph>
    <TTGlyph name="Aogonek" xMin="26" yMin="0" xMax="1289" yMax="1586">
      <component glyphName="A" x="0" y="0" flags="0x4"/>
    </TTGlyph>
    <TTGlyph name="Aring" xMin="26" yMin="0" xMax="1289" yMax="2163">
      <component glyphName="A" x="0" y="0" flags="0x204"/>
      <component glyphName="ring" x="532" y="1560" flags="0x4"/>
    </TTGlyph>
    <TTGlyph name="Aringacute" xMin="26" yMin="0" xMax="1289" yMax="1586">
      <component glyphName="A" x="0" y="0" flags="0x4"/>
    </TTGlyph>
    <TTGlyph name="Atilde" xMin="26" yMin="0" xMax="1289" yMax="1978">
      <component glyphName="A" x="0" y="0" flags="0x204"/>
      <component glyphName="tilde" x="466" y="1560" flags="0x4"/>
    </TTGlyph>
    <TTGlyph name="B" xMin="126" yMin="0" xMax="1293" yMax="1586">
      <contour>
        <pt x="672" y="925" on="1"/>
        <pt x="781" y="925" on="0"/>
        <pt x="942" y="957" on="0"/>
        <pt x="1049" y="1029" on="0"/>
        <pt x="1102" y="1147" on="0"/>
        <pt x="1102" y="1234" on="1"/>
        <pt x="1102" y="1289" on="0"/>
        <pt x="1040" y="1361" on="0"/>
        <pt x="931" y="1403" on="0"/>
        <pt x="782" y="1420" on="0"/>
        <pt x="696" y="1420" on="1"/>
        <pt x="541" y="1420" on="1"/>
        <pt x="471" y="925" on="1"/>
      </contour>
      <contour>
        <pt x="562" y="166" on="1"/>
        <pt x="679" y="166" on="0"/>
        <pt x="864" y="199" on="0"/>
        <pt x="993" y="280" on="0"/>
        <pt x="1061" y="419" on="0"/>
        <pt x="1061" y="524" on="1"/>
        <pt x="1061" y="573" on="0"/>
        <pt x="1036" y="663" on="0"/>
        <pt x="954" y="732" on="0"/>
        <pt x="798" y="772" on="0"/>
        <pt x="667" y="772" on="1"/>
        <pt x="450" y="772" on="1"/>
        <pt x="364" y="166" on="1"/>
      </contour>
      <contour>
        <pt x="1267" y="525" on="1"/>
        <pt x="1267" y="404" on="0"/>
        <pt x="1180" y="210" on="0"/>
        <pt x="1000" y="73" on="0"/>
        <pt x="723" y="0" on="0"/>
        <pt x="533" y="0" on="1"/>
        <pt x="126" y="0" on="1"/>
        <pt x="351" y="1586" on="1"/>
        <pt x="697" y="1586" on="1"/>
        <pt x="860" y="1586" on="0"/>
        <pt x="1087" y="1546" on="0"/>
        <pt x="1229" y="1464" on="0"/>
        <pt x="1293" y="1341" on="0"/>
        <pt x="1293" y="1258" on="1"/>
        <pt x="1293" y="1169" on="0"/>
        <pt x="1251" y="1037" on="0"/>
        <pt x="1164" y="943" on="0"/>
        <pt x="1032" y="882" on="0"/>
        <pt x="943" y="864" on="1"/>
        <pt x="1105" y="841" on="0"/>
        <pt x="1268" y="674" on="0"/>
      </contour>
    </TTGlyph>
    <TTGlyph name="C" xMin="197" yMin="-40" xMax="1357" yMax="1615">
      <contour>
        <pt x="197" y="541" on="1"/>
        <pt x="197" y="679" on="0"/>
        <pt x="240" y="946" on="0"/>
        <pt x="325" y="1185" on="0"/>
        <pt x="452" y="1386" on="0"/>
        <pt x="620" y="1533" on="0"/>
        <pt x="830" y="1615" on="0"/>
        <pt x="955" y="1615" on="1"/>
        <pt x="1009" y="1615" on="0"/>
        <pt x="1106" y="1603" on="0"/>
        <pt x="1201" y="1580" on="0"/>
        <pt x="1300" y="1548" on="0"/>
        <pt x="1357" y="1528" on="1"/>
        <pt x="1282" y="1354" on="1"/>
        <pt x="1196" y="1388" on="0"/>
        <pt x="1043" y="1432" on="0"/>
        <pt x="962" y="1432" on="1"/>
        <pt x="868" y="1432" on="0"/>
        <pt x="714" y="1365" on="0"/>
        <pt x="593" y="1245" on="0"/>
        <pt x="505" y="1080" on="0"/>
        <pt x="447" y="886" on="0"/>
        <pt x="419" y="669" on="0"/>
        <pt x="419" y="557" on="1"/>
        <pt x="419" y="345" on="0"/>
        <pt x="587" y="142" on="0"/>
        <pt x="752" y="142" on="1"/>
        <pt x="790" y="142" on="0"/>
        <pt x="878" y="160" on="0"/>
        <pt x="973" y="190" on="0"/>
        <pt x="1070" y="229" on="0"/>
        <pt x="1118" y="250" on="1"/>
        <pt x="1154" y="83" on="1"/>
        <pt x="1104" y="59" on="0"/>
        <pt x="1003" y="15" on="0"/>
        <pt x="897" y="-20" on="0"/>
        <pt x="783" y="-40" on="0"/>
        <pt x="721" y="-40" on="1"/>
        <pt x="467" y="-40" on="0"/>
        <pt x="197" y="253" on="0"/>
      </contour>
    </TTGlyph>
    <TTGlyph name="Cacute" xMin="197" yMin="-40" xMax="1357" yMax="1615">
      <component glyphName="C" x="0" y="0" flags="0x4"/>
    </TTGlyph>
    <TTGlyph name="Ccaron" xMin="197" yMin="-40" xMax="1357" yMax="1615">
      <component glyphName="C" x="0" y="0" flags="0x4"/>
    </TTGlyph>
    <TTGlyph name="Ccedilla" xMin="197" yMin="-590" xMax="1357" yMax="1615">
      <component glyphName="C" x="0" y="0" flags="0x204"/>
      <component glyphName="cedilla" x="547" y="0" flags="0x4"/>
    </TTGlyph>
    <TTGlyph name="Ccircumflex" xMin="197" yMin="-40" xMax="1357" yMax="1615">
      <component glyphName="C" x="0" y="0" flags="0x4"/>
    </TTGlyph>
    <TTGlyph name="Cdotaccent" xMin="197" yMin="-40" xMax="1357" yMax="1615">
      <component glyphName="C" x="0" y="0" flags="0x4"/>
    </TTGlyph>
    <TTGlyph name="D" xMin="126" yMin="0" xMax="1391" yMax="1586">
      <contour>
        <pt x="1172" y="993" on="1"/>
        <pt x="1172" y="1213" on="0"/>
        <pt x="1008" y="1420" on="0"/>
        <pt x="836" y="1420" on="1"/>
        <pt x="544" y="1420" on="1"/>
        <pt x="364" y="165" on="1"/>
        <pt x="671" y="165" on="1"/>
        <pt x="775" y="165" on="0"/>
        <pt x="930" y="244" on="0"/>
        <pt x="1041" y="375" on="0"/>
        <pt x="1114" y="546" on="0"/>
        <pt x="1156" y="730" on="0"/>
        <pt x="1172" y="914" on="0"/>
      </contour>
      <contour>
        <pt x="1391" y="994" on="1"/>
        <pt x="1391" y="898" on="0"/>
        <pt x="1365" y="676" on="0"/>
        <pt x="1302" y="455" on="0"/>
        <pt x="1194" y="251" on="0"/>
        <pt x="1030" y="94" on="0"/>
        <pt x="803" y="0" on="0"/>
        <pt x="653" y="0" on="1"/>
        <pt x="126" y="0" on="1"/>
        <pt x="351" y="1586" on="1"/>
        <pt x="857" y="1586" on="1"/>
        <pt x="986" y="1586" on="0"/>
        <pt x="1185" y="1515" on="0"/>
        <pt x="1321" y="1370" on="0"/>
        <pt x="1391" y="1147" on="0"/>
      </contour>
    </TTGlyph>
    <TTGlyph name="Dcaron" xMin="126" yMin="0" xMax="1391" yMax="1586">
      <component glyphName="D" x="0" y="0" flags="0x4"/>
    </TTGlyph>
    <TTGlyph name="E" xMin="126" yMin="0" xMax="1263" yMax="1586">
      <contour>
        <pt x="1053" y="0" on="1"/>
        <pt x="126" y="0" on="1"/>
        <pt x="349" y="1586" on="1"/>
        <pt x="1263" y="1586" on="1"/>
        <pt x="1238" y="1420" on="1"/>
        <pt x="540" y="1420" on="1"/>
        <pt x="468" y="907" on="1"/>
        <pt x="1082" y="907" on="1"/>
        <pt x="1062" y="764" on="1"/>
        <pt x="447" y="764" on="1"/>
        <pt x="362" y="165" on="1"/>
        <pt x="1079" y="165" on="1"/>
      </contour>
    </TTGlyph>
    <TTGlyph name="Eacute" xMin="126" yMin="0" xMax="1263" yMax="2327">
      <component glyphName="E" x="0" y="0" flags="0x204"/>
      <component glyphName="acute" x="422" y="1560" flags="0x4"/>
    </TTGlyph>
    <TTGlyph name="Easciitilde" xMin="126" yMin="0" xMax="1296" yMax="2000">
      <component glyphName="E" x="0" y="0" flags="0x4"/>
      <component glyphName="asciitilde" x="438" y="1579" flags="0x4"/>
    </TTGlyph>
    <TTGlyph name="Ebreve" xMin="126" yMin="0" xMax="1263" yMax="1586">
      <component glyphName="E" x="0" y="0" flags="0x4"/>
    </TTGlyph>
    <TTGlyph name="Ecaron" xMin="126" yMin="0" xMax="1263" yMax="2271">
      <component glyphName="E" x="0" y="0" flags="0x204"/>
      <component glyphName="caron" x="371" y="1585" flags="0x4"/>
    </TTGlyph>
    <TTGlyph name="Ecircumflex" xMin="126" yMin="0" xMax="1263" yMax="2271">
      <component glyphName="E" x="0" y="0" flags="0x204"/>
      <component glyphName="circumflex" x="377" y="1585" flags="0x4"/>
    </TTGlyph>
    <TTGlyph name="Edieresis" xMin="126" yMin="0" xMax="1411" yMax="1972">
      <component glyphName="E" x="0" y="0" flags="0x204"/>
      <component glyphName="dieresis" x="522" y="1560" flags="0x4"/>
    </TTGlyph>
    <TTGlyph name="Edotaccent" xMin="126" yMin="0" xMax="1263" yMax="1586">
      <component glyphName="E" x="0" y="0" flags="0x4"/>
    </TTGlyph>
    <TTGlyph name="Egrave" xMin="126" yMin="0" xMax="1263" yMax="2351">
      <component glyphName="E" x="0" y="0" flags="0x204"/>
      <component glyphName="grave" x="526" y="1560" flags="0x4"/>
    </TTGlyph>
    <TTGlyph name="Emacron" xMin="126" yMin="0" xMax="1263" yMax="1586">
      <component glyphName="E" x="0" y="0" flags="0x4"/>
    </TTGlyph>
    <TTGlyph name="Eogonek" xMin="126" yMin="0" xMax="1263" yMax="1586">
      <component glyphName="E" x="0" y="0" flags="0x4"/>
    </TTGlyph>
    <TTGlyph name="Eth" xMin="104" yMin="0" xMax="1379" yMax="1583">
      <contour>
        <pt x="1378" y="1014" on="1"/>
        <pt x="1378" y="944" on="0"/>
        <pt x="1364" y="783" on="0"/>
        <pt x="1331" y="614" on="0"/>
        <pt x="1276" y="445" on="0"/>
        <pt x="1193" y="290" on="0"/>
        <pt x="1080" y="156" on="0"/>
        <pt x="931" y="57" on="0"/>
        <pt x="744" y="0" on="0"/>
        <pt x="628" y="0" on="1"/>
        <pt x="104" y="0" on="1"/>
        <pt x="208" y="737" on="1"/>
        <pt x="107" y="737" on="1"/>
        <pt x="128" y="890" on="1"/>
        <pt x="230" y="890" on="1"/>
        <pt x="328" y="1583" on="1"/>
        <pt x="852" y="1583" on="1"/>
        <pt x="1108" y="1583" on="0"/>
        <pt x="1379" y="1302" on="0"/>
      </contour>
      <contour>
        <pt x="1160" y="1011" on="1"/>
        <pt x="1160" y="1117" on="0"/>
        <pt x="1119" y="1268" on="0"/>
        <pt x="1037" y="1365" on="0"/>
        <pt x="913" y="1410" on="0"/>
        <pt x="829" y="1410" on="1"/>
        <pt x="520" y="1410" on="1"/>
        <pt x="446" y="890" on="1"/>
        <pt x="784" y="890" on="1"/>
        <pt x="764" y="737" on="1"/>
        <pt x="425" y="737" on="1"/>
        <pt x="345" y="170" on="1"/>
        <pt x="650" y="170" on="1"/>
        <pt x="756" y="170" on="0"/>
        <pt x="915" y="252" on="0"/>
        <pt x="1028" y="388" on="0"/>
        <pt x="1101" y="563" on="0"/>
        <pt x="1144" y="750" on="0"/>
        <pt x="1160" y="934" on="0"/>
      </contour>
    </TTGlyph>
    <TTGlyph name="Etilde" xMin="126" yMin="0" xMax="1263" yMax="2003">
      <component glyphName="E" x="0" y="0" flags="0x204"/>
      <component glyphName="tilde" x="388" y="1585" flags="0x4"/>
    </TTGlyph>
    <TTGlyph name="Euni0306" xMin="126" yMin="0" xMax="1313" yMax="2200">
      <component glyphName="E" x="0" y="0" flags="0x204"/>
      <component glyphName="uni0306" x="539" y="1560" flags="0x4"/>
    </TTGlyph>
    <TTGlyph name="Euro" xMin="117" yMin="-38" xMax="1227" yMax="1483">
      <contour>
        <pt x="823" y="710" on="1"/>
        <pt x="803" y="572" on="1"/>
        <pt x="468" y="572" on="1"/>
        <pt x="468" y="568" on="0"/>
        <pt x="466" y="536" on="0"/>
        <pt x="463" y="494" on="0"/>
        <pt x="462" y="451" on="0"/>
        <pt x="463" y="436" on="1"/>
        <pt x="466" y="352" on="0"/>
        <pt x="506" y="234" on="0"/>
        <pt x="570" y="161" on="0"/>
        <pt x="652" y="127" on="0"/>
        <pt x="697" y="127" on="1"/>
        <pt x="762" y="127" on="0"/>
        <pt x="870" y="151" on="0"/>
        <pt x="949" y="181" on="0"/>
        <pt x="996" y="208" on="0"/>
        <pt x="1000" y="211" on="1"/>
        <pt x="1037" y="64" on="1"/>
        <pt x="1030" y="58" on="0"/>
        <pt x="979" y="25" on="0"/>
        <pt x="890" y="-11" on="0"/>
        <pt x="763" y="-38" on="0"/>
        <pt x="681" y="-38" on="1"/>
        <pt x="597" y="-38" on="0"/>
        <pt x="450" y="22" on="0"/>
        <pt x="339" y="145" on="0"/>
        <pt x="272" y="329" on="0"/>
        <pt x="268" y="454" on="1"/>
        <pt x="268" y="464" on="0"/>
        <pt x="269" y="493" on="0"/>
        <pt x="271" y="507" on="1"/>
        <pt x="274" y="539" on="1"/>
        <pt x="273" y="547" on="0"/>
        <pt x="273" y="563" on="0"/>
        <pt x="273" y="572" on="1"/>
        <pt x="117" y="572" on="1"/>
        <pt x="137" y="710" on="1"/>
        <pt x="282" y="710" on="1"/>
        <pt x="287" y="736" on="0"/>
        <pt x="296" y="792" on="0"/>
        <pt x="301" y="823" on="1"/>
        <pt x="131" y="823" on="1"/>
        <pt x="151" y="962" on="1"/>
        <pt x="341" y="962" on="1"/>
        <pt x="367" y="1080" on="0"/>
        <pt x="471" y="1273" on="0"/>
        <pt x="619" y="1409" on="0"/>
        <pt x="810" y="1483" on="0"/>
        <pt x="924" y="1483" on="1"/>
        <pt x="987" y="1483" on="0"/>
        <pt x="1094" y="1462" on="0"/>
        <pt x="1175" y="1436" on="0"/>
        <pt x="1223" y="1412" on="0"/>
        <pt x="1227" y="1409" on="1"/>
        <pt x="1158" y="1254" on="1"/>
        <pt x="1158" y="1254" on="0"/>
        <pt x="1129" y="1270" on="0"/>
        <pt x="1070" y="1291" on="0"/>
        <pt x="984" y="1310" on="0"/>
        <pt x="927" y="1313" on="1"/>
        <pt x="886" y="1316" on="0"/>
        <pt x="844" y="1310" on="1"/>
        <pt x="738" y="1292" on="0"/>
        <pt x="579" y="1117" on="0"/>
        <pt x="537" y="962" on="1"/>
        <pt x="911" y="962" on="1"/>
        <pt x="891" y="823" on="1"/>
        <pt x="504" y="823" on="1"/>
        <pt x="499" y="796" on="0"/>
        <pt x="489" y="739" on="0"/>
        <pt x="484" y="710" on="1"/>
      </contour>
    </TTGlyph>
    <TTGlyph name="F" xMin="126" yMin="0" xMax="1254" yMax="1586">
      <contour>
        <pt x="448" y="755" on="1"/>
        <pt x="340" y="0" on="1"/>
        <pt x="126" y="0" on="1"/>
        <pt x="351" y="1586" on="1"/>
        <pt x="1254" y="1586" on="1"/>
        <pt x="1231" y="1412" on="1"/>
        <pt x="541" y="1412" on="1"/>
        <pt x="468" y="898" on="1"/>
        <pt x="1094" y="898" on="1"/>
        <pt x="1075" y="755" on="1"/>
      </contour>
    </TTGlyph>
    <TTGlyph name="G" xMin="197" yMin="-40" xMax="1406" yMax="1615">
      <contour>
        <pt x="197" y="555" on="1"/>
        <pt x="197" y="672" on="0"/>
        <pt x="234" y="920" on="0"/>
        <pt x="313" y="1155" on="0"/>
        <pt x="437" y="1365" on="0"/>
        <pt x="612" y="1523" on="0"/>
        <pt x="842" y="1615" on="0"/>
        <pt x="986" y="1615" on="1"/>
        <pt x="1083" y="1614" on="0"/>
        <pt x="1295" y="1551" on="0"/>
        <pt x="1406" y="1479" on="1"/>
        <pt x="1329" y="1321" on="1"/>
        <pt x="1228" y="1371" on="0"/>
        <pt x="1057" y="1432" on="0"/>
        <pt x="971" y="1432" on="1"/>
        <pt x="862" y="1432" on="0"/>
        <pt x="696" y="1350" on="0"/>
        <pt x="572" y="1214" on="0"/>
        <pt x="489" y="1035" on="0"/>
        <pt x="439" y="843" on="0"/>
        <pt x="417" y="649" on="0"/>
        <pt x="417" y="565" on="1"/>
        <pt x="417" y="452" on="0"/>
        <pt x="462" y="291" on="0"/>
        <pt x="549" y="189" on="0"/>
        <pt x="679" y="141" on="0"/>
        <pt x="763" y="141" on="1"/>
        <pt x="843" y="141" on="0"/>
        <pt x="974" y="179" on="0"/>
        <pt x="1070" y="243" on="0"/>
        <pt x="1131" y="328" on="0"/>
        <pt x="1141" y="375" on="1"/>
        <pt x="1143" y="381" on="0"/>
        <pt x="1144" y="392" on="0"/>
        <pt x="1145" y="398" on="1"/>
        <pt x="1182" y="675" on="1"/>
        <pt x="818" y="675" on="1"/>
        <pt x="841" y="829" on="1"/>
        <pt x="1392" y="829" on="1"/>
        <pt x="1275" y="0" on="1"/>
        <pt x="1152" y="0" on="1"/>
        <pt x="1148" y="164" on="1"/>
        <pt x="1127" y="131" on="0"/>
        <pt x="1057" y="59" on="0"/>
        <pt x="954" y="-1" on="0"/>
        <pt x="816" y="-40" on="0"/>
        <pt x="727" y="-40" on="1"/>
        <pt x="470" y="-40" on="0"/>
        <pt x="197" y="253" on="0"/>
      </contour>
    </TTGlyph>
    <TTGlyph name="Gbreve" xMin="197" yMin="-40" xMax="1406" yMax="1615">
      <component glyphName="G" x="0" y="0" flags="0x4"/>
    </TTGlyph>
    <TTGlyph name="Gcircumflex" xMin="197" yMin="-40" xMax="1406" yMax="1615">
      <component glyphName="G" x="0" y="0" flags="0x4"/>
    </TTGlyph>
    <TTGlyph name="Gcommaaccent" xMin="197" yMin="-40" xMax="1406" yMax="1615">
      <component glyphName="G" x="0" y="0" flags="0x4"/>
    </TTGlyph>
    <TTGlyph name="Gdotaccent" xMin="197" yMin="-40" xMax="1406" yMax="1615">
      <component glyphName="G" x="0" y="0" flags="0x4"/>
    </TTGlyph>
    <TTGlyph name="H" xMin="125" yMin="0" xMax="1505" yMax="1586">
      <contour>
        <pt x="1065" y="0" on="1"/>
        <pt x="1172" y="754" on="1"/>
        <pt x="447" y="754" on="1"/>
        <pt x="340" y="0" on="1"/>
        <pt x="125" y="0" on="1"/>
        <pt x="352" y="1586" on="1"/>
        <pt x="566" y="1586" on="1"/>
        <pt x="468" y="897" on="1"/>
        <pt x="1192" y="897" on="1"/>
        <pt x="1291" y="1586" on="1"/>
        <pt x="1505" y="1586" on="1"/>
        <pt x="1278" y="0" on="1"/>
      </contour>
    </TTGlyph>
    <TTGlyph name="Hcircumflex" xMin="125" yMin="0" xMax="1505" yMax="1586">
      <component glyphName="H" x="0" y="0" flags="0x4"/>
    </TTGlyph>
    <TTGlyph name="I" xMin="124" yMin="0" xMax="936" yMax="1586">
      <contour>
        <pt x="142" y="122" on="1"/>
        <pt x="326" y="122" on="1"/>
        <pt x="519" y="1457" on="1"/>
        <pt x="336" y="1457" on="1"/>
        <pt x="356" y="1586" on="1"/>
        <pt x="936" y="1586" on="1"/>
        <pt x="916" y="1457" on="1"/>
        <pt x="730" y="1457" on="1"/>
        <pt x="537" y="122" on="1"/>
        <pt x="723" y="122" on="1"/>
        <pt x="703" y="0" on="1"/>
        <pt x="124" y="0" on="1"/>
      </contour>
    </TTGlyph>
    <TTGlyph name="Iacute" xMin="124" yMin="0" xMax="936" yMax="2327">
      <component glyphName="I" x="0" y="0" flags="0x204"/>
      <component glyphName="acute" x="221" y="1560" flags="0x4"/>
    </TTGlyph>
    <TTGlyph name="Iasciitilde" xMin="124" yMin="0" xMax="1107" yMax="2000">
      <component glyphName="I" x="0" y="0" flags="0x4"/>
      <component glyphName="asciitilde" x="249" y="1579" flags="0x4"/>
    </TTGlyph>
    <TTGlyph name="Ibreve" xMin="124" yMin="0" xMax="936" yMax="1586">
      <component glyphName="I" x="0" y="0" flags="0x4"/>
    </TTGlyph>
    <TTGlyph name="Icaron" xMin="124" yMin="0" xMax="1003" yMax="2272">
      <component glyphName="I" x="0" y="0" flags="0x204"/>
      <component glyphName="caron" x="211" y="1586" flags="0x4"/>
    </TTGlyph>
    <TTGlyph name="Icircumflex" xMin="124" yMin="0" xMax="936" yMax="2272">
      <component glyphName="I" x="0" y="0" flags="0x204"/>
      <component glyphName="circumflex" x="217" y="1586" flags="0x4"/>
    </TTGlyph>
    <TTGlyph name="Idieresis" xMin="124" yMin="0" xMax="1210" yMax="1972">
      <component glyphName="I" x="0" y="0" flags="0x204"/>
      <component glyphName="dieresis" x="321" y="1560" flags="0x4"/>
    </TTGlyph>
    <TTGlyph name="Idotaccent" xMin="124" yMin="0" xMax="936" yMax="1586">
      <component glyphName="I" x="0" y="0" flags="0x4"/>
    </TTGlyph>
    <TTGlyph name="Igrave" xMin="124" yMin="0" xMax="936" yMax="2351">
      <component glyphName="I" x="0" y="0" flags="0x204"/>
      <component glyphName="grave" x="325" y="1560" flags="0x4"/>
    </TTGlyph>
    <TTGlyph name="Imacron" xMin="124" yMin="0" xMax="936" yMax="1586">
      <component glyphName="I" x="0" y="0" flags="0x4"/>
    </TTGlyph>
    <TTGlyph name="Iogonek" xMin="124" yMin="0" xMax="936" yMax="1586">
      <component glyphName="I" x="0" y="0" flags="0x4"/>
    </TTGlyph>
    <TTGlyph name="Itilde" xMin="124" yMin="0" xMax="1047" yMax="2004">
      <component glyphName="I" x="0" y="0" flags="0x204"/>
      <component glyphName="tilde" x="229" y="1586" flags="0x4"/>
    </TTGlyph>
    <TTGlyph name="Iuni0306" xMin="124" yMin="0" xMax="1112" yMax="2200">
      <component glyphName="I" x="0" y="0" flags="0x204"/>
      <component glyphName="uni0306" x="338" y="1560" flags="0x4"/>
    </TTGlyph>
    <TTGlyph name="J" xMin="61" yMin="-90" xMax="792" yMax="1586">
      <contour>
        <pt x="61" y="63" on="1"/>
        <pt x="138" y="80" on="0"/>
        <pt x="247" y="119" on="0"/>
        <pt x="322" y="167" on="0"/>
        <pt x="367" y="227" on="0"/>
        <pt x="396" y="304" on="0"/>
        <pt x="412" y="400" on="0"/>
        <pt x="420" y="460" on="1"/>
        <pt x="579" y="1586" on="1"/>
        <pt x="792" y="1586" on="1"/>
        <pt x="643" y="522" on="1"/>
        <pt x="629" y="424" on="0"/>
        <pt x="595" y="262" on="0"/>
        <pt x="542" y="132" on="0"/>
        <pt x="466" y="33" on="0"/>
        <pt x="354" y="-38" on="0"/>
        <pt x="200" y="-81" on="0"/>
        <pt x="97" y="-90" on="1"/>
      </contour>
    </TTGlyph>
    <TTGlyph name="Jcircumflex" xMin="61" yMin="-90" xMax="792" yMax="1586">
      <component glyphName="J" x="0" y="0" flags="0x4"/>
    </TTGlyph>
    <TTGlyph name="K" xMin="128" yMin="0" xMax="1413" yMax="1586">
      <contour>
        <pt x="1189" y="1586" on="1"/>
        <pt x="1413" y="1586" on="1"/>
        <pt x="807" y="799" on="1"/>
        <pt x="886" y="653" on="1"/>
        <pt x="1250" y="0" on="1"/>
        <pt x="1017" y="0" on="1"/>
        <pt x="612" y="734" on="1"/>
        <pt x="445" y="734" on="1"/>
        <pt x="343" y="0" on="1"/>
        <pt x="128" y="0" on="1"/>
        <pt x="351" y="1586" on="1"/>
        <pt x="565" y="1586" on="1"/>
        <pt x="465" y="871" on="1"/>
        <pt x="639" y="871" on="1"/>
      </contour>
    </TTGlyph>
    <TTGlyph name="Kcommaaccent" xMin="128" yMin="0" xMax="1413" yMax="1586">
      <component glyphName="K" x="0" y="0" flags="0x4"/>
    </TTGlyph>
    <TTGlyph name="L" xMin="128" yMin="0" xMax="1038" yMax="1586">
      <contour>
        <pt x="1017" y="0" on="1"/>
        <pt x="128" y="0" on="1"/>
        <pt x="351" y="1586" on="1"/>
        <pt x="565" y="1586" on="1"/>
        <pt x="365" y="165" on="1"/>
        <pt x="1038" y="165" on="1"/>
      </contour>
    </TTGlyph>
    <TTGlyph name="Lacute" xMin="128" yMin="0" xMax="1038" yMax="1586">
      <component glyphName="L" x="0" y="0" flags="0x4"/>
    </TTGlyph>
    <TTGlyph name="Lcommaaccent" xMin="128" yMin="0" xMax="1038" yMax="1586">
      <component glyphName="L" x="0" y="0" flags="0x4"/>
    </TTGlyph>
    <TTGlyph name="Ldot" xMin="128" yMin="0" xMax="1038" yMax="1586">
      <component glyphName="L" x="0" y="0" flags="0x4"/>
    </TTGlyph>
    <TTGlyph name="M" xMin="128" yMin="0" xMax="1847" yMax="1586">
      <contour>
        <pt x="766" y="0" on="1"/>
        <pt x="705" y="352" on="1"/>
        <pt x="531" y="1388" on="1"/>
        <pt x="334" y="0" on="1"/>
        <pt x="128" y="0" on="1"/>
        <pt x="294" y="1182" on="1"/>
        <pt x="354" y="1586" on="1"/>
        <pt x="678" y="1586" on="1"/>
        <pt x="747" y="1182" on="1"/>
        <pt x="846" y="584" on="1"/>
        <pt x="904" y="227" on="1"/>
        <pt x="1046" y="545" on="1"/>
        <pt x="1357" y="1229" on="1"/>
        <pt x="1520" y="1586" on="1"/>
        <pt x="1847" y="1586" on="1"/>
        <pt x="1770" y="1006" on="1"/>
        <pt x="1627" y="0" on="1"/>
        <pt x="1420" y="0" on="1"/>
        <pt x="1616" y="1390" on="1"/>
        <pt x="1081" y="196" on="1"/>
        <pt x="991" y="0" on="1"/>
      </contour>
    </TTGlyph>
    <TTGlyph name="N" xMin="128" yMin="0" xMax="1584" yMax="1586">
      <contour>
        <pt x="1359" y="0" on="1"/>
        <pt x="1072" y="0" on="1"/>
        <pt x="889" y="452" on="1"/>
        <pt x="527" y="1363" on="1"/>
        <pt x="336" y="0" on="1"/>
        <pt x="128" y="0" on="1"/>
        <pt x="353" y="1586" on="1"/>
        <pt x="642" y="1586" on="1"/>
        <pt x="823" y="1135" on="1"/>
        <pt x="1186" y="223" on="1"/>
        <pt x="1376" y="1586" on="1"/>
        <pt x="1584" y="1586" on="1"/>
      </contour>
    </TTGlyph>
    <TTGlyph name="Nacute" xMin="128" yMin="0" xMax="1584" yMax="1586">
      <component glyphName="N" x="0" y="0" flags="0x4"/>
    </TTGlyph>
    <TTGlyph name="Ncaron" xMin="128" yMin="0" xMax="1584" yMax="1586">
      <component glyphName="N" x="0" y="0" flags="0x4"/>
    </TTGlyph>
    <TTGlyph name="Ncommaaccent" xMin="128" yMin="0" xMax="1584" yMax="1586">
      <component glyphName="N" x="0" y="0" flags="0x4"/>
    </TTGlyph>
    <TTGlyph name="Ntilde" xMin="128" yMin="0" xMax="1584" yMax="1978">
      <component glyphName="N" x="0" y="0" flags="0x204"/>
      <component glyphName="tilde" x="601" y="1560" flags="0x4"/>
    </TTGlyph>
    <TTGlyph name="O" xMin="197" yMin="-40" xMax="1476" yMax="1614">
      <contour>
        <pt x="1476" y="1024" on="1"/>
        <pt x="1476" y="788" on="0"/>
        <pt x="1362" y="397" on="0"/>
        <pt x="1158" y="116" on="0"/>
        <pt x="878" y="-40" on="0"/>
        <pt x="712" y="-40" on="1"/>
        <pt x="593" y="-40" on="0"/>
        <pt x="403" y="29" on="0"/>
        <pt x="269" y="171" on="0"/>
        <pt x="197" y="386" on="0"/>
        <pt x="197" y="533" on="1"/>
        <pt x="197" y="687" on="0"/>
        <pt x="248" y="968" on="0"/>
        <pt x="342" y="1208" on="0"/>
        <pt x="477" y="1402" on="0"/>
        <pt x="645" y="1540" on="0"/>
        <pt x="844" y="1614" on="0"/>
        <pt x="955" y="1614" on="1"/>
        <pt x="1091" y="1614" on="0"/>
        <pt x="1288" y="1532" on="0"/>
        <pt x="1415" y="1379" on="0"/>
        <pt x="1476" y="1160" on="0"/>
      </contour>
      <contour>
        <pt x="1256" y="1027" on="1"/>
        <pt x="1256" y="1116" on="0"/>
        <pt x="1222" y="1265" on="0"/>
        <pt x="1146" y="1372" on="0"/>
        <pt x="1023" y="1432" on="0"/>
        <pt x="934" y="1432" on="1"/>
        <pt x="847" y="1432" on="0"/>
        <pt x="703" y="1361" on="0"/>
        <pt x="588" y="1236" on="0"/>
        <pt x="503" y="1066" on="0"/>
        <pt x="447" y="867" on="0"/>
        <pt x="419" y="649" on="0"/>
        <pt x="419" y="538" on="1"/>
        <pt x="419" y="337" on="0"/>
        <pt x="581" y="142" on="0"/>
        <pt x="739" y="142" on="1"/>
        <pt x="825" y="142" on="0"/>
        <pt x="968" y="211" on="0"/>
        <pt x="1083" y="333" on="0"/>
        <pt x="1169" y="501" on="0"/>
        <pt x="1227" y="697" on="0"/>
        <pt x="1256" y="915" on="0"/>
      </contour>
    </TTGlyph>
    <TTGlyph name="OE" xMin="197" yMin="-40" xMax="2267" yMax="1614">
      <contour>
        <pt x="2059" y="0" on="1"/>
        <pt x="1133" y="0" on="1"/>
        <pt x="1162" y="203" on="1"/>
        <pt x="1135" y="141" on="0"/>
        <pt x="1036" y="49" on="0"/>
        <pt x="914" y="-11" on="0"/>
        <pt x="780" y="-40" on="0"/>
        <pt x="719" y="-40" on="1"/>
        <pt x="596" y="-40" on="0"/>
        <pt x="402" y="32" on="0"/>
        <pt x="268" y="180" on="0"/>
        <pt x="197" y="406" on="0"/>
        <pt x="197" y="560" on="1"/>
        <pt x="197" y="711" on="0"/>
        <pt x="247" y="985" on="0"/>
        <pt x="339" y="1220" on="0"/>
        <pt x="471" y="1409" on="0"/>
        <pt x="636" y="1542" on="0"/>
        <pt x="831" y="1614" on="0"/>
        <pt x="940" y="1614" on="1"/>
        <pt x="1009" y="1614" on="0"/>
        <pt x="1134" y="1582" on="0"/>
        <pt x="1236" y="1519" on="0"/>
        <pt x="1311" y="1424" on="0"/>
        <pt x="1330" y="1360" on="1"/>
        <pt x="1353" y="1586" on="1"/>
        <pt x="2267" y="1586" on="1"/>
        <pt x="2242" y="1420" on="1"/>
        <pt x="1544" y="1420" on="1"/>
        <pt x="1472" y="907" on="1"/>
        <pt x="2086" y="907" on="1"/>
        <pt x="2067" y="764" on="1"/>
        <pt x="1452" y="764" on="1"/>
        <pt x="1368" y="165" on="1"/>
        <pt x="2085" y="165" on="1"/>
      </contour>
      <contour>
        <pt x="1249" y="1004" on="1"/>
        <pt x="1249" y="1097" on="0"/>
        <pt x="1217" y="1254" on="0"/>
        <pt x="1140" y="1368" on="0"/>
        <pt x="1014" y="1432" on="0"/>
        <pt x="921" y="1432" on="1"/>
        <pt x="836" y="1432" on="0"/>
        <pt x="696" y="1364" on="0"/>
        <pt x="584" y="1244" on="0"/>
        <pt x="501" y="1080" on="0"/>
        <pt x="446" y="887" on="0"/>
        <pt x="419" y="673" on="0"/>
        <pt x="419" y="564" on="1"/>
        <pt x="419" y="142" on="0"/>
        <pt x="744" y="142" on="1"/>
        <pt x="828" y="142" on="0"/>
        <pt x="969" y="209" on="0"/>
        <pt x="1081" y="327" on="0"/>
        <pt x="1165" y="489" on="0"/>
        <pt x="1221" y="681" on="0"/>
        <pt x="1249" y="894" on="0"/>
      </contour>
    </TTGlyph>
    <TTGlyph name="Oacute" xMin="197" yMin="-40" xMax="1476" yMax="2327">
      <component glyphName="O" x="0" y="0" flags="0x204"/>
      <component glyphName="acute" x="529" y="1560" flags="0x4"/>
    </TTGlyph>
    <TTGlyph name="Obreve" xMin="197" yMin="-40" xMax="1476" yMax="1614">
      <component glyphName="O" x="0" y="0" flags="0x4"/>
    </TTGlyph>
    <TTGlyph name="Ocaron" xMin="197" yMin="-40" xMax="1476" yMax="2246">
      <component glyphName="O" x="0" y="0" flags="0x204"/>
      <component glyphName="caron" x="497" y="1560" flags="0x4"/>
    </TTGlyph>
    <TTGlyph name="Ocircumflex" xMin="197" yMin="-40" xMax="1476" yMax="2246">
      <component glyphName="O" x="0" y="0" flags="0x204"/>
      <component glyphName="circumflex" x="578" y="1560" flags="0x4"/>
    </TTGlyph>
    <TTGlyph name="Odieresis" xMin="197" yMin="-40" xMax="1476" yMax="1972">
      <component glyphName="O" x="0" y="0" flags="0x204"/>
      <component glyphName="dieresis" x="453" y="1560" flags="0x4"/>
    </TTGlyph>
    <TTGlyph name="Ograve" xMin="197" yMin="-40" xMax="1476" yMax="2351">
      <component glyphName="O" x="0" y="0" flags="0x204"/>
      <component glyphName="grave" x="633" y="1560" flags="0x4"/>
    </TTGlyph>
    <TTGlyph name="Ohungarumlaut" xMin="197" yMin="-40" xMax="1476" yMax="1614">
      <component glyphName="O" x="0" y="0" flags="0x4"/>
    </TTGlyph>
    <TTGlyph name="Omacron" xMin="197" yMin="-40" xMax="1476" yMax="1614">
      <component glyphName="O" x="0" y="0" flags="0x4"/>
    </TTGlyph>
    <TTGlyph name="Oslash" xMin="198" yMin="-154" xMax="1477" yMax="1735">
      <contour>
        <pt x="1266" y="1030" on="1"/>
        <pt x="1265" y="1138" on="0"/>
        <pt x="1217" y="1305" on="0"/>
        <pt x="1157" y="1360" on="1"/>
        <pt x="631" y="151" on="1"/>
        <pt x="655" y="143" on="0"/>
        <pt x="710" y="137" on="0"/>
        <pt x="742" y="137" on="1"/>
        <pt x="830" y="137" on="0"/>
        <pt x="977" y="207" on="0"/>
        <pt x="1094" y="330" on="0"/>
        <pt x="1182" y="498" on="0"/>
        <pt x="1239" y="697" on="0"/>
        <pt x="1267" y="917" on="0"/>
      </contour>
      <contour>
        <pt x="1475" y="1024" on="1"/>
        <pt x="1477" y="788" on="0"/>
        <pt x="1366" y="397" on="0"/>
        <pt x="1164" y="116" on="0"/>
        <pt x="885" y="-40" on="0"/>
        <pt x="719" y="-40" on="1"/>
        <pt x="633" y="-40" on="0"/>
        <pt x="557" y="-22" on="1"/>
        <pt x="501" y="-154" on="1"/>
        <pt x="388" y="-105" on="1"/>
        <pt x="442" y="22" on="1"/>
        <pt x="327" y="85" on="0"/>
        <pt x="201" y="335" on="0"/>
        <pt x="199" y="533" on="1"/>
        <pt x="198" y="687" on="0"/>
        <pt x="246" y="968" on="0"/>
        <pt x="339" y="1208" on="0"/>
        <pt x="472" y="1402" on="0"/>
        <pt x="640" y="1540" on="0"/>
        <pt x="838" y="1614" on="0"/>
        <pt x="949" y="1614" on="1"/>
        <pt x="1049" y="1614" on="0"/>
        <pt x="1123" y="1593" on="1"/>
        <pt x="1185" y="1735" on="1"/>
        <pt x="1297" y="1690" on="1"/>
        <pt x="1235" y="1547" on="1"/>
        <pt x="1360" y="1476" on="0"/>
        <pt x="1473" y="1210" on="0"/>
      </contour>
      <contour>
        <pt x="932" y="1438" on="1"/>
        <pt x="844" y="1438" on="0"/>
        <pt x="698" y="1366" on="0"/>
        <pt x="581" y="1241" on="0"/>
        <pt x="494" y="1069" on="0"/>
        <pt x="436" y="868" on="0"/>
        <pt x="408" y="648" on="0"/>
        <pt x="409" y="536" on="1"/>
        <pt x="410" y="418" on="0"/>
        <pt x="465" y="260" on="0"/>
        <pt x="522" y="209" on="1"/>
        <pt x="1050" y="1420" on="1"/>
        <pt x="999" y="1438" on="0"/>
      </contour>
    </TTGlyph>
    <TTGlyph name="Oslashacute" xMin="198" yMin="-154" xMax="1477" yMax="1735">
      <component glyphName="Oslash" x="0" y="0" flags="0x4"/>
    </TTGlyph>
    <TTGlyph name="Otilde" xMin="197" yMin="-40" xMax="1476" yMax="1978">
      <component glyphName="O" x="0" y="0" flags="0x204"/>
      <component glyphName="tilde" x="559" y="1560" flags="0x4"/>
    </TTGlyph>
    <TTGlyph name="P" xMin="126" yMin="0" xMax="1331" yMax="1586">
      <contour>
        <pt x="589" y="789" on="1"/>
        <pt x="737" y="789" on="0"/>
        <pt x="942" y="834" on="0"/>
        <pt x="1069" y="928" on="0"/>
        <pt x="1126" y="1075" on="0"/>
        <pt x="1126" y="1176" on="1"/>
        <pt x="1126" y="1259" on="0"/>
        <pt x="1064" y="1356" on="0"/>
        <pt x="954" y="1406" on="0"/>
        <pt x="803" y="1420" on="0"/>
        <pt x="715" y="1420" on="1"/>
        <pt x="542" y="1420" on="1"/>
        <pt x="454" y="789" on="1"/>
      </contour>
      <contour>
        <pt x="352" y="1586" on="1"/>
        <pt x="731" y="1586" on="1"/>
        <pt x="896" y="1586" on="0"/>
        <pt x="1125" y="1540" on="0"/>
        <pt x="1267" y="1445" on="0"/>
        <pt x="1331" y="1298" on="0"/>
        <pt x="1331" y="1198" on="1"/>
        <pt x="1330" y="1030" on="0"/>
        <pt x="1221" y="811" on="0"/>
        <pt x="1021" y="681" on="0"/>
        <pt x="738" y="629" on="0"/>
        <pt x="564" y="629" on="1"/>
        <pt x="429" y="629" on="1"/>
        <pt x="340" y="0" on="1"/>
        <pt x="126" y="0" on="1"/>
      </contour>
    </TTGlyph>
    <TTGlyph name="Q" xMin="197" yMin="-425" xMax="1481" yMax="1615">
      <contour>
        <pt x="421" y="610" on="1"/>
        <pt x="419" y="553" on="0"/>
        <pt x="426" y="454" on="0"/>
        <pt x="434" y="412" on="1"/>
        <pt x="460" y="271" on="0"/>
        <pt x="617" y="141" on="0"/>
        <pt x="751" y="141" on="1"/>
        <pt x="860" y="141" on="0"/>
        <pt x="1024" y="232" on="0"/>
        <pt x="1142" y="388" on="0"/>
        <pt x="1217" y="594" on="0"/>
        <pt x="1237" y="709" on="1"/>
        <pt x="1251" y="790" on="0"/>
        <pt x="1264" y="939" on="0"/>
        <pt x="1264" y="1005" on="1"/>
        <pt x="1264" y="1224" on="0"/>
        <pt x="1098" y="1432" on="0"/>
        <pt x="932" y="1432" on="1"/>
        <pt x="837" y="1432" on="0"/>
        <pt x="690" y="1360" on="0"/>
        <pt x="578" y="1238" on="0"/>
        <pt x="500" y="1074" on="0"/>
        <pt x="449" y="892" on="0"/>
        <pt x="424" y="700" on="0"/>
      </contour>
      <contour>
        <pt x="1481" y="1009" on="1"/>
        <pt x="1481" y="954" on="0"/>
        <pt x="1471" y="815" on="0"/>
        <pt x="1446" y="662" on="0"/>
        <pt x="1404" y="502" on="0"/>
        <pt x="1338" y="347" on="0"/>
        <pt x="1248" y="204" on="0"/>
        <pt x="1126" y="86" on="0"/>
        <pt x="972" y="1" on="0"/>
        <pt x="875" y="-19" on="1"/>
        <pt x="1158" y="-301" on="1"/>
        <pt x="1032" y="-425" on="1"/>
        <pt x="640" y="-33" on="1"/>
        <pt x="542" y="-20" on="0"/>
        <pt x="379" y="60" on="0"/>
        <pt x="262" y="203" on="0"/>
        <pt x="197" y="416" on="0"/>
        <pt x="197" y="562" on="1"/>
        <pt x="197" y="634" on="0"/>
        <pt x="212" y="801" on="0"/>
        <pt x="248" y="976" on="0"/>
        <pt x="306" y="1152" on="0"/>
        <pt x="392" y="1313" on="0"/>
        <pt x="507" y="1453" on="0"/>
        <pt x="657" y="1556" on="0"/>
        <pt x="844" y="1615" on="0"/>
        <pt x="958" y="1615" on="1"/>
        <pt x="1067" y="1615" on="0"/>
        <pt x="1257" y="1551" on="0"/>
        <pt x="1399" y="1407" on="0"/>
        <pt x="1481" y="1176" on="0"/>
      </contour>
    </TTGlyph>
    <TTGlyph name="R" xMin="125" yMin="0" xMax="1325" yMax="1586">
      <contour>
        <pt x="963" y="0" on="1"/>
        <pt x="975" y="89" on="0"/>
        <pt x="993" y="224" on="0"/>
        <pt x="1006" y="324" on="0"/>
        <pt x="1016" y="392" on="0"/>
        <pt x="1022" y="440" on="0"/>
        <pt x="1025" y="470" on="0"/>
        <pt x="1026" y="482" on="1"/>
        <pt x="1026" y="538" on="0"/>
        <pt x="1013" y="576" on="1"/>
        <pt x="999" y="633" on="0"/>
        <pt x="922" y="690" on="0"/>
        <pt x="853" y="704" on="1"/>
        <pt x="807" y="718" on="0"/>
        <pt x="684" y="730" on="0"/>
        <pt x="603" y="730" on="1"/>
        <pt x="445" y="730" on="1"/>
        <pt x="339" y="0" on="1"/>
        <pt x="125" y="0" on="1"/>
        <pt x="353" y="1586" on="1"/>
        <pt x="740" y="1586" on="1"/>
        <pt x="821" y="1586" on="0"/>
        <pt x="964" y="1579" on="0"/>
        <pt x="1025" y="1568" on="1"/>
        <pt x="1091" y="1556" on="0"/>
        <pt x="1201" y="1510" on="0"/>
        <pt x="1280" y="1434" on="0"/>
        <pt x="1325" y="1324" on="0"/>
        <pt x="1325" y="1247" on="1"/>
        <pt x="1325" y="1127" on="0"/>
        <pt x="1243" y="960" on="0"/>
        <pt x="1114" y="854" on="0"/>
        <pt x="957" y="804" on="0"/>
        <pt x="882" y="803" on="1"/>
        <pt x="969" y="794" on="0"/>
        <pt x="1101" y="751" on="0"/>
        <pt x="1191" y="677" on="0"/>
        <pt x="1238" y="570" on="0"/>
        <pt x="1239" y="497" on="1"/>
        <pt x="1239" y="488" on="0"/>
        <pt x="1235" y="449" on="0"/>
        <pt x="1230" y="403" on="1"/>
        <pt x="1222" y="338" on="0"/>
        <pt x="1196" y="145" on="0"/>
        <pt x="1176" y="0" on="1"/>
      </contour>
      <contour>
        <pt x="582" y="874" on="1"/>
        <pt x="699" y="874" on="0"/>
        <pt x="899" y="895" on="0"/>
        <pt x="1046" y="965" on="0"/>
        <pt x="1130" y="1097" on="0"/>
        <pt x="1130" y="1209" on="1"/>
        <pt x="1130" y="1281" on="0"/>
        <pt x="1068" y="1364" on="0"/>
        <pt x="961" y="1408" on="0"/>
        <pt x="820" y="1420" on="0"/>
        <pt x="741" y="1420" on="1"/>
        <pt x="543" y="1420" on="1"/>
        <pt x="465" y="874" on="1"/>
      </contour>
    </TTGlyph>
    <TTGlyph name="Racute" xMin="125" yMin="0" xMax="1325" yMax="1586">
      <component glyphName="R" x="0" y="0" flags="0x4"/>
    </TTGlyph>
    <TTGlyph name="Rcaron" xMin="125" yMin="0" xMax="1325" yMax="1586">
      <component glyphName="R" x="0" y="0" flags="0x4"/>
    </TTGlyph>
    <TTGlyph name="Rcommaaccent" xMin="125" yMin="0" xMax="1325" yMax="1586">
      <component glyphName="R" x="0" y="0" flags="0x4"/>
    </TTGlyph>
    <TTGlyph name="S" xMin="157" yMin="-40" xMax="1256" yMax="1615">
      <contour>
        <pt x="1207" y="1320" on="1"/>
        <pt x="1185" y="1337" on="0"/>
        <pt x="1106" y="1376" on="0"/>
        <pt x="1008" y="1410" on="0"/>
        <pt x="898" y="1432" on="0"/>
        <pt x="846" y="1432" on="1"/>
        <pt x="746" y="1432" on="0"/>
        <pt x="606" y="1396" on="0"/>
        <pt x="517" y="1330" on="0"/>
        <pt x="477" y="1236" on="0"/>
        <pt x="477" y="1178" on="1"/>
        <pt x="477" y="1138" on="0"/>
        <pt x="501" y="1081" on="0"/>
        <pt x="549" y="1037" on="0"/>
        <pt x="620" y="1001" on="0"/>
        <pt x="667" y="983" on="1"/>
        <pt x="901" y="892" on="1"/>
        <pt x="972" y="864" on="0"/>
        <pt x="1081" y="793" on="0"/>
        <pt x="1155" y="702" on="0"/>
        <pt x="1193" y="587" on="0"/>
        <pt x="1193" y="515" on="1"/>
        <pt x="1193" y="405" on="0"/>
        <pt x="1121" y="204" on="0"/>
        <pt x="971" y="51" on="0"/>
        <pt x="741" y="-40" on="0"/>
        <pt x="584" y="-40" on="1"/>
        <pt x="514" y="-40" on="0"/>
        <pt x="380" y="-20" on="0"/>
        <pt x="265" y="10" on="0"/>
        <pt x="179" y="46" on="0"/>
        <pt x="157" y="63" on="1"/>
        <pt x="201" y="247" on="1"/>
        <pt x="238" y="224" on="0"/>
        <pt x="319" y="185" on="0"/>
        <pt x="412" y="157" on="0"/>
        <pt x="518" y="142" on="0"/>
        <pt x="580" y="142" on="1"/>
        <pt x="780" y="142" on="0"/>
        <pt x="976" y="304" on="0"/>
        <pt x="976" y="473" on="1"/>
        <pt x="976" y="515" on="0"/>
        <pt x="953" y="579" on="0"/>
        <pt x="908" y="630" on="0"/>
        <pt x="844" y="669" on="0"/>
        <pt x="802" y="686" on="1"/>
        <pt x="550" y="792" on="1"/>
        <pt x="482" y="820" on="0"/>
        <pt x="426" y="855" on="1"/>
        <pt x="344" y="906" on="0"/>
        <pt x="262" y="1049" on="0"/>
        <pt x="262" y="1139" on="1"/>
        <pt x="262" y="1251" on="0"/>
        <pt x="354" y="1427" on="0"/>
        <pt x="506" y="1550" on="0"/>
        <pt x="704" y="1615" on="0"/>
        <pt x="810" y="1615" on="1"/>
        <pt x="879" y="1615" on="0"/>
        <pt x="1009" y="1598" on="0"/>
        <pt x="1124" y="1567" on="0"/>
        <pt x="1220" y="1526" on="0"/>
        <pt x="1256" y="1502" on="1"/>
      </contour>
    </TTGlyph>
    <TTGlyph name="Sacute" xMin="157" yMin="-40" xMax="1256" yMax="1615">
      <component glyphName="S" x="0" y="0" flags="0x4"/>
    </TTGlyph>
    <TTGlyph name="Scaron" xMin="157" yMin="-40" xMax="1256" yMax="2277">
      <component glyphName="S" x="0" y="0" flags="0x204"/>
      <component glyphName="caron" x="440" y="1591" flags="0x4"/>
    </TTGlyph>
    <TTGlyph name="Scedilla" xMin="157" yMin="-40" xMax="1256" yMax="1615">
      <component glyphName="S" x="0" y="0" flags="0x4"/>
    </TTGlyph>
    <TTGlyph name="Scircumflex" xMin="157" yMin="-40" xMax="1256" yMax="1615">
      <component glyphName="S" x="0" y="0" flags="0x4"/>
    </TTGlyph>
    <TTGlyph name="Scommaaccent" xMin="157" yMin="-40" xMax="1256" yMax="1615">
      <component glyphName="S" x="0" y="0" flags="0x4"/>
    </TTGlyph>
    <TTGlyph name="T" xMin="176" yMin="0" xMax="1250" yMax="1586">
      <contour>
        <pt x="1227" y="1420" on="1"/>
        <pt x="809" y="1420" on="1"/>
        <pt x="610" y="0" on="1"/>
        <pt x="397" y="0" on="1"/>
        <pt x="596" y="1420" on="1"/>
        <pt x="176" y="1420" on="1"/>
        <pt x="200" y="1586" on="1"/>
        <pt x="1250" y="1586" on="1"/>
      </contour>
    </TTGlyph>
    <TTGlyph name="Tcaron" xMin="176" yMin="0" xMax="1250" yMax="1586">
      <component glyphName="T" x="0" y="0" flags="0x4"/>
    </TTGlyph>
    <TTGlyph name="Tcommaaccent" xMin="176" yMin="0" xMax="1250" yMax="1586">
      <component glyphName="T" x="0" y="0" flags="0x4"/>
    </TTGlyph>
    <TTGlyph name="Thorn" xMin="128" yMin="0" xMax="1306" yMax="1587">
      <contour>
        <pt x="350" y="1587" on="1"/>
        <pt x="565" y="1587" on="1"/>
        <pt x="547" y="1453" on="1"/>
        <pt x="708" y="1453" on="1"/>
        <pt x="869" y="1453" on="0"/>
        <pt x="1096" y="1411" on="0"/>
        <pt x="1240" y="1321" on="0"/>
        <pt x="1306" y="1181" on="0"/>
        <pt x="1306" y="1083" on="1"/>
        <pt x="1306" y="927" on="0"/>
        <pt x="1211" y="705" on="0"/>
        <pt x="1020" y="562" on="0"/>
        <pt x="733" y="496" on="0"/>
        <pt x="541" y="496" on="1"/>
        <pt x="412" y="496" on="1"/>
        <pt x="343" y="0" on="1"/>
        <pt x="128" y="0" on="1"/>
      </contour>
      <contour>
        <pt x="1099" y="1040" on="1"/>
        <pt x="1101" y="1081" on="0"/>
        <pt x="1093" y="1114" on="1"/>
        <pt x="1084" y="1158" on="0"/>
        <pt x="1033" y="1221" on="0"/>
        <pt x="937" y="1261" on="0"/>
        <pt x="790" y="1280" on="0"/>
        <pt x="685" y="1280" on="1"/>
        <pt x="522" y="1280" on="1"/>
        <pt x="436" y="672" on="1"/>
        <pt x="564" y="672" on="1"/>
        <pt x="712" y="672" on="0"/>
        <pt x="915" y="710" on="0"/>
        <pt x="1041" y="797" on="0"/>
        <pt x="1097" y="938" on="0"/>
      </contour>
    </TTGlyph>
    <TTGlyph name="U" xMin="185" yMin="-40" xMax="1504" yMax="1586">
      <contour>
        <pt x="723" y="131" on="1"/>
        <pt x="825" y="131" on="0"/>
        <pt x="971" y="189" on="0"/>
        <pt x="1074" y="325" on="0"/>
        <pt x="1142" y="549" on="0"/>
        <pt x="1166" y="715" on="1"/>
        <pt x="1290" y="1586" on="1"/>
        <pt x="1504" y="1586" on="1"/>
        <pt x="1382" y="719" on="1"/>
        <pt x="1350" y="493" on="0"/>
        <pt x="1223" y="200" on="0"/>
        <pt x="1046" y="28" on="0"/>
        <pt x="825" y="-40" on="0"/>
        <pt x="700" y="-40" on="1"/>
        <pt x="577" y="-40" on="0"/>
        <pt x="386" y="34" on="0"/>
        <pt x="254" y="181" on="0"/>
        <pt x="185" y="398" on="0"/>
        <pt x="185" y="541" on="1"/>
        <pt x="185" y="553" on="0"/>
        <pt x="185" y="580" on="0"/>
        <pt x="187" y="613" on="0"/>
        <pt x="192" y="656" on="0"/>
        <pt x="196" y="685" on="1"/>
        <pt x="203" y="743" on="0"/>
        <pt x="224" y="901" on="0"/>
        <pt x="254" y="1117" on="0"/>
        <pt x="293" y="1401" on="0"/>
        <pt x="319" y="1586" on="1"/>
        <pt x="533" y="1586" on="1"/>
        <pt x="507" y="1399" on="0"/>
        <pt x="467" y="1111" on="0"/>
        <pt x="437" y="891" on="0"/>
        <pt x="415" y="730" on="0"/>
        <pt x="408" y="670" on="1"/>
        <pt x="404" y="639" on="0"/>
        <pt x="399" y="594" on="0"/>
        <pt x="397" y="560" on="0"/>
        <pt x="396" y="534" on="0"/>
        <pt x="396" y="522" on="1"/>
        <pt x="396" y="434" on="0"/>
        <pt x="429" y="290" on="0"/>
        <pt x="505" y="187" on="0"/>
        <pt x="630" y="131" on="0"/>
      </contour>
    </TTGlyph>
    <TTGlyph name="Uacute" xMin="185" yMin="-40" xMax="1504" yMax="2327">
      <component glyphName="U" x="0" y="0" flags="0x204"/>
      <component glyphName="acute" x="531" y="1560" flags="0x4"/>
    </TTGlyph>
    <TTGlyph name="Ubreve" xMin="185" yMin="-40" xMax="1504" yMax="1586">
      <component glyphName="U" x="0" y="0" flags="0x4"/>
    </TTGlyph>
    <TTGlyph name="Ucaron" xMin="185" yMin="-40" xMax="1504" yMax="2246">
      <component glyphName="U" x="0" y="0" flags="0x204"/>
      <component glyphName="caron" x="499" y="1560" flags="0x4"/>
    </TTGlyph>
    <TTGlyph name="Ucircumflex" xMin="185" yMin="-40" xMax="1504" yMax="2246">
      <component glyphName="U" x="0" y="0" flags="0x204"/>
      <component glyphName="circumflex" x="580" y="1560" flags="0x4"/>
    </TTGlyph>
    <TTGlyph name="Udieresis" xMin="185" yMin="-40" xMax="1504" yMax="1972">
      <component glyphName="U" x="0" y="0" flags="0x204"/>
      <component glyphName="dieresis" x="455" y="1560" flags="0x4"/>
    </TTGlyph>
    <TTGlyph name="Ugrave" xMin="185" yMin="-40" xMax="1504" yMax="2351">
      <component glyphName="U" x="0" y="0" flags="0x204"/>
      <component glyphName="grave" x="635" y="1560" flags="0x4"/>
    </TTGlyph>
    <TTGlyph name="Uhungarumlaut" xMin="185" yMin="-40" xMax="1504" yMax="1586">
      <component glyphName="U" x="0" y="0" flags="0x4"/>
    </TTGlyph>
    <TTGlyph name="Umacron" xMin="185" yMin="-40" xMax="1504" yMax="1586">
      <component glyphName="U" x="0" y="0" flags="0x4"/>
    </TTGlyph>
    <TTGlyph name="Uogonek" xMin="185" yMin="-40" xMax="1504" yMax="1586">
      <component glyphName="U" x="0" y="0" flags="0x4"/>
    </TTGlyph>
    <TTGlyph name="Uring" xMin="185" yMin="-40" xMax="1504" yMax="1586">
      <component glyphName="U" x="0" y="0" flags="0x4"/>
    </TTGlyph>
    <TTGlyph name="Utilde" xMin="185" yMin="-40" xMax="1504" yMax="1978">
      <component glyphName="U" x="0" y="0" flags="0x204"/>
      <component glyphName="tilde" x="561" y="1560" flags="0x4"/>
    </TTGlyph>
    <TTGlyph name="V" xMin="68" yMin="0" xMax="1262" yMax="1586">
      <contour>
        <pt x="273" y="1585" on="1"/>
        <pt x="460" y="189" on="1"/>
        <pt x="1047" y="1586" on="1"/>
        <pt x="1262" y="1586" on="1"/>
        <pt x="581" y="0" on="1"/>
        <pt x="299" y="0" on="1"/>
        <pt x="68" y="1585" on="1"/>
      </contour>
    </TTGlyph>
    <TTGlyph name="W" xMin="277" yMin="0" xMax="1991" yMax="1586">
      <contour>
        <pt x="953" y="1583" on="1"/>
        <pt x="1252" y="1583" on="1"/>
        <pt x="1323" y="188" on="1"/>
        <pt x="1786" y="1586" on="1"/>
        <pt x="1991" y="1586" on="1"/>
        <pt x="1440" y="0" on="1"/>
        <pt x="1151" y="0" on="1"/>
        <pt x="1093" y="1406" on="1"/>
        <pt x="600" y="0" on="1"/>
        <pt x="300" y="0" on="1"/>
        <pt x="277" y="1586" on="1"/>
        <pt x="472" y="1586" on="1"/>
        <pt x="486" y="185" on="1"/>
      </contour>
    </TTGlyph>
    <TTGlyph name="Wacute" xMin="277" yMin="0" xMax="1991" yMax="1586">
      <component glyphName="W" x="0" y="0" flags="0x4"/>
    </TTGlyph>
    <TTGlyph name="Wcircumflex" xMin="277" yMin="0" xMax="1991" yMax="1586">
      <component glyphName="W" x="0" y="0" flags="0x4"/>
    </TTGlyph>
    <TTGlyph name="Wdieresis" xMin="277" yMin="0" xMax="1991" yMax="1586">
      <component glyphName="W" x="0" y="0" flags="0x4"/>
    </TTGlyph>
    <TTGlyph name="Wgrave" xMin="277" yMin="0" xMax="1991" yMax="1586">
      <component glyphName="W" x="0" y="0" flags="0x4"/>
    </TTGlyph>
    <TTGlyph name="X" xMin="22" yMin="0" xMax="1431" yMax="1586">
      <contour>
        <pt x="849" y="801" on="1"/>
        <pt x="1187" y="0" on="1"/>
        <pt x="946" y="0" on="1"/>
        <pt x="705" y="630" on="1"/>
        <pt x="263" y="0" on="1"/>
        <pt x="22" y="0" on="1"/>
        <pt x="607" y="801" on="1"/>
        <pt x="267" y="1586" on="1"/>
        <pt x="493" y="1586" on="1"/>
        <pt x="752" y="964" on="1"/>
        <pt x="1204" y="1586" on="1"/>
        <pt x="1431" y="1586" on="1"/>
      </contour>
    </TTGlyph>
    <TTGlyph name="Y" xMin="209" yMin="0" xMax="1367" yMax="1582">
      <contour>
        <pt x="657" y="713" on="1"/>
        <pt x="1148" y="1582" on="1"/>
        <pt x="1367" y="1582" on="1"/>
        <pt x="735" y="496" on="1"/>
        <pt x="666" y="0" on="1"/>
        <pt x="455" y="0" on="1"/>
        <pt x="527" y="519" on="1"/>
        <pt x="209" y="1582" on="1"/>
        <pt x="413" y="1582" on="1"/>
      </contour>
    </TTGlyph>
    <TTGlyph name="Yacute" xMin="209" yMin="0" xMax="1367" yMax="2327">
      <component glyphName="Y" x="0" y="0" flags="0x204"/>
      <component glyphName="acute" x="382" y="1560" flags="0x4"/>
    </TTGlyph>
    <TTGlyph name="Ycircumflex" xMin="209" yMin="0" xMax="1367" yMax="2246">
      <component glyphName="Y" x="0" y="0" flags="0x204"/>
      <component glyphName="circumflex" x="431" y="1560" flags="0x4"/>
    </TTGlyph>
    <TTGlyph name="Ydieresis" xMin="209" yMin="0" xMax="1367" yMax="1972">
      <component glyphName="Y" x="0" y="0" flags="0x204"/>
      <component glyphName="dieresis" x="306" y="1560" flags="0x4"/>
    </TTGlyph>
    <TTGlyph name="Ygrave" xMin="209" yMin="0" xMax="1367" yMax="2351">
      <component glyphName="Y" x="0" y="0" flags="0x204"/>
      <component glyphName="grave" x="486" y="1560" flags="0x4"/>
    </TTGlyph>
    <TTGlyph name="Ytilde" xMin="209" yMin="0" xMax="1367" yMax="1997">
      <component glyphName="Y" x="0" y="0" flags="0x4"/>
      <component glyphName="tilde" x="534" y="1579" flags="0x4"/>
    </TTGlyph>
    <TTGlyph name="Z" xMin="89" yMin="0" xMax="1289" yMax="1582">
      <contour>
        <pt x="1289" y="1582" on="1"/>
        <pt x="1265" y="1409" on="1"/>
        <pt x="331" y="166" on="1"/>
        <pt x="1091" y="166" on="1"/>
        <pt x="1069" y="0" on="1"/>
        <pt x="89" y="0" on="1"/>
        <pt x="116" y="197" on="1"/>
        <pt x="1039" y="1420" on="1"/>
        <pt x="288" y="1420" on="1"/>
        <pt x="310" y="1582" on="1"/>
      </contour>
    </TTGlyph>
    <TTGlyph name="Zacute" xMin="89" yMin="0" xMax="1289" yMax="1582">
      <component glyphName="Z" x="0" y="0" flags="0x4"/>
    </TTGlyph>
    <TTGlyph name="Zcaron" xMin="89" yMin="0" xMax="1289" yMax="2354">
      <component glyphName="Z" x="0" y="0" flags="0x204"/>
      <component glyphName="caron" x="471" y="1668" flags="0x4"/>
    </TTGlyph>
    <TTGlyph name="Zdotaccent" xMin="89" yMin="0" xMax="1289" yMax="1582">
      <component glyphName="Z" x="0" y="0" flags="0x4"/>
    </TTGlyph>
    <TTGlyph name="a" xMin="152" yMin="-20" xMax="1139" yMax="1161">
      <contour>
        <pt x="1139" y="1049" on="1"/>
        <pt x="987" y="0" on="1"/>
        <pt x="834" y="0" on="1"/>
        <pt x="829" y="190" on="1"/>
        <pt x="803" y="142" on="0"/>
        <pt x="734" y="64" on="0"/>
        <pt x="650" y="9" on="0"/>
        <pt x="553" y="-20" on="0"/>
        <pt x="501" y="-20" on="1"/>
        <pt x="406" y="-20" on="0"/>
        <pt x="274" y="45" on="0"/>
        <pt x="190" y="159" on="0"/>
        <pt x="152" y="312" on="0"/>
        <pt x="152" y="401" on="1"/>
        <pt x="152" y="481" on="0"/>
        <pt x="193" y="657" on="0"/>
        <pt x="270" y="826" on="0"/>
        <pt x="379" y="978" on="0"/>
        <pt x="514" y="1093" on="0"/>
        <pt x="673" y="1161" on="0"/>
        <pt x="761" y="1161" on="1"/>
        <pt x="807" y="1161" on="0"/>
        <pt x="904" y="1143" on="0"/>
        <pt x="994" y="1116" on="0"/>
        <pt x="1069" y="1085" on="0"/>
        <pt x="1093" y="1072" on="1"/>
      </contour>
      <contour>
        <pt x="351" y="414" on="1"/>
        <pt x="351" y="267" on="0"/>
        <pt x="452" y="136" on="0"/>
        <pt x="556" y="136" on="1"/>
        <pt x="602" y="136" on="0"/>
        <pt x="686" y="169" on="0"/>
        <pt x="757" y="219" on="0"/>
        <pt x="812" y="277" on="0"/>
        <pt x="828" y="301" on="1"/>
        <pt x="929" y="973" on="1"/>
        <pt x="926" y="975" on="0"/>
        <pt x="896" y="985" on="0"/>
        <pt x="851" y="996" on="0"/>
        <pt x="796" y="1005" on="0"/>
        <pt x="769" y="1005" on="1"/>
        <pt x="718" y="1005" on="0"/>
        <pt x="617" y="961" on="0"/>
        <pt x="524" y="882" on="0"/>
        <pt x="444" y="772" on="0"/>
        <pt x="385" y="641" on="0"/>
        <pt x="351" y="492" on="0"/>
      </contour>
    </TTGlyph>
    <TTGlyph name="aacute" xMin="152" yMin="-20" xMax="1139" yMax="1928">
      <component glyphName="a" x="0" y="0" flags="0x204"/>
      <component glyphName="acute" x="416" y="1161" flags="0x4"/>
    </TTGlyph>
    <TTGlyph name="abreve" xMin="152" yMin="-20" xMax="1139" yMax="1161">
      <component glyphName="a" x="0" y="0" flags="0x4"/>
    </TTGlyph>
    <TTGlyph name="acaron" xMin="152" yMin="-20" xMax="1139" yMax="1847">
      <component glyphName="a" x="0" y="0" flags="0x204"/>
      <component glyphName="caron" x="324" y="1161" flags="0x4"/>
    </TTGlyph>
    <TTGlyph name="acircumflex" xMin="152" yMin="-20" xMax="1139" yMax="1847">
      <component glyphName="a" x="0" y="0" flags="0x204"/>
      <component glyphName="circumflex" x="330" y="1161" flags="0x4"/>
    </TTGlyph>
    <TTGlyph name="acute" xMin="211" yMin="128" xMax="675" yMax="767">
      <contour>
        <pt x="360" y="128" on="1"/>
        <pt x="211" y="128" on="1"/>
        <pt x="399" y="767" on="1"/>
        <pt x="675" y="767" on="1"/>
      </contour>
    </TTGlyph>
    <TTGlyph name="acutecomb" xMin="566" yMin="1211" xMax="1012" yMax="1848">
      <contour>
        <pt x="566" y="1237" on="1"/>
        <pt x="811" y="1848" on="1"/>
        <pt x="1012" y="1757" on="1"/>
        <pt x="615" y="1211" on="1"/>
      </contour>
    </TTGlyph>
    <TTGlyph name="adieresis" xMin="152" yMin="-20" xMax="1139" yMax="1573">
      <component glyphName="a" x="0" y="0" flags="0x204"/>
      <component glyphName="dieresis" x="214" y="1161" flags="0x4"/>
    </TTGlyph>
    <TTGlyph name="ae" xMin="152" yMin="-20" xMax="1764" yMax="1162">
      <contour>
        <pt x="1623" y="95" on="1"/>
        <pt x="1536" y="38" on="0"/>
        <pt x="1340" y="-20" on="0"/>
        <pt x="1252" y="-20" on="1"/>
        <pt x="1117" y="-20" on="0"/>
        <pt x="945" y="80" on="0"/>
        <pt x="896" y="174" on="1"/>
        <pt x="862" y="133" on="0"/>
        <pt x="764" y="63" on="0"/>
        <pt x="655" y="10" on="0"/>
        <pt x="546" y="-20" on="0"/>
        <pt x="501" y="-20" on="1"/>
        <pt x="408" y="-20" on="0"/>
        <pt x="276" y="43" on="0"/>
        <pt x="191" y="156" on="0"/>
        <pt x="152" y="310" on="0"/>
        <pt x="152" y="401" on="1"/>
        <pt x="152" y="484" on="0"/>
        <pt x="193" y="661" on="0"/>
        <pt x="270" y="830" on="0"/>
        <pt x="380" y="981" on="0"/>
        <pt x="519" y="1095" on="0"/>
        <pt x="683" y="1161" on="0"/>
        <pt x="776" y="1161" on="1"/>
        <pt x="856" y="1161" on="0"/>
        <pt x="980" y="1133" on="0"/>
        <pt x="1069" y="1097" on="0"/>
        <pt x="1120" y="1065" on="0"/>
        <pt x="1128" y="1061" on="1"/>
        <pt x="1191" y="1109" on="0"/>
        <pt x="1338" y="1162" on="0"/>
        <pt x="1425" y="1162" on="1"/>
        <pt x="1592" y="1162" on="0"/>
        <pt x="1764" y="967" on="0"/>
        <pt x="1764" y="777" on="1"/>
        <pt x="1764" y="758" on="0"/>
        <pt x="1756" y="714" on="0"/>
        <pt x="1714" y="669" on="0"/>
        <pt x="1627" y="624" on="0"/>
        <pt x="1468" y="584" on="0"/>
        <pt x="1226" y="550" on="0"/>
        <pt x="1051" y="538" on="1"/>
        <pt x="1046" y="503" on="0"/>
        <pt x="1040" y="439" on="0"/>
        <pt x="1040" y="411" on="1"/>
        <pt x="1040" y="271" on="0"/>
        <pt x="1176" y="133" on="0"/>
        <pt x="1296" y="133" on="1"/>
        <pt x="1374" y="133" on="0"/>
        <pt x="1517" y="196" on="0"/>
        <pt x="1589" y="250" on="1"/>
      </contour>
      <contour>
        <pt x="351" y="407" on="1"/>
        <pt x="352" y="264" on="0"/>
        <pt x="453" y="136" on="0"/>
        <pt x="556" y="136" on="1"/>
        <pt x="595" y="136" on="0"/>
        <pt x="682" y="165" on="0"/>
        <pt x="763" y="210" on="0"/>
        <pt x="832" y="263" on="0"/>
        <pt x="855" y="288" on="1"/>
        <pt x="849" y="317" on="0"/>
        <pt x="844" y="379" on="0"/>
        <pt x="844" y="414" on="1"/>
        <pt x="844" y="483" on="0"/>
        <pt x="868" y="626" on="0"/>
        <pt x="913" y="764" on="0"/>
        <pt x="979" y="893" on="0"/>
        <pt x="1021" y="948" on="1"/>
        <pt x="1018" y="949" on="0"/>
        <pt x="983" y="967" on="0"/>
        <pt x="921" y="988" on="0"/>
        <pt x="832" y="1005" on="0"/>
        <pt x="775" y="1005" on="1"/>
        <pt x="695" y="1005" on="0"/>
        <pt x="542" y="908" on="0"/>
        <pt x="423" y="744" on="0"/>
        <pt x="351" y="527" on="0"/>
      </contour>
      <contour>
        <pt x="1070" y="665" on="1"/>
        <pt x="1199" y="678" on="0"/>
        <pt x="1376" y="702" on="0"/>
        <pt x="1491" y="725" on="0"/>
        <pt x="1554" y="746" on="0"/>
        <pt x="1583" y="765" on="0"/>
        <pt x="1588" y="782" on="0"/>
        <pt x="1588" y="789" on="1"/>
        <pt x="1588" y="898" on="0"/>
        <pt x="1493" y="1008" on="0"/>
        <pt x="1408" y="1009" on="1"/>
        <pt x="1344" y="1009" on="0"/>
        <pt x="1234" y="961" on="0"/>
        <pt x="1147" y="872" on="0"/>
        <pt x="1086" y="744" on="0"/>
      </contour>
    </TTGlyph>
    <TTGlyph name="aeacute" xMin="152" yMin="-20" xMax="1764" yMax="1162">
      <component glyphName="ae" x="0" y="0" flags="0x4"/>
    </TTGlyph>
    <TTGlyph name="afii10017" xMin="26" yMin="0" xMax="1289" yMax="1586">
      <component glyphName="A" x="0" y="0" flags="0x204"/>
    </TTGlyph>
    <TTGlyph name="afii10018" xMin="128" yMin="0" xMax="1281" yMax="1586">
      <contour>
        <pt x="1267" y="549" on="1"/>
        <pt x="1268" y="514" on="0"/>
        <pt x="1261" y="450" on="0"/>
        <pt x="1254" y="421" on="1"/>
        <pt x="1228" y="297" on="0"/>
        <pt x="1098" y="135" on="0"/>
        <pt x="904" y="39" on="0"/>
        <pt x="652" y="0" on="0"/>
        <pt x="504" y="0" on="1"/>
        <pt x="128" y="0" on="1"/>
        <pt x="308" y="1283" on="1"/>
        <pt x="268" y="1283" on="1"/>
        <pt x="310" y="1586" on="1"/>
        <pt x="1281" y="1586" on="1"/>
        <pt x="1259" y="1433" on="1"/>
        <pt x="554" y="1433" on="1"/>
        <pt x="489" y="964" on="1"/>
        <pt x="610" y="964" on="1"/>
        <pt x="770" y="964" on="0"/>
        <pt x="1014" y="918" on="0"/>
        <pt x="1181" y="823" on="0"/>
        <pt x="1267" y="678" on="0"/>
        <pt x="1269" y="578" on="1"/>
        <pt x="1269" y="571" on="0"/>
        <pt x="1269" y="557" on="0"/>
      </contour>
      <contour>
        <pt x="540" y="800" on="1"/>
        <pt x="466" y="800" on="1"/>
        <pt x="375" y="161" on="1"/>
        <pt x="550" y="161" on="1"/>
        <pt x="670" y="161" on="0"/>
        <pt x="845" y="199" on="0"/>
        <pt x="963" y="277" on="0"/>
        <pt x="1029" y="397" on="0"/>
        <pt x="1039" y="480" on="1"/>
        <pt x="1041" y="498" on="0"/>
        <pt x="1044" y="533" on="0"/>
        <pt x="1043" y="553" on="1"/>
        <pt x="1042" y="610" on="0"/>
        <pt x="1003" y="691" on="0"/>
        <pt x="936" y="746" on="0"/>
        <pt x="849" y="778" on="0"/>
        <pt x="752" y="795" on="0"/>
        <pt x="649" y="800" on="0"/>
        <pt x="601" y="800" on="1"/>
      </contour>
    </TTGlyph>
    <TTGlyph name="afii10019" xMin="126" yMin="0" xMax="1293" yMax="1586">
      <component glyphName="B" x="0" y="0" flags="0x4"/>
    </TTGlyph>
    <TTGlyph name="afii10020" xMin="128" yMin="0" xMax="1303" yMax="1586">
      <contour>
        <pt x="1303" y="1586" on="1"/>
        <pt x="1281" y="1423" on="1"/>
        <pt x="553" y="1423" on="1"/>
        <pt x="353" y="0" on="1"/>
        <pt x="128" y="0" on="1"/>
        <pt x="351" y="1586" on="1"/>
      </contour>
    </TTGlyph>
    <TTGlyph name="afii10021" xMin="94" yMin="-365" xMax="1712" yMax="1586">
      <contour>
        <pt x="1514" y="165" on="1"/>
        <pt x="1581" y="117" on="1"/>
        <pt x="1512" y="-365" on="1"/>
        <pt x="1292" y="-365" on="1"/>
        <pt x="1341" y="-17" on="1"/>
        <pt x="367" y="-17" on="1"/>
        <pt x="317" y="-365" on="1"/>
        <pt x="94" y="-365" on="1"/>
        <pt x="164" y="138" on="1"/>
        <pt x="232" y="138" on="0"/>
        <pt x="277" y="183" on="1"/>
        <pt x="322" y="238" on="0"/>
        <pt x="393" y="355" on="0"/>
        <pt x="449" y="484" on="0"/>
        <pt x="493" y="627" on="0"/>
        <pt x="511" y="707" on="1"/>
        <pt x="535" y="813" on="0"/>
        <pt x="572" y="1047" on="0"/>
        <pt x="590" y="1182" on="1"/>
        <pt x="645" y="1586" on="1"/>
        <pt x="1712" y="1586" on="1"/>
      </contour>
      <contour>
        <pt x="1284" y="138" on="1"/>
        <pt x="1466" y="1437" on="1"/>
        <pt x="850" y="1437" on="1"/>
        <pt x="806" y="1112" on="1"/>
        <pt x="788" y="978" on="0"/>
        <pt x="745" y="717" on="0"/>
        <pt x="677" y="469" on="0"/>
        <pt x="577" y="239" on="0"/>
        <pt x="502" y="138" on="1"/>
      </contour>
    </TTGlyph>
    <TTGlyph name="afii10022" xMin="126" yMin="0" xMax="1263" yMax="1586">
      <component glyphName="E" x="0" y="0" flags="0x4"/>
    </TTGlyph>
    <TTGlyph name="afii10023" xMin="126" yMin="0" xMax="1263" yMax="1963">
      <component glyphName="E" x="0" y="0" flags="0x4"/>
      <component glyphName="dieresis" x="333" y="1551" flags="0x4"/>
    </TTGlyph>
    <TTGlyph name="afii10024" xMin="22" yMin="0" xMax="2139" yMax="1586">
      <contour>
        <pt x="982" y="734" on="1"/>
        <pt x="832" y="734" on="1"/>
        <pt x="258" y="0" on="1"/>
        <pt x="22" y="0" on="1"/>
        <pt x="553" y="656" on="1"/>
        <pt x="603" y="715" on="0"/>
        <pt x="691" y="790" on="0"/>
        <pt x="742" y="801" on="1"/>
        <pt x="716" y="809" on="0"/>
        <pt x="675" y="833" on="0"/>
        <pt x="639" y="868" on="0"/>
        <pt x="606" y="917" on="0"/>
        <pt x="588" y="950" on="1"/>
        <pt x="306" y="1586" on="1"/>
        <pt x="532" y="1586" on="1"/>
        <pt x="845" y="869" on="1"/>
        <pt x="1002" y="869" on="1"/>
        <pt x="1103" y="1586" on="1"/>
        <pt x="1328" y="1586" on="1"/>
        <pt x="1227" y="869" on="1"/>
        <pt x="1385" y="869" on="1"/>
        <pt x="1899" y="1586" on="1"/>
        <pt x="2139" y="1576" on="1"/>
        <pt x="1660" y="952" on="1"/>
        <pt x="1634" y="919" on="0"/>
        <pt x="1589" y="869" on="0"/>
        <pt x="1544" y="833" on="0"/>
        <pt x="1496" y="809" on="0"/>
        <pt x="1468" y="801" on="1"/>
        <pt x="1514" y="790" on="0"/>
        <pt x="1586" y="725" on="0"/>
        <pt x="1621" y="665" on="1"/>
        <pt x="1963" y="0" on="1"/>
        <pt x="1727" y="0" on="1"/>
        <pt x="1358" y="734" on="1"/>
        <pt x="1207" y="734" on="1"/>
        <pt x="1105" y="0" on="1"/>
        <pt x="880" y="0" on="1"/>
      </contour>
    </TTGlyph>
    <TTGlyph name="afii10025" xMin="274" yMin="-37" xMax="1330" yMax="1616">
      <contour>
        <pt x="946" y="807" on="1"/>
        <pt x="1019" y="798" on="0"/>
        <pt x="1073" y="763" on="1"/>
        <pt x="1142" y="728" on="0"/>
        <pt x="1229" y="585" on="0"/>
        <pt x="1231" y="488" on="1"/>
        <pt x="1232" y="367" on="0"/>
        <pt x="1149" y="171" on="0"/>
        <pt x="1080" y="105" on="1"/>
        <pt x="1005" y="33" on="0"/>
        <pt x="800" y="-37" on="0"/>
        <pt x="676" y="-37" on="1"/>
        <pt x="592" y="-37" on="0"/>
        <pt x="434" y="-8" on="0"/>
        <pt x="359" y="22" on="1"/>
        <pt x="336" y="32" on="0"/>
        <pt x="291" y="52" on="0"/>
        <pt x="274" y="62" on="1"/>
        <pt x="356" y="237" on="1"/>
        <pt x="383" y="222" on="0"/>
        <pt x="462" y="189" on="0"/>
        <pt x="553" y="162" on="0"/>
        <pt x="648" y="144" on="0"/>
        <pt x="690" y="144" on="1"/>
        <pt x="768" y="144" on="0"/>
        <pt x="891" y="199" on="0"/>
        <pt x="976" y="291" on="0"/>
        <pt x="1020" y="413" on="0"/>
        <pt x="1020" y="479" on="1"/>
        <pt x="1019" y="687" on="0"/>
        <pt x="767" y="715" on="1"/>
        <pt x="719" y="721" on="0"/>
        <pt x="665" y="721" on="1"/>
        <pt x="574" y="721" on="1"/>
        <pt x="601" y="890" on="1"/>
        <pt x="687" y="890" on="1"/>
        <pt x="711" y="890" on="0"/>
        <pt x="757" y="892" on="0"/>
        <pt x="779" y="895" on="1"/>
        <pt x="949" y="914" on="0"/>
        <pt x="1125" y="1097" on="0"/>
        <pt x="1124" y="1251" on="1"/>
        <pt x="1123" y="1337" on="0"/>
        <pt x="1026" y="1431" on="0"/>
        <pt x="915" y="1434" on="1"/>
        <pt x="896" y="1435" on="0"/>
        <pt x="856" y="1434" on="0"/>
        <pt x="833" y="1432" on="1"/>
        <pt x="788" y="1429" on="0"/>
        <pt x="705" y="1412" on="0"/>
        <pt x="632" y="1391" on="0"/>
        <pt x="573" y="1368" on="0"/>
        <pt x="553" y="1359" on="1"/>
        <pt x="525" y="1526" on="1"/>
        <pt x="544" y="1536" on="0"/>
        <pt x="613" y="1563" on="0"/>
        <pt x="702" y="1589" on="0"/>
        <pt x="805" y="1609" on="0"/>
        <pt x="857" y="1612" on="1"/>
        <pt x="899" y="1616" on="0"/>
        <pt x="938" y="1615" on="1"/>
        <pt x="1022" y="1614" on="0"/>
        <pt x="1164" y="1575" on="0"/>
        <pt x="1268" y="1493" on="0"/>
        <pt x="1328" y="1367" on="0"/>
        <pt x="1329" y="1279" on="1"/>
        <pt x="1330" y="1207" on="0"/>
        <pt x="1297" y="1076" on="0"/>
        <pt x="1234" y="965" on="0"/>
        <pt x="1144" y="878" on="0"/>
        <pt x="1088" y="850" on="1"/>
        <pt x="1022" y="816" on="0"/>
      </contour>
    </TTGlyph>
    <TTGlyph name="afii10026" xMin="128" yMin="0" xMax="1582" yMax="1586">
      <contour>
        <pt x="128" y="0" on="1"/>
        <pt x="351" y="1586" on="1"/>
        <pt x="566" y="1586" on="1"/>
        <pt x="399" y="400" on="1"/>
        <pt x="1280" y="1586" on="1"/>
        <pt x="1582" y="1586" on="1"/>
        <pt x="1360" y="0" on="1"/>
        <pt x="1144" y="0" on="1"/>
        <pt x="1335" y="1363" on="1"/>
        <pt x="355" y="88" on="1"/>
        <pt x="343" y="0" on="1"/>
      </contour>
    </TTGlyph>
    <TTGlyph name="afii10027" xMin="128" yMin="0" xMax="1582" yMax="1587">
      <contour>
        <pt x="1242" y="1587" on="1"/>
        <pt x="1234" y="1551" on="1"/>
        <pt x="1210" y="1443" on="0"/>
        <pt x="1063" y="1325" on="0"/>
        <pt x="936" y="1325" on="1"/>
        <pt x="817" y="1325" on="0"/>
        <pt x="706" y="1428" on="0"/>
        <pt x="704" y="1522" on="1"/>
        <pt x="704" y="1537" on="0"/>
        <pt x="706" y="1570" on="0"/>
        <pt x="709" y="1587" on="1"/>
        <pt x="842" y="1587" on="1"/>
        <pt x="839" y="1556" on="1"/>
        <pt x="838" y="1501" on="0"/>
        <pt x="898" y="1443" on="0"/>
        <pt x="955" y="1443" on="1"/>
        <pt x="1021" y="1443" on="0"/>
        <pt x="1098" y="1517" on="0"/>
        <pt x="1109" y="1587" on="1"/>
      </contour>
      <contour>
        <pt x="128" y="0" on="1"/>
        <pt x="351" y="1586" on="1"/>
        <pt x="566" y="1586" on="1"/>
        <pt x="399" y="400" on="1"/>
        <pt x="1280" y="1586" on="1"/>
        <pt x="1582" y="1586" on="1"/>
        <pt x="1360" y="0" on="1"/>
        <pt x="1144" y="0" on="1"/>
        <pt x="1335" y="1363" on="1"/>
        <pt x="355" y="88" on="1"/>
        <pt x="343" y="0" on="1"/>
      </contour>
    </TTGlyph>
    <TTGlyph name="afii10028" xMin="128" yMin="0" xMax="1438" yMax="1586">
      <contour>
        <pt x="353" y="0" on="1"/>
        <pt x="128" y="0" on="1"/>
        <pt x="351" y="1586" on="1"/>
        <pt x="576" y="1586" on="1"/>
        <pt x="476" y="869" on="1"/>
        <pt x="654" y="869" on="1"/>
        <pt x="1187" y="1586" on="1"/>
        <pt x="1438" y="1586" on="1"/>
        <pt x="952" y="952" on="1"/>
        <pt x="924" y="916" on="0"/>
        <pt x="875" y="866" on="0"/>
        <pt x="829" y="831" on="0"/>
        <pt x="781" y="809" on="0"/>
        <pt x="753" y="801" on="1"/>
        <pt x="798" y="790" on="0"/>
        <pt x="870" y="724" on="0"/>
        <pt x="904" y="664" on="1"/>
        <pt x="1276" y="0" on="1"/>
        <pt x="1032" y="0" on="1"/>
        <pt x="635" y="734" on="1"/>
        <pt x="455" y="734" on="1"/>
      </contour>
    </TTGlyph>
    <TTGlyph name="afii10029" xMin="36" yMin="-16" xMax="1785" yMax="1586">
      <contour>
        <pt x="1561" y="0" on="1"/>
        <pt x="1336" y="0" on="1"/>
        <pt x="1536" y="1423" on="1"/>
        <pt x="870" y="1423" on="1"/>
        <pt x="763" y="841" on="1"/>
        <pt x="737" y="703" on="0"/>
        <pt x="689" y="469" on="0"/>
        <pt x="622" y="279" on="0"/>
        <pt x="528" y="133" on="0"/>
        <pt x="383" y="34" on="0"/>
        <pt x="179" y="-16" on="0"/>
        <pt x="36" y="-16" on="1"/>
        <pt x="66" y="174" on="1"/>
        <pt x="124" y="177" on="0"/>
        <pt x="224" y="192" on="0"/>
        <pt x="306" y="222" on="0"/>
        <pt x="372" y="270" on="0"/>
        <pt x="397" y="306" on="1"/>
        <pt x="419" y="337" on="0"/>
        <pt x="453" y="428" on="0"/>
        <pt x="480" y="538" on="0"/>
        <pt x="503" y="662" on="0"/>
        <pt x="515" y="728" on="1"/>
        <pt x="671" y="1586" on="1"/>
        <pt x="1785" y="1586" on="1"/>
      </contour>
    </TTGlyph>
    <TTGlyph name="afii10030" xMin="128" yMin="0" xMax="1847" yMax="1586">
      <component glyphName="M" x="0" y="0" flags="0x204"/>
    </TTGlyph>
    <TTGlyph name="afii10031" xMin="125" yMin="0" xMax="1505" yMax="1586">
      <component glyphName="H" x="0" y="0" flags="0x204"/>
    </TTGlyph>
    <TTGlyph name="afii10032" xMin="197" yMin="-40" xMax="1476" yMax="1614">
      <component glyphName="O" x="0" y="0" flags="0x204"/>
    </TTGlyph>
    <TTGlyph name="afii10033" xMin="128" yMin="0" xMax="1537" yMax="1586">
      <contour>
        <pt x="1314" y="0" on="1"/>
        <pt x="1089" y="0" on="1"/>
        <pt x="1288" y="1423" on="1"/>
        <pt x="552" y="1423" on="1"/>
        <pt x="353" y="0" on="1"/>
        <pt x="128" y="0" on="1"/>
        <pt x="351" y="1586" on="1"/>
        <pt x="1537" y="1586" on="1"/>
      </contour>
    </TTGlyph>
    <TTGlyph name="afii10034" xMin="126" yMin="0" xMax="1331" yMax="1586">
      <component glyphName="P" x="0" y="0" flags="0x4"/>
    </TTGlyph>
    <TTGlyph name="afii10035" xMin="200" yMin="-40" xMax="1360" yMax="1615">
      <component glyphName="C" x="3" y="0" flags="0x4"/>
    </TTGlyph>
    <TTGlyph name="afii10036" xMin="176" yMin="0" xMax="1250" yMax="1586">
      <component glyphName="T" x="0" y="0" flags="0x204"/>
    </TTGlyph>
    <TTGlyph name="afii10037" xMin="273" yMin="-92" xMax="1325" yMax="1586">
      <contour>
        <pt x="673" y="689" on="1"/>
        <pt x="1102" y="1586" on="1"/>
        <pt x="1325" y="1586" on="1"/>
        <pt x="731" y="456" on="1"/>
        <pt x="697" y="236" on="1"/>
        <pt x="674" y="89" on="0"/>
        <pt x="514" y="-72" on="0"/>
        <pt x="369" y="-92" on="1"/>
        <pt x="273" y="5" on="1"/>
        <pt x="323" y="16" on="0"/>
        <pt x="404" y="44" on="0"/>
        <pt x="464" y="94" on="0"/>
        <pt x="504" y="175" on="0"/>
        <pt x="514" y="240" on="1"/>
        <pt x="547" y="455" on="1"/>
        <pt x="291" y="1586" on="1"/>
        <pt x="501" y="1586" on="1"/>
      </contour>
    </TTGlyph>
    <TTGlyph name="afii10038" xMin="197" yMin="-19" xMax="1565" yMax="1604">
      <contour>
        <pt x="915" y="308" on="1"/>
        <pt x="1027" y="320" on="0"/>
        <pt x="1188" y="417" on="0"/>
        <pt x="1242" y="498" on="1"/>
        <pt x="1293" y="576" on="0"/>
        <pt x="1342" y="781" on="0"/>
        <pt x="1345" y="896" on="1"/>
        <pt x="1346" y="1016" on="0"/>
        <pt x="1309" y="1094" on="1"/>
        <pt x="1279" y="1179" on="0"/>
        <pt x="1149" y="1258" on="0"/>
        <pt x="1052" y="1267" on="1"/>
      </contour>
      <contour>
        <pt x="829" y="1267" on="1"/>
        <pt x="776" y="1261" on="0"/>
        <pt x="734" y="1243" on="1"/>
        <pt x="671" y="1224" on="0"/>
        <pt x="569" y="1156" on="0"/>
        <pt x="531" y="1102" on="1"/>
        <pt x="501" y="1059" on="0"/>
        <pt x="455" y="951" on="0"/>
        <pt x="425" y="831" on="0"/>
        <pt x="410" y="706" on="0"/>
        <pt x="411" y="646" on="1"/>
        <pt x="412" y="566" on="0"/>
        <pt x="453" y="448" on="0"/>
        <pt x="527" y="365" on="0"/>
        <pt x="631" y="317" on="0"/>
        <pt x="694" y="308" on="1"/>
      </contour>
      <contour>
        <pt x="871" y="-19" on="1"/>
        <pt x="650" y="-19" on="1"/>
        <pt x="671" y="137" on="1"/>
        <pt x="552" y="145" on="0"/>
        <pt x="375" y="230" on="0"/>
        <pt x="258" y="365" on="0"/>
        <pt x="199" y="539" on="0"/>
        <pt x="198" y="636" on="1"/>
        <pt x="197" y="671" on="0"/>
        <pt x="201" y="741" on="0"/>
        <pt x="206" y="776" on="1"/>
        <pt x="224" y="916" on="0"/>
        <pt x="333" y="1160" on="0"/>
        <pt x="502" y="1340" on="0"/>
        <pt x="723" y="1443" on="0"/>
        <pt x="854" y="1443" on="1"/>
        <pt x="878" y="1604" on="1"/>
        <pt x="1100" y="1604" on="1"/>
        <pt x="1077" y="1443" on="1"/>
        <pt x="1308" y="1427" on="0"/>
        <pt x="1560" y="1168" on="0"/>
        <pt x="1564" y="921" on="1"/>
        <pt x="1565" y="823" on="0"/>
        <pt x="1528" y="633" on="0"/>
        <pt x="1453" y="461" on="0"/>
        <pt x="1340" y="314" on="0"/>
        <pt x="1190" y="205" on="0"/>
        <pt x="1003" y="140" on="0"/>
        <pt x="892" y="136" on="1"/>
      </contour>
    </TTGlyph>
    <TTGlyph name="afii10039" xMin="22" yMin="0" xMax="1431" yMax="1586">
      <component glyphName="X" x="0" y="0" flags="0x204"/>
    </TTGlyph>
    <TTGlyph name="afii10040" xMin="128" yMin="-406" xMax="1533" yMax="1586">
      <contour>
        <pt x="1428" y="40" on="1"/>
        <pt x="1365" y="-406" on="1"/>
        <pt x="1155" y="-406" on="1"/>
        <pt x="1213" y="0" on="1"/>
        <pt x="128" y="0" on="1"/>
        <pt x="351" y="1586" on="1"/>
        <pt x="576" y="1586" on="1"/>
        <pt x="375" y="164" on="1"/>
        <pt x="1107" y="164" on="1"/>
        <pt x="1307" y="1586" on="1"/>
        <pt x="1533" y="1586" on="1"/>
        <pt x="1315" y="40" on="1"/>
      </contour>
    </TTGlyph>
    <TTGlyph name="afii10041" xMin="249" yMin="0" xMax="1326" yMax="1586">
      <contour>
        <pt x="961" y="576" on="1"/>
        <pt x="928" y="530" on="0"/>
        <pt x="852" y="466" on="0"/>
        <pt x="807" y="445" on="1"/>
        <pt x="753" y="415" on="0"/>
        <pt x="643" y="389" on="0"/>
        <pt x="582" y="389" on="1"/>
        <pt x="427" y="389" on="0"/>
        <pt x="252" y="553" on="0"/>
        <pt x="250" y="723" on="1"/>
        <pt x="249" y="735" on="0"/>
        <pt x="254" y="783" on="0"/>
        <pt x="258" y="818" on="1"/>
        <pt x="265" y="873" on="0"/>
        <pt x="285" y="1021" on="0"/>
        <pt x="307" y="1182" on="0"/>
        <pt x="328" y="1343" on="0"/>
        <pt x="347" y="1477" on="0"/>
        <pt x="360" y="1572" on="0"/>
        <pt x="362" y="1586" on="1"/>
        <pt x="583" y="1586" on="1"/>
        <pt x="581" y="1571" on="0"/>
        <pt x="568" y="1477" on="0"/>
        <pt x="549" y="1344" on="0"/>
        <pt x="528" y="1184" on="0"/>
        <pt x="506" y="1025" on="0"/>
        <pt x="486" y="879" on="0"/>
        <pt x="479" y="825" on="1"/>
        <pt x="475" y="799" on="0"/>
        <pt x="472" y="766" on="0"/>
        <pt x="471" y="761" on="1"/>
        <pt x="469" y="651" on="0"/>
        <pt x="557" y="554" on="0"/>
        <pt x="640" y="554" on="1"/>
        <pt x="695" y="554" on="0"/>
        <pt x="797" y="581" on="0"/>
        <pt x="884" y="623" on="0"/>
        <pt x="954" y="672" on="0"/>
        <pt x="978" y="695" on="1"/>
        <pt x="1105" y="1586" on="1"/>
        <pt x="1326" y="1586" on="1"/>
        <pt x="1102" y="0" on="1"/>
        <pt x="882" y="0" on="1"/>
      </contour>
    </TTGlyph>
    <TTGlyph name="afii10042" xMin="128" yMin="0" xMax="2280" yMax="1586">
      <contour>
        <pt x="1227" y="165" on="1"/>
        <pt x="1855" y="165" on="1"/>
        <pt x="2055" y="1586" on="1"/>
        <pt x="2280" y="1586" on="1"/>
        <pt x="2057" y="0" on="1"/>
        <pt x="128" y="0" on="1"/>
        <pt x="351" y="1586" on="1"/>
        <pt x="576" y="1586" on="1"/>
        <pt x="375" y="164" on="1"/>
        <pt x="1002" y="164" on="1"/>
        <pt x="1202" y="1586" on="1"/>
        <pt x="1427" y="1586" on="1"/>
      </contour>
    </TTGlyph>
    <TTGlyph name="afii10043" xMin="128" yMin="-400" xMax="2279" yMax="1586">
      <contour>
        <pt x="1227" y="165" on="1"/>
        <pt x="1854" y="165" on="1"/>
        <pt x="2054" y="1586" on="1"/>
        <pt x="2279" y="1586" on="1"/>
        <pt x="2056" y="-9" on="1"/>
        <pt x="2134" y="-9" on="1"/>
        <pt x="2078" y="-400" on="1"/>
        <pt x="1868" y="-400" on="1"/>
        <pt x="1925" y="0" on="1"/>
        <pt x="128" y="0" on="1"/>
        <pt x="351" y="1586" on="1"/>
        <pt x="576" y="1586" on="1"/>
        <pt x="375" y="165" on="1"/>
        <pt x="1002" y="165" on="1"/>
        <pt x="1203" y="1586" on="1"/>
        <pt x="1428" y="1586" on="1"/>
      </contour>
    </TTGlyph>
    <TTGlyph name="afii10044" xMin="100" yMin="-1" xMax="1350" yMax="1586">
      <contour>
        <pt x="124" y="1586" on="1"/>
        <pt x="656" y="1586" on="1"/>
        <pt x="568" y="965" on="1"/>
        <pt x="705" y="965" on="1"/>
        <pt x="875" y="965" on="0"/>
        <pt x="1117" y="919" on="0"/>
        <pt x="1273" y="823" on="0"/>
        <pt x="1347" y="677" on="0"/>
        <pt x="1349" y="577" on="1"/>
        <pt x="1350" y="412" on="0"/>
        <pt x="1246" y="184" on="0"/>
        <pt x="1152" y="120" on="1"/>
        <pt x="1052" y="51" on="0"/>
        <pt x="773" y="-1" on="0"/>
        <pt x="598" y="-1" on="1"/>
        <pt x="207" y="-1" on="1"/>
        <pt x="406" y="1420" on="1"/>
        <pt x="100" y="1420" on="1"/>
      </contour>
      <contour>
        <pt x="620" y="800" on="1"/>
        <pt x="545" y="800" on="1"/>
        <pt x="454" y="161" on="1"/>
        <pt x="578" y="161" on="1"/>
        <pt x="734" y="161" on="0"/>
        <pt x="938" y="194" on="0"/>
        <pt x="1063" y="270" on="0"/>
        <pt x="1120" y="393" on="0"/>
        <pt x="1128" y="483" on="1"/>
        <pt x="1132" y="522" on="0"/>
        <pt x="1131" y="564" on="1"/>
        <pt x="1131" y="617" on="0"/>
        <pt x="1091" y="694" on="0"/>
        <pt x="1024" y="746" on="0"/>
        <pt x="934" y="778" on="0"/>
        <pt x="834" y="795" on="0"/>
        <pt x="729" y="800" on="0"/>
        <pt x="680" y="800" on="1"/>
      </contour>
    </TTGlyph>
    <TTGlyph name="afii10045" xMin="130" yMin="-1" xMax="1912" yMax="1613">
      <contour>
        <pt x="1685" y="0" on="1"/>
        <pt x="1460" y="0" on="1"/>
        <pt x="1683" y="1586" on="1"/>
        <pt x="1912" y="1613" on="1"/>
      </contour>
      <contour>
        <pt x="544" y="801" on="1"/>
        <pt x="469" y="801" on="1"/>
        <pt x="379" y="163" on="1"/>
        <pt x="503" y="163" on="1"/>
        <pt x="674" y="163" on="0"/>
        <pt x="890" y="205" on="0"/>
        <pt x="1012" y="301" on="0"/>
        <pt x="1056" y="454" on="0"/>
        <pt x="1056" y="565" on="1"/>
        <pt x="1056" y="618" on="0"/>
        <pt x="1016" y="695" on="0"/>
        <pt x="949" y="747" on="0"/>
        <pt x="859" y="779" on="0"/>
        <pt x="758" y="796" on="0"/>
        <pt x="654" y="801" on="0"/>
        <pt x="605" y="801" on="1"/>
      </contour>
      <contour>
        <pt x="1270" y="553" on="1"/>
        <pt x="1270" y="466" on="0"/>
        <pt x="1255" y="402" on="1"/>
        <pt x="1229" y="282" on="0"/>
        <pt x="1107" y="126" on="0"/>
        <pt x="921" y="35" on="0"/>
        <pt x="673" y="-1" on="0"/>
        <pt x="522" y="-1" on="1"/>
        <pt x="130" y="-1" on="1"/>
        <pt x="354" y="1585" on="1"/>
        <pt x="579" y="1585" on="1"/>
        <pt x="491" y="964" on="1"/>
        <pt x="627" y="964" on="1"/>
        <pt x="794" y="964" on="0"/>
        <pt x="1036" y="918" on="0"/>
        <pt x="1193" y="824" on="0"/>
        <pt x="1269" y="680" on="0"/>
        <pt x="1271" y="581" on="1"/>
        <pt x="1272" y="574" on="0"/>
        <pt x="1271" y="561" on="0"/>
      </contour>
    </TTGlyph>
    <TTGlyph name="afii10046" xMin="199" yMin="-1" xMax="1341" yMax="1585">
      <contour>
        <pt x="613" y="801" on="1"/>
        <pt x="538" y="801" on="1"/>
        <pt x="448" y="163" on="1"/>
        <pt x="572" y="163" on="1"/>
        <pt x="743" y="163" on="0"/>
        <pt x="959" y="205" on="0"/>
        <pt x="1081" y="301" on="0"/>
        <pt x="1125" y="454" on="0"/>
        <pt x="1125" y="565" on="1"/>
        <pt x="1124" y="618" on="0"/>
        <pt x="1084" y="695" on="0"/>
        <pt x="1017" y="747" on="0"/>
        <pt x="928" y="779" on="0"/>
        <pt x="828" y="796" on="0"/>
        <pt x="724" y="801" on="0"/>
        <pt x="674" y="801" on="1"/>
      </contour>
      <contour>
        <pt x="1339" y="553" on="1"/>
        <pt x="1339" y="466" on="0"/>
        <pt x="1324" y="402" on="1"/>
        <pt x="1298" y="282" on="0"/>
        <pt x="1176" y="126" on="0"/>
        <pt x="990" y="35" on="0"/>
        <pt x="742" y="-1" on="0"/>
        <pt x="591" y="-1" on="1"/>
        <pt x="199" y="-1" on="1"/>
        <pt x="423" y="1585" on="1"/>
        <pt x="648" y="1585" on="1"/>
        <pt x="560" y="964" on="1"/>
        <pt x="696" y="964" on="1"/>
        <pt x="863" y="964" on="0"/>
        <pt x="1105" y="918" on="0"/>
        <pt x="1262" y="824" on="0"/>
        <pt x="1338" y="680" on="0"/>
        <pt x="1340" y="581" on="1"/>
        <pt x="1341" y="574" on="0"/>
        <pt x="1340" y="561" on="0"/>
      </contour>
    </TTGlyph>
    <TTGlyph name="afii10047" xMin="123" yMin="-39" xMax="1325" yMax="1616">
      <contour>
        <pt x="1319" y="983" on="1"/>
        <pt x="1319" y="928" on="0"/>
        <pt x="1311" y="822" on="0"/>
        <pt x="1303" y="770" on="1"/>
        <pt x="1275" y="597" on="0"/>
        <pt x="1150" y="302" on="0"/>
        <pt x="956" y="84" on="0"/>
        <pt x="696" y="-39" on="0"/>
        <pt x="534" y="-39" on="1"/>
        <pt x="468" y="-39" on="0"/>
        <pt x="348" y="-20" on="0"/>
        <pt x="244" y="13" on="0"/>
        <pt x="157" y="57" on="0"/>
        <pt x="123" y="81" on="1"/>
        <pt x="214" y="249" on="1"/>
        <pt x="303" y="192" on="0"/>
        <pt x="473" y="141" on="0"/>
        <pt x="569" y="141" on="1"/>
        <pt x="639" y="141" on="0"/>
        <pt x="758" y="187" on="0"/>
        <pt x="857" y="267" on="0"/>
        <pt x="937" y="376" on="0"/>
        <pt x="999" y="503" on="0"/>
        <pt x="1045" y="641" on="0"/>
        <pt x="1060" y="710" on="1"/>
        <pt x="517" y="710" on="1"/>
        <pt x="541" y="866" on="1"/>
        <pt x="1084" y="866" on="1"/>
        <pt x="1090" y="912" on="0"/>
        <pt x="1095" y="994" on="0"/>
        <pt x="1095" y="1032" on="1"/>
        <pt x="1094" y="1138" on="0"/>
        <pt x="1051" y="1290" on="0"/>
        <pt x="962" y="1389" on="0"/>
        <pt x="825" y="1436" on="0"/>
        <pt x="730" y="1436" on="1"/>
        <pt x="681" y="1436" on="0"/>
        <pt x="582" y="1418" on="0"/>
        <pt x="519" y="1396" on="1"/>
        <pt x="400" y="1355" on="1"/>
        <pt x="372" y="1527" on="1"/>
        <pt x="396" y="1537" on="0"/>
        <pt x="440" y="1552" on="0"/>
        <pt x="460" y="1558" on="1"/>
        <pt x="529" y="1584" on="0"/>
        <pt x="686" y="1616" on="0"/>
        <pt x="785" y="1616" on="1"/>
        <pt x="1318" y="1616" on="0"/>
        <pt x="1323" y="1042" on="1"/>
        <pt x="1325" y="1011" on="0"/>
      </contour>
    </TTGlyph>
    <TTGlyph name="afii10048" xMin="128" yMin="-39" xMax="1957" yMax="1614">
      <contour>
        <pt x="1215" y="141" on="1"/>
        <pt x="1307" y="141" on="0"/>
        <pt x="1455" y="215" on="0"/>
        <pt x="1570" y="343" on="0"/>
        <pt x="1652" y="515" on="0"/>
        <pt x="1704" y="712" on="0"/>
        <pt x="1728" y="924" on="0"/>
        <pt x="1727" y="1027" on="1"/>
        <pt x="1726" y="1114" on="0"/>
        <pt x="1692" y="1263" on="0"/>
        <pt x="1614" y="1373" on="0"/>
        <pt x="1486" y="1436" on="0"/>
        <pt x="1392" y="1436" on="1"/>
        <pt x="1297" y="1436" on="0"/>
        <pt x="1147" y="1358" on="0"/>
        <pt x="1033" y="1226" on="0"/>
        <pt x="953" y="1049" on="0"/>
        <pt x="904" y="852" on="0"/>
        <pt x="882" y="644" on="0"/>
        <pt x="883" y="547" on="1"/>
        <pt x="885" y="344" on="0"/>
        <pt x="1047" y="141" on="0"/>
      </contour>
      <contour>
        <pt x="685" y="873" on="1"/>
        <pt x="710" y="1036" on="0"/>
        <pt x="828" y="1308" on="0"/>
        <pt x="1010" y="1505" on="0"/>
        <pt x="1257" y="1614" on="0"/>
        <pt x="1411" y="1614" on="1"/>
        <pt x="1568" y="1614" on="0"/>
        <pt x="1778" y="1521" on="0"/>
        <pt x="1904" y="1356" on="0"/>
        <pt x="1957" y="1129" on="0"/>
        <pt x="1957" y="996" on="1"/>
        <pt x="1956" y="849" on="0"/>
        <pt x="1908" y="582" on="0"/>
        <pt x="1818" y="352" on="0"/>
        <pt x="1686" y="165" on="0"/>
        <pt x="1516" y="33" on="0"/>
        <pt x="1309" y="-39" on="0"/>
        <pt x="1188" y="-39" on="1"/>
        <pt x="1059" y="-39" on="0"/>
        <pt x="859" y="38" on="0"/>
        <pt x="722" y="186" on="0"/>
        <pt x="651" y="400" on="0"/>
        <pt x="650" y="538" on="1"/>
        <pt x="649" y="583" on="0"/>
        <pt x="655" y="679" on="0"/>
        <pt x="663" y="733" on="1"/>
        <pt x="457" y="733" on="1"/>
        <pt x="353" y="-1" on="1"/>
        <pt x="128" y="-1" on="1"/>
        <pt x="351" y="1585" on="1"/>
        <pt x="576" y="1585" on="1"/>
        <pt x="495" y="1013" on="1"/>
        <pt x="522" y="874" on="1"/>
      </contour>
    </TTGlyph>
    <TTGlyph name="afii10049" xMin="112" yMin="-1" xMax="1412" yMax="1585">
      <contour>
        <pt x="639" y="797" on="1"/>
        <pt x="609" y="797" on="0"/>
        <pt x="555" y="807" on="0"/>
        <pt x="532" y="815" on="1"/>
        <pt x="418" y="841" on="0"/>
        <pt x="284" y="986" on="0"/>
        <pt x="282" y="1103" on="1"/>
        <pt x="281" y="1181" on="0"/>
        <pt x="315" y="1307" on="0"/>
        <pt x="379" y="1407" on="0"/>
        <pt x="472" y="1481" on="0"/>
        <pt x="531" y="1507" on="1"/>
        <pt x="634" y="1553" on="0"/>
        <pt x="897" y="1585" on="0"/>
        <pt x="1045" y="1585" on="1"/>
        <pt x="1412" y="1585" on="1"/>
        <pt x="1189" y="-1" on="1"/>
        <pt x="964" y="-1" on="1"/>
        <pt x="1065" y="722" on="1"/>
        <pt x="909" y="722" on="1"/>
        <pt x="789" y="722" on="0"/>
        <pt x="608" y="694" on="0"/>
        <pt x="481" y="624" on="0"/>
        <pt x="406" y="504" on="0"/>
        <pt x="393" y="412" on="1"/>
        <pt x="336" y="-1" on="1"/>
        <pt x="112" y="-1" on="1"/>
        <pt x="167" y="394" on="1"/>
        <pt x="182" y="493" on="0"/>
        <pt x="263" y="636" on="0"/>
        <pt x="386" y="732" on="0"/>
        <pt x="546" y="786" on="0"/>
      </contour>
      <contour>
        <pt x="1024" y="873" on="1"/>
        <pt x="1086" y="873" on="1"/>
        <pt x="1163" y="1422" on="1"/>
        <pt x="1013" y="1422" on="1"/>
        <pt x="890" y="1422" on="0"/>
        <pt x="703" y="1399" on="0"/>
        <pt x="574" y="1341" on="0"/>
        <pt x="500" y="1239" on="0"/>
        <pt x="490" y="1161" on="1"/>
        <pt x="488" y="1145" on="0"/>
        <pt x="486" y="1113" on="0"/>
        <pt x="486" y="1096" on="1"/>
        <pt x="487" y="1045" on="0"/>
        <pt x="525" y="972" on="0"/>
        <pt x="589" y="923" on="0"/>
        <pt x="674" y="894" on="0"/>
        <pt x="770" y="879" on="0"/>
        <pt x="872" y="874" on="0"/>
        <pt x="921" y="874" on="1"/>
      </contour>
    </TTGlyph>
    <TTGlyph name="afii10051" xMin="193" yMin="-240" xMax="1493" yMax="1587">
      <contour>
        <pt x="792" y="-78" on="1"/>
        <pt x="822" y="-77" on="0"/>
        <pt x="877" y="-74" on="0"/>
        <pt x="901" y="-69" on="1"/>
        <pt x="905" y="-69" on="0"/>
        <pt x="912" y="-70" on="0"/>
        <pt x="917" y="-70" on="1"/>
        <pt x="1011" y="-56" on="0"/>
        <pt x="1134" y="46" on="0"/>
        <pt x="1167" y="148" on="1"/>
        <pt x="1176" y="178" on="0"/>
        <pt x="1190" y="233" on="0"/>
        <pt x="1202" y="300" on="0"/>
        <pt x="1215" y="385" on="0"/>
        <pt x="1231" y="504" on="0"/>
        <pt x="1251" y="665" on="0"/>
        <pt x="1265" y="774" on="1"/>
        <pt x="1268" y="797" on="0"/>
        <pt x="1271" y="831" on="0"/>
        <pt x="1272" y="837" on="1"/>
        <pt x="1272" y="894" on="0"/>
        <pt x="1257" y="933" on="1"/>
        <pt x="1225" y="1032" on="0"/>
        <pt x="1106" y="1032" on="1"/>
        <pt x="1053" y="1032" on="0"/>
        <pt x="952" y="1006" on="0"/>
        <pt x="863" y="964" on="0"/>
        <pt x="790" y="914" on="0"/>
        <pt x="764" y="890" on="1"/>
        <pt x="635" y="0" on="1"/>
        <pt x="410" y="0" on="1"/>
        <pt x="614" y="1417" on="1"/>
        <pt x="193" y="1417" on="1"/>
        <pt x="219" y="1587" on="1"/>
        <pt x="1288" y="1587" on="1"/>
        <pt x="1264" y="1417" on="1"/>
        <pt x="840" y="1417" on="1"/>
        <pt x="781" y="1008" on="1"/>
        <pt x="832" y="1061" on="0"/>
        <pt x="925" y="1133" on="0"/>
        <pt x="1018" y="1178" on="0"/>
        <pt x="1113" y="1197" on="0"/>
        <pt x="1167" y="1197" on="1"/>
        <pt x="1326" y="1197" on="0"/>
        <pt x="1490" y="1034" on="0"/>
        <pt x="1492" y="868" on="1"/>
        <pt x="1493" y="854" on="0"/>
        <pt x="1489" y="805" on="0"/>
        <pt x="1484" y="773" on="1"/>
        <pt x="1479" y="731" on="0"/>
        <pt x="1466" y="628" on="0"/>
        <pt x="1452" y="520" on="0"/>
        <pt x="1437" y="414" on="0"/>
        <pt x="1425" y="326" on="0"/>
        <pt x="1416" y="265" on="0"/>
        <pt x="1414" y="255" on="1"/>
        <pt x="1383" y="35" on="0"/>
        <pt x="1136" y="-211" on="0"/>
        <pt x="928" y="-236" on="1"/>
        <pt x="886" y="-240" on="0"/>
        <pt x="805" y="-240" on="0"/>
        <pt x="765" y="-235" on="1"/>
      </contour>
    </TTGlyph>
    <TTGlyph name="afii10052" xMin="128" yMin="0" xMax="1303" yMax="2340">
      <contour>
        <pt x="598" y="1717" on="1"/>
        <pt x="812" y="2340" on="1"/>
        <pt x="1066" y="2306" on="1"/>
        <pt x="733" y="1700" on="1"/>
      </contour>
      <contour>
        <pt x="1303" y="1586" on="1"/>
        <pt x="1281" y="1423" on="1"/>
        <pt x="553" y="1423" on="1"/>
        <pt x="353" y="0" on="1"/>
        <pt x="128" y="0" on="1"/>
        <pt x="351" y="1586" on="1"/>
      </contour>
    </TTGlyph>
    <TTGlyph name="afii10053" xMin="197" yMin="-39" xMax="1386" yMax="1616">
      <contour>
        <pt x="201" y="593" on="1"/>
        <pt x="206" y="731" on="0"/>
        <pt x="258" y="991" on="0"/>
        <pt x="351" y="1218" on="0"/>
        <pt x="485" y="1406" on="0"/>
        <pt x="660" y="1541" on="0"/>
        <pt x="874" y="1616" on="0"/>
        <pt x="1001" y="1616" on="1"/>
        <pt x="1073" y="1616" on="0"/>
        <pt x="1212" y="1590" on="0"/>
        <pt x="1275" y="1569" on="1"/>
        <pt x="1302" y="1561" on="0"/>
        <pt x="1357" y="1541" on="0"/>
        <pt x="1386" y="1527" on="1"/>
        <pt x="1303" y="1355" on="1"/>
        <pt x="1220" y="1399" on="0"/>
        <pt x="1072" y="1432" on="0"/>
        <pt x="1008" y="1434" on="1"/>
        <pt x="983" y="1436" on="0"/>
        <pt x="934" y="1433" on="0"/>
        <pt x="910" y="1430" on="1"/>
        <pt x="828" y="1419" on="0"/>
        <pt x="688" y="1341" on="0"/>
        <pt x="575" y="1201" on="0"/>
        <pt x="490" y="998" on="0"/>
        <pt x="463" y="862" on="1"/>
        <pt x="1092" y="862" on="1"/>
        <pt x="1069" y="722" on="1"/>
        <pt x="440" y="722" on="1"/>
        <pt x="435" y="674" on="0"/>
        <pt x="428" y="591" on="0"/>
        <pt x="429" y="552" on="1"/>
        <pt x="430" y="461" on="0"/>
        <pt x="466" y="310" on="0"/>
        <pt x="543" y="201" on="0"/>
        <pt x="663" y="141" on="0"/>
        <pt x="749" y="141" on="1"/>
        <pt x="846" y="141" on="0"/>
        <pt x="1039" y="198" on="0"/>
        <pt x="1139" y="249" on="1"/>
        <pt x="1176" y="81" on="1"/>
        <pt x="1135" y="60" on="0"/>
        <pt x="1036" y="17" on="0"/>
        <pt x="923" y="-17" on="0"/>
        <pt x="796" y="-39" on="0"/>
        <pt x="726" y="-39" on="1"/>
        <pt x="595" y="-39" on="0"/>
        <pt x="398" y="39" on="0"/>
        <pt x="266" y="186" on="0"/>
        <pt x="198" y="399" on="0"/>
        <pt x="197" y="534" on="1"/>
        <pt x="197" y="548" on="0"/>
        <pt x="199" y="576" on="0"/>
      </contour>
    </TTGlyph>
    <TTGlyph name="afii10054" xMin="157" yMin="-40" xMax="1256" yMax="1615">
      <component glyphName="S" x="0" y="0" flags="0x4"/>
    </TTGlyph>
    <TTGlyph name="afii10055" xMin="145" yMin="0" xMax="957" yMax="1586">
      <component glyphName="I" x="21" y="0" flags="0x4"/>
    </TTGlyph>
    <TTGlyph name="afii10056" xMin="124" yMin="0" xMax="1047" yMax="1724">
      <component glyphName="I" x="0" y="0" flags="0x204"/>
      <component glyphName="dieresis" x="158" y="1312" flags="0x4"/>
    </TTGlyph>
    <TTGlyph name="afii10057" xMin="61" yMin="-90" xMax="792" yMax="1586">
      <component glyphName="J" x="0" y="0" flags="0x204"/>
    </TTGlyph>
    <TTGlyph name="afii10058" xMin="36" yMin="-16" xMax="2475" yMax="1586">
      <contour>
        <pt x="1583" y="0" on="1"/>
        <pt x="1337" y="0" on="1"/>
        <pt x="1542" y="1423" on="1"/>
        <pt x="875" y="1423" on="1"/>
        <pt x="756" y="790" on="1"/>
        <pt x="730" y="652" on="0"/>
        <pt x="678" y="425" on="0"/>
        <pt x="607" y="246" on="0"/>
        <pt x="510" y="114" on="0"/>
        <pt x="367" y="27" on="0"/>
        <pt x="170" y="-16" on="0"/>
        <pt x="36" y="-16" on="1"/>
        <pt x="66" y="174" on="1"/>
        <pt x="166" y="178" on="0"/>
        <pt x="305" y="218" on="0"/>
        <pt x="398" y="296" on="0"/>
        <pt x="455" y="414" on="0"/>
        <pt x="473" y="495" on="1"/>
        <pt x="490" y="576" on="0"/>
        <pt x="522" y="746" on="0"/>
        <pt x="540" y="842" on="1"/>
        <pt x="677" y="1586" on="1"/>
        <pt x="1792" y="1586" on="1"/>
        <pt x="1702" y="964" on="1"/>
        <pt x="1831" y="964" on="1"/>
        <pt x="1999" y="964" on="0"/>
        <pt x="2241" y="917" on="0"/>
        <pt x="2397" y="823" on="0"/>
        <pt x="2473" y="679" on="0"/>
        <pt x="2474" y="582" on="1"/>
        <pt x="2475" y="426" on="0"/>
        <pt x="2375" y="203" on="0"/>
        <pt x="2284" y="134" on="1"/>
        <pt x="2186" y="60" on="0"/>
        <pt x="1903" y="-1" on="0"/>
        <pt x="1721" y="-1" on="1"/>
      </contour>
      <contour>
        <pt x="2256" y="547" on="1"/>
        <pt x="2257" y="589" on="0"/>
        <pt x="2245" y="626" on="1"/>
        <pt x="2227" y="682" on="0"/>
        <pt x="2135" y="751" on="0"/>
        <pt x="2012" y="788" on="0"/>
        <pt x="1872" y="801" on="0"/>
        <pt x="1806" y="801" on="1"/>
        <pt x="1677" y="801" on="1"/>
        <pt x="1585" y="162" on="1"/>
        <pt x="1753" y="162" on="1"/>
        <pt x="1900" y="162" on="0"/>
        <pt x="2092" y="210" on="0"/>
        <pt x="2205" y="307" on="0"/>
        <pt x="2253" y="451" on="0"/>
      </contour>
    </TTGlyph>
    <TTGlyph name="afii10059" xMin="128" yMin="0" xMax="2215" yMax="1586">
      <contour>
        <pt x="1326" y="0" on="1"/>
        <pt x="1080" y="0" on="1"/>
        <pt x="1185" y="753" on="1"/>
        <pt x="458" y="753" on="1"/>
        <pt x="353" y="0" on="1"/>
        <pt x="128" y="0" on="1"/>
        <pt x="351" y="1586" on="1"/>
        <pt x="576" y="1586" on="1"/>
        <pt x="478" y="895" on="1"/>
        <pt x="1205" y="895" on="1"/>
        <pt x="1302" y="1586" on="1"/>
        <pt x="1528" y="1586" on="1"/>
        <pt x="1441" y="965" on="1"/>
        <pt x="1569" y="965" on="1"/>
        <pt x="1852" y="965" on="0"/>
        <pt x="2162" y="830" on="0"/>
        <pt x="2197" y="685" on="1"/>
        <pt x="2215" y="619" on="0"/>
        <pt x="2211" y="547" on="1"/>
        <pt x="2204" y="391" on="0"/>
        <pt x="2096" y="182" on="0"/>
        <pt x="1904" y="54" on="0"/>
        <pt x="1633" y="0" on="0"/>
        <pt x="1463" y="0" on="1"/>
      </contour>
      <contour>
        <pt x="1996" y="555" on="1"/>
        <pt x="1998" y="603" on="0"/>
        <pt x="1983" y="635" on="1"/>
        <pt x="1964" y="690" on="0"/>
        <pt x="1871" y="756" on="0"/>
        <pt x="1748" y="790" on="0"/>
        <pt x="1609" y="801" on="0"/>
        <pt x="1545" y="801" on="1"/>
        <pt x="1416" y="801" on="1"/>
        <pt x="1327" y="162" on="1"/>
        <pt x="1495" y="162" on="1"/>
        <pt x="1652" y="162" on="0"/>
        <pt x="1846" y="211" on="0"/>
        <pt x="1954" y="309" on="0"/>
        <pt x="1993" y="457" on="0"/>
      </contour>
    </TTGlyph>
    <TTGlyph name="afii10060" xMin="199" yMin="0" xMax="1460" yMax="1586">
      <contour>
        <pt x="635" y="0" on="1"/>
        <pt x="410" y="0" on="1"/>
        <pt x="614" y="1415" on="1"/>
        <pt x="199" y="1415" on="1"/>
        <pt x="224" y="1586" on="1"/>
        <pt x="1294" y="1586" on="1"/>
        <pt x="1269" y="1415" on="1"/>
        <pt x="839" y="1415" on="1"/>
        <pt x="775" y="963" on="1"/>
        <pt x="1133" y="963" on="1"/>
        <pt x="1208" y="963" on="0"/>
        <pt x="1328" y="924" on="0"/>
        <pt x="1413" y="843" on="0"/>
        <pt x="1459" y="721" on="0"/>
        <pt x="1459" y="639" on="1"/>
        <pt x="1460" y="621" on="0"/>
        <pt x="1457" y="577" on="0"/>
        <pt x="1452" y="539" on="1"/>
        <pt x="1447" y="502" on="0"/>
        <pt x="1433" y="405" on="0"/>
        <pt x="1415" y="275" on="0"/>
        <pt x="1391" y="108" on="0"/>
        <pt x="1376" y="0" on="1"/>
        <pt x="1155" y="0" on="1"/>
        <pt x="1171" y="108" on="0"/>
        <pt x="1196" y="277" on="0"/>
        <pt x="1215" y="408" on="0"/>
        <pt x="1228" y="506" on="0"/>
        <pt x="1233" y="544" on="1"/>
        <pt x="1238" y="576" on="0"/>
        <pt x="1239" y="608" on="0"/>
        <pt x="1239" y="620" on="1"/>
        <pt x="1239" y="669" on="0"/>
        <pt x="1212" y="737" on="0"/>
        <pt x="1166" y="780" on="0"/>
        <pt x="1104" y="799" on="0"/>
        <pt x="1070" y="799" on="1"/>
        <pt x="752" y="799" on="1"/>
      </contour>
    </TTGlyph>
    <TTGlyph name="afii10061" xMin="128" yMin="0" xMax="1438" yMax="2079">
      <component glyphName="acute" x="460" y="1312" flags="0x4"/>
      <component glyphName="afii10028" x="0" y="0" flags="0x4"/>
    </TTGlyph>
    <TTGlyph name="afii10062" xMin="208" yMin="-141" xMax="1325" yMax="1953">
      <contour>
        <pt x="1117" y="1953" on="1"/>
        <pt x="1115" y="1943" on="0"/>
        <pt x="1112" y="1926" on="0"/>
        <pt x="1109" y="1917" on="1"/>
        <pt x="1084" y="1808" on="0"/>
        <pt x="939" y="1692" on="0"/>
        <pt x="810" y="1692" on="1"/>
        <pt x="690" y="1692" on="0"/>
        <pt x="581" y="1795" on="0"/>
        <pt x="580" y="1889" on="1"/>
        <pt x="579" y="1904" on="0"/>
        <pt x="582" y="1936" on="0"/>
        <pt x="584" y="1953" on="1"/>
        <pt x="718" y="1953" on="1"/>
        <pt x="716" y="1945" on="0"/>
        <pt x="715" y="1930" on="0"/>
        <pt x="714" y="1923" on="1"/>
        <pt x="713" y="1866" on="0"/>
        <pt x="772" y="1809" on="0"/>
        <pt x="829" y="1809" on="1"/>
        <pt x="895" y="1809" on="0"/>
        <pt x="974" y="1883" on="0"/>
        <pt x="985" y="1953" on="1"/>
      </contour>
      <contour>
        <pt x="673" y="689" on="1"/>
        <pt x="1102" y="1586" on="1"/>
        <pt x="1325" y="1586" on="1"/>
        <pt x="731" y="456" on="1"/>
        <pt x="697" y="236" on="1"/>
        <pt x="685" y="162" on="0"/>
        <pt x="628" y="26" on="0"/>
        <pt x="522" y="-78" on="0"/>
        <pt x="360" y="-141" on="0"/>
        <pt x="243" y="-141" on="1"/>
        <pt x="208" y="13" on="1"/>
        <pt x="280" y="14" on="0"/>
        <pt x="386" y="37" on="0"/>
        <pt x="460" y="89" on="0"/>
        <pt x="504" y="175" on="0"/>
        <pt x="514" y="240" on="1"/>
        <pt x="547" y="455" on="1"/>
        <pt x="291" y="1586" on="1"/>
        <pt x="501" y="1586" on="1"/>
      </contour>
    </TTGlyph>
    <TTGlyph name="afii10065" xMin="151" yMin="-20" xMax="1134" yMax="1161">
      <contour>
        <pt x="1134" y="1049" on="1"/>
        <pt x="988" y="0" on="1"/>
        <pt x="836" y="0" on="1"/>
        <pt x="830" y="190" on="1"/>
        <pt x="804" y="142" on="0"/>
        <pt x="735" y="64" on="0"/>
        <pt x="652" y="9" on="0"/>
        <pt x="555" y="-20" on="0"/>
        <pt x="503" y="-20" on="1"/>
        <pt x="409" y="-20" on="0"/>
        <pt x="276" y="45" on="0"/>
        <pt x="191" y="159" on="0"/>
        <pt x="152" y="312" on="0"/>
        <pt x="152" y="401" on="1"/>
        <pt x="151" y="481" on="0"/>
        <pt x="191" y="657" on="0"/>
        <pt x="267" y="826" on="0"/>
        <pt x="375" y="978" on="0"/>
        <pt x="510" y="1093" on="0"/>
        <pt x="668" y="1161" on="0"/>
        <pt x="756" y="1161" on="1"/>
        <pt x="802" y="1161" on="0"/>
        <pt x="899" y="1143" on="0"/>
        <pt x="989" y="1116" on="0"/>
        <pt x="1065" y="1085" on="0"/>
        <pt x="1089" y="1072" on="1"/>
      </contour>
      <contour>
        <pt x="350" y="414" on="1"/>
        <pt x="351" y="267" on="0"/>
        <pt x="452" y="136" on="0"/>
        <pt x="556" y="136" on="1"/>
        <pt x="602" y="136" on="0"/>
        <pt x="686" y="169" on="0"/>
        <pt x="757" y="219" on="0"/>
        <pt x="812" y="277" on="0"/>
        <pt x="829" y="302" on="1"/>
        <pt x="925" y="973" on="1"/>
        <pt x="922" y="975" on="0"/>
        <pt x="892" y="985" on="0"/>
        <pt x="847" y="996" on="0"/>
        <pt x="792" y="1005" on="0"/>
        <pt x="765" y="1005" on="1"/>
        <pt x="714" y="1005" on="0"/>
        <pt x="613" y="961" on="0"/>
        <pt x="521" y="882" on="0"/>
        <pt x="441" y="772" on="0"/>
        <pt x="383" y="641" on="0"/>
        <pt x="350" y="492" on="0"/>
      </contour>
    </TTGlyph>
    <TTGlyph name="afii10066" xMin="169" yMin="-21" xMax="1180" yMax="1599">
      <contour>
        <pt x="555" y="-21" on="1"/>
        <pt x="459" y="-21" on="0"/>
        <pt x="315" y="40" on="0"/>
        <pt x="219" y="156" on="0"/>
        <pt x="171" y="324" on="0"/>
        <pt x="170" y="431" on="1"/>
        <pt x="169" y="548" on="0"/>
        <pt x="198" y="800" on="0"/>
        <pt x="261" y="1042" on="0"/>
        <pt x="359" y="1258" on="0"/>
        <pt x="496" y="1422" on="0"/>
        <pt x="673" y="1518" on="0"/>
        <pt x="783" y="1518" on="1"/>
        <pt x="809" y="1518" on="0"/>
        <pt x="863" y="1516" on="0"/>
        <pt x="891" y="1516" on="1"/>
        <pt x="922" y="1516" on="0"/>
        <pt x="965" y="1521" on="0"/>
        <pt x="992" y="1538" on="0"/>
        <pt x="1006" y="1570" on="0"/>
        <pt x="1008" y="1598" on="1"/>
        <pt x="1180" y="1599" on="1"/>
        <pt x="1177" y="1525" on="0"/>
        <pt x="1134" y="1436" on="0"/>
        <pt x="1044" y="1389" on="0"/>
        <pt x="901" y="1374" on="0"/>
        <pt x="798" y="1374" on="1"/>
        <pt x="727" y="1374" on="0"/>
        <pt x="609" y="1308" on="0"/>
        <pt x="516" y="1196" on="0"/>
        <pt x="448" y="1046" on="0"/>
        <pt x="427" y="961" on="1"/>
        <pt x="514" y="1046" on="0"/>
        <pt x="689" y="1121" on="0"/>
        <pt x="786" y="1121" on="1"/>
        <pt x="869" y="1121" on="0"/>
        <pt x="1000" y="1070" on="0"/>
        <pt x="1091" y="974" on="0"/>
        <pt x="1141" y="834" on="0"/>
        <pt x="1142" y="744" on="1"/>
        <pt x="1143" y="652" on="0"/>
        <pt x="1112" y="467" on="0"/>
        <pt x="1048" y="297" on="0"/>
        <pt x="950" y="150" on="0"/>
        <pt x="819" y="41" on="0"/>
        <pt x="654" y="-21" on="0"/>
      </contour>
      <contour>
        <pt x="669" y="937" on="1"/>
        <pt x="581" y="913" on="0"/>
        <pt x="466" y="799" on="0"/>
        <pt x="399" y="651" on="0"/>
        <pt x="372" y="488" on="0"/>
        <pt x="372" y="416" on="1"/>
        <pt x="372" y="272" on="0"/>
        <pt x="472" y="130" on="0"/>
        <pt x="584" y="130" on="1"/>
        <pt x="651" y="130" on="0"/>
        <pt x="755" y="189" on="0"/>
        <pt x="833" y="286" on="0"/>
        <pt x="887" y="412" on="0"/>
        <pt x="920" y="546" on="0"/>
        <pt x="935" y="679" on="0"/>
        <pt x="935" y="734" on="1"/>
        <pt x="934" y="825" on="0"/>
        <pt x="876" y="936" on="0"/>
        <pt x="807" y="953" on="1"/>
        <pt x="748" y="965" on="0"/>
      </contour>
    </TTGlyph>
    <TTGlyph name="afii10067" xMin="135" yMin="-16" xMax="1093" yMax="1158">
      <contour>
        <pt x="709" y="1158" on="1"/>
        <pt x="787" y="1158" on="0"/>
        <pt x="926" y="1121" on="0"/>
        <pt x="1031" y="1052" on="0"/>
        <pt x="1093" y="953" on="0"/>
        <pt x="1093" y="891" on="1"/>
        <pt x="1093" y="825" on="0"/>
        <pt x="1045" y="723" on="0"/>
        <pt x="959" y="650" on="0"/>
        <pt x="837" y="607" on="0"/>
        <pt x="764" y="599" on="1"/>
        <pt x="806" y="596" on="0"/>
        <pt x="901" y="564" on="0"/>
        <pt x="982" y="505" on="0"/>
        <pt x="1035" y="419" on="0"/>
        <pt x="1035" y="363" on="1"/>
        <pt x="1035" y="272" on="0"/>
        <pt x="959" y="131" on="0"/>
        <pt x="830" y="34" on="0"/>
        <pt x="661" y="-16" on="0"/>
        <pt x="569" y="-16" on="1"/>
        <pt x="470" y="-16" on="0"/>
        <pt x="309" y="40" on="0"/>
        <pt x="196" y="150" on="0"/>
        <pt x="135" y="315" on="0"/>
        <pt x="135" y="423" on="1"/>
        <pt x="135" y="576" on="0"/>
        <pt x="213" y="844" on="0"/>
        <pt x="361" y="1043" on="0"/>
        <pt x="574" y="1158" on="0"/>
      </contour>
      <contour>
        <pt x="373" y="670" on="1"/>
        <pt x="479" y="670" on="0"/>
        <pt x="673" y="678" on="0"/>
        <pt x="820" y="716" on="0"/>
        <pt x="908" y="795" on="0"/>
        <pt x="908" y="865" on="1"/>
        <pt x="908" y="931" on="0"/>
        <pt x="808" y="1004" on="0"/>
        <pt x="708" y="1004" on="1"/>
        <pt x="658" y="1004" on="0"/>
        <pt x="558" y="971" on="0"/>
        <pt x="468" y="893" on="0"/>
        <pt x="395" y="765" on="0"/>
      </contour>
      <contour>
        <pt x="353" y="535" on="1"/>
        <pt x="348" y="500" on="0"/>
        <pt x="343" y="427" on="0"/>
        <pt x="344" y="395" on="1"/>
        <pt x="348" y="273" on="0"/>
        <pt x="461" y="136" on="0"/>
        <pt x="577" y="136" on="1"/>
        <pt x="637" y="136" on="0"/>
        <pt x="737" y="166" on="0"/>
        <pt x="808" y="225" on="0"/>
        <pt x="847" y="310" on="0"/>
        <pt x="847" y="364" on="1"/>
        <pt x="847" y="418" on="0"/>
        <pt x="789" y="485" on="0"/>
        <pt x="698" y="523" on="0"/>
        <pt x="585" y="537" on="0"/>
        <pt x="475" y="540" on="0"/>
        <pt x="380" y="535" on="0"/>
      </contour>
    </TTGlyph>
    <TTGlyph name="afii10068" xMin="131" yMin="-20" xMax="978" yMax="1161">
      <contour>
        <pt x="978" y="901" on="1"/>
        <pt x="978" y="824" on="0"/>
        <pt x="932" y="709" on="0"/>
        <pt x="848" y="622" on="0"/>
        <pt x="731" y="560" on="0"/>
        <pt x="659" y="535" on="1"/>
        <pt x="497" y="477" on="1"/>
        <pt x="448" y="460" on="0"/>
        <pt x="382" y="425" on="0"/>
        <pt x="341" y="382" on="0"/>
        <pt x="324" y="329" on="0"/>
        <pt x="324" y="294" on="1"/>
        <pt x="324" y="213" on="0"/>
        <pt x="428" y="137" on="0"/>
        <pt x="534" y="137" on="1"/>
        <pt x="569" y="137" on="0"/>
        <pt x="660" y="160" on="0"/>
        <pt x="747" y="193" on="0"/>
        <pt x="819" y="229" on="0"/>
        <pt x="835" y="242" on="1"/>
        <pt x="875" y="99" on="1"/>
        <pt x="850" y="81" on="0"/>
        <pt x="772" y="39" on="0"/>
        <pt x="669" y="4" on="0"/>
        <pt x="543" y="-20" on="0"/>
        <pt x="471" y="-20" on="1"/>
        <pt x="400" y="-20" on="0"/>
        <pt x="276" y="19" on="0"/>
        <pt x="184" y="94" on="0"/>
        <pt x="131" y="206" on="0"/>
        <pt x="131" y="279" on="1"/>
        <pt x="131" y="363" on="0"/>
        <pt x="187" y="486" on="0"/>
        <pt x="284" y="578" on="0"/>
        <pt x="414" y="645" on="0"/>
        <pt x="488" y="673" on="1"/>
        <pt x="643" y="731" on="1"/>
        <pt x="686" y="747" on="0"/>
        <pt x="744" y="777" on="0"/>
        <pt x="778" y="812" on="0"/>
        <pt x="792" y="852" on="0"/>
        <pt x="792" y="879" on="1"/>
        <pt x="792" y="945" on="0"/>
        <pt x="694" y="1003" on="0"/>
        <pt x="607" y="1003" on="1"/>
        <pt x="564" y="1003" on="0"/>
        <pt x="479" y="987" on="0"/>
        <pt x="399" y="959" on="0"/>
        <pt x="328" y="921" on="0"/>
        <pt x="300" y="899" on="1"/>
        <pt x="260" y="1046" on="1"/>
        <pt x="287" y="1065" on="0"/>
        <pt x="373" y="1106" on="0"/>
        <pt x="474" y="1139" on="0"/>
        <pt x="582" y="1161" on="0"/>
        <pt x="631" y="1161" on="1"/>
        <pt x="707" y="1161" on="0"/>
        <pt x="834" y="1128" on="0"/>
        <pt x="926" y="1062" on="0"/>
        <pt x="978" y="965" on="0"/>
      </contour>
    </TTGlyph>
    <TTGlyph name="afii10069" xMin="167" yMin="-20" xMax="1160" yMax="1577">
      <contour>
        <pt x="927" y="711" on="1"/>
        <pt x="927" y="765" on="0"/>
        <pt x="909" y="863" on="0"/>
        <pt x="889" y="905" on="1"/>
        <pt x="878" y="924" on="0"/>
        <pt x="845" y="959" on="0"/>
        <pt x="802" y="987" on="0"/>
        <pt x="746" y="1004" on="0"/>
        <pt x="713" y="1004" on="1"/>
        <pt x="660" y="1004" on="0"/>
        <pt x="568" y="956" on="0"/>
        <pt x="490" y="873" on="0"/>
        <pt x="429" y="760" on="0"/>
        <pt x="387" y="629" on="0"/>
        <pt x="364" y="487" on="0"/>
        <pt x="364" y="416" on="1"/>
        <pt x="364" y="136" on="0"/>
        <pt x="585" y="136" on="1"/>
        <pt x="646" y="136" on="0"/>
        <pt x="744" y="190" on="0"/>
        <pt x="819" y="281" on="0"/>
        <pt x="873" y="399" on="0"/>
        <pt x="908" y="527" on="0"/>
        <pt x="926" y="655" on="0"/>
      </contour>
      <contour>
        <pt x="721" y="1161" on="1"/>
        <pt x="761" y="1161" on="0"/>
        <pt x="849" y="1136" on="0"/>
        <pt x="924" y="1079" on="0"/>
        <pt x="979" y="986" on="0"/>
        <pt x="986" y="918" on="1"/>
        <pt x="986" y="927" on="0"/>
        <pt x="986" y="974" on="0"/>
        <pt x="986" y="1029" on="0"/>
        <pt x="985" y="1080" on="0"/>
        <pt x="984" y="1093" on="1"/>
        <pt x="981" y="1187" on="0"/>
        <pt x="927" y="1316" on="0"/>
        <pt x="826" y="1396" on="0"/>
        <pt x="678" y="1431" on="0"/>
        <pt x="581" y="1431" on="1"/>
        <pt x="554" y="1459" on="1"/>
        <pt x="540" y="1572" on="1"/>
        <pt x="554" y="1572" on="0"/>
        <pt x="632" y="1577" on="0"/>
        <pt x="686" y="1575" on="1"/>
        <pt x="795" y="1571" on="0"/>
        <pt x="966" y="1500" on="0"/>
        <pt x="1086" y="1373" on="0"/>
        <pt x="1153" y="1193" on="0"/>
        <pt x="1158" y="1080" on="1"/>
        <pt x="1160" y="1020" on="0"/>
        <pt x="1159" y="897" on="0"/>
        <pt x="1154" y="831" on="1"/>
        <pt x="1146" y="725" on="0"/>
        <pt x="1107" y="516" on="0"/>
        <pt x="1041" y="327" on="0"/>
        <pt x="946" y="166" on="0"/>
        <pt x="820" y="47" on="0"/>
        <pt x="660" y="-20" on="0"/>
        <pt x="561" y="-20" on="1"/>
        <pt x="462" y="-20" on="0"/>
        <pt x="314" y="50" on="0"/>
        <pt x="216" y="174" on="0"/>
        <pt x="167" y="345" on="0"/>
        <pt x="167" y="446" on="1"/>
        <pt x="167" y="531" on="0"/>
        <pt x="202" y="704" on="0"/>
        <pt x="268" y="863" on="0"/>
        <pt x="364" y="1001" on="0"/>
        <pt x="487" y="1103" on="0"/>
        <pt x="636" y="1161" on="0"/>
      </contour>
    </TTGlyph>
    <TTGlyph name="afii10070" xMin="152" yMin="-20" xMax="1065" yMax="1161">
      <contour>
        <pt x="385" y="649" on="1"/>
        <pt x="547" y="669" on="0"/>
        <pt x="748" y="703" on="0"/>
        <pt x="859" y="739" on="0"/>
        <pt x="897" y="779" on="0"/>
        <pt x="896" y="804" on="1"/>
        <pt x="896" y="903" on="0"/>
        <pt x="807" y="1007" on="0"/>
        <pt x="726" y="1007" on="1"/>
        <pt x="658" y="1007" on="0"/>
        <pt x="546" y="954" on="0"/>
        <pt x="459" y="859" on="0"/>
        <pt x="400" y="727" on="0"/>
      </contour>
      <contour>
        <pt x="369" y="528" on="1"/>
        <pt x="359" y="448" on="0"/>
        <pt x="365" y="384" on="1"/>
        <pt x="370" y="256" on="0"/>
        <pt x="499" y="134" on="0"/>
        <pt x="609" y="134" on="1"/>
        <pt x="684" y="134" on="0"/>
        <pt x="826" y="198" on="0"/>
        <pt x="895" y="252" on="1"/>
        <pt x="936" y="100" on="1"/>
        <pt x="846" y="42" on="0"/>
        <pt x="649" y="-20" on="0"/>
        <pt x="561" y="-20" on="1"/>
        <pt x="462" y="-20" on="0"/>
        <pt x="311" y="41" on="0"/>
        <pt x="208" y="155" on="0"/>
        <pt x="154" y="317" on="0"/>
        <pt x="153" y="418" on="1"/>
        <pt x="152" y="501" on="0"/>
        <pt x="183" y="676" on="0"/>
        <pt x="246" y="841" on="0"/>
        <pt x="341" y="988" on="0"/>
        <pt x="466" y="1097" on="0"/>
        <pt x="621" y="1161" on="0"/>
        <pt x="713" y="1161" on="1"/>
        <pt x="893" y="1161" on="0"/>
        <pt x="1064" y="982" on="0"/>
        <pt x="1065" y="804" on="1"/>
        <pt x="1065" y="770" on="0"/>
        <pt x="1051" y="710" on="0"/>
        <pt x="1002" y="658" on="0"/>
        <pt x="910" y="612" on="0"/>
        <pt x="756" y="573" on="0"/>
        <pt x="528" y="541" on="0"/>
      </contour>
    </TTGlyph>
    <TTGlyph name="afii10071" xMin="152" yMin="-20" xMax="1130" yMax="1298">
      <contour>
        <pt x="666" y="1173" on="1"/>
        <pt x="665" y="1142" on="0"/>
        <pt x="639" y="1085" on="0"/>
        <pt x="599" y="1041" on="0"/>
        <pt x="547" y="1015" on="0"/>
        <pt x="520" y="1015" on="1"/>
        <pt x="496" y="1015" on="0"/>
        <pt x="455" y="1033" on="0"/>
        <pt x="425" y="1065" on="0"/>
        <pt x="408" y="1108" on="0"/>
        <pt x="408" y="1134" on="1"/>
        <pt x="408" y="1165" on="0"/>
        <pt x="433" y="1225" on="0"/>
        <pt x="474" y="1270" on="0"/>
        <pt x="528" y="1298" on="0"/>
        <pt x="557" y="1298" on="1"/>
        <pt x="605" y="1298" on="0"/>
        <pt x="665" y="1230" on="0"/>
        <pt x="666" y="1180" on="1"/>
      </contour>
      <contour>
        <pt x="1130" y="1172" on="1"/>
        <pt x="1129" y="1140" on="0"/>
        <pt x="1103" y="1083" on="0"/>
        <pt x="1063" y="1039" on="0"/>
        <pt x="1011" y="1013" on="0"/>
        <pt x="984" y="1013" on="1"/>
        <pt x="959" y="1013" on="0"/>
        <pt x="918" y="1031" on="0"/>
        <pt x="888" y="1063" on="0"/>
        <pt x="871" y="1106" on="0"/>
        <pt x="871" y="1132" on="1"/>
        <pt x="871" y="1164" on="0"/>
        <pt x="896" y="1223" on="0"/>
        <pt x="937" y="1269" on="0"/>
        <pt x="991" y="1296" on="0"/>
        <pt x="1020" y="1296" on="1"/>
        <pt x="1068" y="1296" on="0"/>
        <pt x="1129" y="1229" on="0"/>
        <pt x="1130" y="1179" on="1"/>
      </contour>
      <contour>
        <pt x="385" y="649" on="1"/>
        <pt x="547" y="669" on="0"/>
        <pt x="748" y="703" on="0"/>
        <pt x="859" y="739" on="0"/>
        <pt x="897" y="779" on="0"/>
        <pt x="896" y="804" on="1"/>
        <pt x="896" y="903" on="0"/>
        <pt x="807" y="1007" on="0"/>
        <pt x="726" y="1007" on="1"/>
        <pt x="658" y="1007" on="0"/>
        <pt x="546" y="954" on="0"/>
        <pt x="459" y="859" on="0"/>
        <pt x="400" y="727" on="0"/>
      </contour>
      <contour>
        <pt x="369" y="528" on="1"/>
        <pt x="359" y="448" on="0"/>
        <pt x="365" y="384" on="1"/>
        <pt x="370" y="256" on="0"/>
        <pt x="499" y="134" on="0"/>
        <pt x="609" y="134" on="1"/>
        <pt x="684" y="134" on="0"/>
        <pt x="826" y="198" on="0"/>
        <pt x="895" y="252" on="1"/>
        <pt x="936" y="100" on="1"/>
        <pt x="846" y="42" on="0"/>
        <pt x="649" y="-20" on="0"/>
        <pt x="561" y="-20" on="1"/>
        <pt x="462" y="-20" on="0"/>
        <pt x="311" y="41" on="0"/>
        <pt x="208" y="155" on="0"/>
        <pt x="154" y="317" on="0"/>
        <pt x="153" y="418" on="1"/>
        <pt x="152" y="501" on="0"/>
        <pt x="183" y="676" on="0"/>
        <pt x="246" y="841" on="0"/>
        <pt x="341" y="988" on="0"/>
        <pt x="466" y="1097" on="0"/>
        <pt x="621" y="1161" on="0"/>
        <pt x="713" y="1161" on="1"/>
        <pt x="893" y="1161" on="0"/>
        <pt x="1064" y="982" on="0"/>
        <pt x="1065" y="804" on="1"/>
        <pt x="1065" y="770" on="0"/>
        <pt x="1051" y="710" on="0"/>
        <pt x="1002" y="658" on="0"/>
        <pt x="910" y="612" on="0"/>
        <pt x="756" y="573" on="0"/>
        <pt x="528" y="541" on="0"/>
      </contour>
    </TTGlyph>
    <TTGlyph name="afii10072" xMin="49" yMin="-2" xMax="1760" yMax="1141">
      <contour>
        <pt x="713" y="0" on="1"/>
        <pt x="792" y="510" on="1"/>
        <pt x="638" y="510" on="1"/>
        <pt x="298" y="0" on="1"/>
        <pt x="49" y="0" on="1"/>
        <pt x="389" y="455" on="1"/>
        <pt x="429" y="509" on="0"/>
        <pt x="523" y="575" on="0"/>
        <pt x="574" y="580" on="1"/>
        <pt x="523" y="585" on="0"/>
        <pt x="452" y="649" on="0"/>
        <pt x="425" y="709" on="1"/>
        <pt x="231" y="1141" on="1"/>
        <pt x="485" y="1141" on="1"/>
        <pt x="656" y="659" on="1"/>
        <pt x="817" y="659" on="1"/>
        <pt x="892" y="1141" on="1"/>
        <pt x="1099" y="1141" on="1"/>
        <pt x="1024" y="659" on="1"/>
        <pt x="1186" y="659" on="1"/>
        <pt x="1506" y="1141" on="1"/>
        <pt x="1760" y="1141" on="1"/>
        <pt x="1432" y="709" on="1"/>
        <pt x="1386" y="649" on="0"/>
        <pt x="1290" y="584" on="0"/>
        <pt x="1241" y="580" on="1"/>
        <pt x="1289" y="574" on="0"/>
        <pt x="1363" y="509" on="0"/>
        <pt x="1386" y="455" on="1"/>
        <pt x="1586" y="-2" on="1"/>
        <pt x="1329" y="-2" on="1"/>
        <pt x="1161" y="511" on="1"/>
        <pt x="1000" y="511" on="1"/>
        <pt x="921" y="0" on="1"/>
      </contour>
    </TTGlyph>
    <TTGlyph name="afii10073" xMin="114" yMin="-21" xMax="1006" yMax="1161">
      <contour>
        <pt x="321" y="504" on="1"/>
        <pt x="346" y="665" on="1"/>
        <pt x="456" y="665" on="0"/>
        <pt x="630" y="678" on="0"/>
        <pt x="750" y="723" on="0"/>
        <pt x="814" y="809" on="0"/>
        <pt x="814" y="883" on="1"/>
        <pt x="814" y="946" on="0"/>
        <pt x="711" y="1007" on="0"/>
        <pt x="617" y="1007" on="1"/>
        <pt x="563" y="1007" on="0"/>
        <pt x="455" y="989" on="0"/>
        <pt x="368" y="968" on="0"/>
        <pt x="313" y="950" on="0"/>
        <pt x="313" y="950" on="1"/>
        <pt x="296" y="1097" on="1"/>
        <pt x="306" y="1103" on="0"/>
        <pt x="369" y="1124" on="0"/>
        <pt x="461" y="1145" on="0"/>
        <pt x="577" y="1161" on="0"/>
        <pt x="642" y="1161" on="1"/>
        <pt x="820" y="1161" on="0"/>
        <pt x="1004" y="1047" on="0"/>
        <pt x="1006" y="926" on="1"/>
        <pt x="1006" y="851" on="0"/>
        <pt x="958" y="732" on="0"/>
        <pt x="881" y="646" on="0"/>
        <pt x="785" y="593" on="0"/>
        <pt x="738" y="584" on="1"/>
        <pt x="777" y="576" on="0"/>
        <pt x="848" y="541" on="0"/>
        <pt x="902" y="484" on="0"/>
        <pt x="935" y="404" on="0"/>
        <pt x="936" y="352" on="1"/>
        <pt x="936" y="263" on="0"/>
        <pt x="866" y="125" on="0"/>
        <pt x="743" y="29" on="0"/>
        <pt x="574" y="-21" on="0"/>
        <pt x="475" y="-21" on="1"/>
        <pt x="339" y="-21" on="0"/>
        <pt x="163" y="24" on="0"/>
        <pt x="114" y="53" on="1"/>
        <pt x="179" y="199" on="1"/>
        <pt x="203" y="188" on="0"/>
        <pt x="269" y="164" on="0"/>
        <pt x="350" y="144" on="0"/>
        <pt x="445" y="132" on="0"/>
        <pt x="498" y="132" on="1"/>
        <pt x="557" y="132" on="0"/>
        <pt x="647" y="163" on="0"/>
        <pt x="709" y="220" on="0"/>
        <pt x="740" y="299" on="0"/>
        <pt x="740" y="347" on="1"/>
        <pt x="740" y="431" on="0"/>
        <pt x="589" y="504" on="0"/>
        <pt x="432" y="504" on="1"/>
      </contour>
    </TTGlyph>
    <TTGlyph name="afii10074" xMin="178" yMin="-20" xMax="1188" yMax="1141">
      <contour>
        <pt x="495" y="1141" on="1"/>
        <pt x="493" y="1128" on="0"/>
        <pt x="481" y="1043" on="0"/>
        <pt x="463" y="921" on="0"/>
        <pt x="443" y="773" on="0"/>
        <pt x="422" y="623" on="0"/>
        <pt x="403" y="481" on="0"/>
        <pt x="396" y="426" on="1"/>
        <pt x="393" y="397" on="0"/>
        <pt x="389" y="357" on="0"/>
        <pt x="389" y="346" on="1"/>
        <pt x="388" y="283" on="0"/>
        <pt x="404" y="241" on="1"/>
        <pt x="420" y="189" on="0"/>
        <pt x="496" y="137" on="0"/>
        <pt x="553" y="136" on="1"/>
        <pt x="634" y="137" on="0"/>
        <pt x="783" y="209" on="0"/>
        <pt x="858" y="278" on="1"/>
        <pt x="980" y="1141" on="1"/>
        <pt x="1188" y="1141" on="1"/>
        <pt x="1028" y="0" on="1"/>
        <pt x="876" y="0" on="1"/>
        <pt x="873" y="45" on="0"/>
        <pt x="866" y="129" on="0"/>
        <pt x="864" y="174" on="1"/>
        <pt x="785" y="80" on="0"/>
        <pt x="611" y="-20" on="0"/>
        <pt x="514" y="-20" on="1"/>
        <pt x="178" y="-20" on="0"/>
        <pt x="178" y="314" on="1"/>
        <pt x="178" y="330" on="0"/>
        <pt x="183" y="383" on="0"/>
        <pt x="187" y="416" on="1"/>
        <pt x="193" y="473" on="0"/>
        <pt x="211" y="618" on="0"/>
        <pt x="232" y="771" on="0"/>
        <pt x="253" y="920" on="0"/>
        <pt x="271" y="1043" on="0"/>
        <pt x="284" y="1129" on="0"/>
        <pt x="286" y="1141" on="1"/>
      </contour>
    </TTGlyph>
    <TTGlyph name="afii10075" xMin="178" yMin="-20" xMax="1188" yMax="1790">
      <contour>
        <pt x="495" y="1141" on="1"/>
        <pt x="493" y="1128" on="0"/>
        <pt x="481" y="1043" on="0"/>
        <pt x="463" y="921" on="0"/>
        <pt x="443" y="773" on="0"/>
        <pt x="422" y="623" on="0"/>
        <pt x="403" y="481" on="0"/>
        <pt x="396" y="426" on="1"/>
        <pt x="393" y="397" on="0"/>
        <pt x="389" y="357" on="0"/>
        <pt x="389" y="346" on="1"/>
        <pt x="388" y="283" on="0"/>
        <pt x="404" y="241" on="1"/>
        <pt x="420" y="189" on="0"/>
        <pt x="496" y="137" on="0"/>
        <pt x="553" y="136" on="1"/>
        <pt x="634" y="137" on="0"/>
        <pt x="783" y="209" on="0"/>
        <pt x="858" y="278" on="1"/>
        <pt x="980" y="1141" on="1"/>
        <pt x="1188" y="1141" on="1"/>
        <pt x="1028" y="0" on="1"/>
        <pt x="876" y="0" on="1"/>
        <pt x="873" y="45" on="0"/>
        <pt x="866" y="129" on="0"/>
        <pt x="864" y="174" on="1"/>
        <pt x="785" y="80" on="0"/>
        <pt x="611" y="-20" on="0"/>
        <pt x="514" y="-20" on="1"/>
        <pt x="178" y="-20" on="0"/>
        <pt x="178" y="314" on="1"/>
        <pt x="178" y="330" on="0"/>
        <pt x="183" y="383" on="0"/>
        <pt x="187" y="416" on="1"/>
        <pt x="193" y="473" on="0"/>
        <pt x="211" y="618" on="0"/>
        <pt x="232" y="771" on="0"/>
        <pt x="253" y="920" on="0"/>
        <pt x="271" y="1043" on="0"/>
        <pt x="284" y="1129" on="0"/>
        <pt x="286" y="1141" on="1"/>
      </contour>
      <contour>
        <pt x="1178" y="1790" on="1"/>
        <pt x="1176" y="1781" on="0"/>
        <pt x="1173" y="1764" on="0"/>
        <pt x="1170" y="1755" on="1"/>
        <pt x="1145" y="1646" on="0"/>
        <pt x="1000" y="1529" on="0"/>
        <pt x="871" y="1529" on="1"/>
        <pt x="751" y="1529" on="0"/>
        <pt x="642" y="1631" on="0"/>
        <pt x="641" y="1727" on="1"/>
        <pt x="640" y="1741" on="0"/>
        <pt x="643" y="1773" on="0"/>
        <pt x="645" y="1790" on="1"/>
        <pt x="779" y="1790" on="1"/>
        <pt x="776" y="1773" on="0"/>
        <pt x="776" y="1760" on="1"/>
        <pt x="775" y="1738" on="0"/>
        <pt x="788" y="1705" on="0"/>
        <pt x="799" y="1692" on="1"/>
        <pt x="823" y="1647" on="0"/>
        <pt x="891" y="1647" on="1"/>
        <pt x="955" y="1647" on="0"/>
        <pt x="1035" y="1720" on="0"/>
        <pt x="1046" y="1790" on="1"/>
      </contour>
    </TTGlyph>
    <TTGlyph name="afii10076" xMin="128" yMin="0" xMax="1224" yMax="1141">
      <contour>
        <pt x="128" y="0" on="1"/>
        <pt x="288" y="1141" on="1"/>
        <pt x="496" y="1141" on="1"/>
        <pt x="425" y="647" on="1"/>
        <pt x="538" y="647" on="1"/>
        <pt x="975" y="1141" on="1"/>
        <pt x="1224" y="1141" on="1"/>
        <pt x="867" y="757" on="1"/>
        <pt x="847" y="736" on="0"/>
        <pt x="786" y="673" on="0"/>
        <pt x="714" y="614" on="0"/>
        <pt x="635" y="572" on="0"/>
        <pt x="598" y="571" on="1"/>
        <pt x="614" y="568" on="0"/>
        <pt x="658" y="550" on="0"/>
        <pt x="703" y="523" on="0"/>
        <pt x="745" y="489" on="0"/>
        <pt x="760" y="470" on="1"/>
        <pt x="777" y="448" on="0"/>
        <pt x="811" y="400" on="0"/>
        <pt x="829" y="373" on="1"/>
        <pt x="1068" y="0" on="1"/>
        <pt x="823" y="0" on="1"/>
        <pt x="601" y="372" on="1"/>
        <pt x="513" y="502" on="1"/>
        <pt x="405" y="502" on="1"/>
        <pt x="336" y="0" on="1"/>
      </contour>
    </TTGlyph>
    <TTGlyph name="afii10077" xMin="-9" yMin="-16" xMax="1275" yMax="1141">
      <contour>
        <pt x="437" y="1141" on="1"/>
        <pt x="1275" y="1141" on="1"/>
        <pt x="1099" y="0" on="1"/>
        <pt x="886" y="0" on="1"/>
        <pt x="1040" y="993" on="1"/>
        <pt x="608" y="993" on="1"/>
        <pt x="488" y="437" on="1"/>
        <pt x="463" y="324" on="0"/>
        <pt x="388" y="154" on="0"/>
        <pt x="273" y="41" on="0"/>
        <pt x="107" y="-16" on="0"/>
        <pt x="-9" y="-16" on="1"/>
        <pt x="19" y="168" on="1"/>
        <pt x="79" y="171" on="0"/>
        <pt x="165" y="205" on="0"/>
        <pt x="228" y="274" on="0"/>
        <pt x="272" y="382" on="0"/>
        <pt x="289" y="459" on="1"/>
      </contour>
    </TTGlyph>
    <TTGlyph name="afii10078" xMin="128" yMin="0" xMax="1539" yMax="1142">
      <contour>
        <pt x="777" y="194" on="1"/>
        <pt x="1238" y="1142" on="1"/>
        <pt x="1539" y="1142" on="1"/>
        <pt x="1363" y="0" on="1"/>
        <pt x="1179" y="0" on="1"/>
        <pt x="1333" y="987" on="1"/>
        <pt x="852" y="0" on="1"/>
        <pt x="644" y="0" on="1"/>
        <pt x="466" y="987" on="1"/>
        <pt x="314" y="0" on="1"/>
        <pt x="128" y="0" on="1"/>
        <pt x="304" y="1142" on="1"/>
        <pt x="607" y="1142" on="1"/>
      </contour>
    </TTGlyph>
    <TTGlyph name="afii10079" xMin="128" yMin="0" xMax="1280" yMax="1141">
      <contour>
        <pt x="304" y="1141" on="1"/>
        <pt x="517" y="1141" on="1"/>
        <pt x="446" y="678" on="1"/>
        <pt x="994" y="678" on="1"/>
        <pt x="1066" y="1141" on="1"/>
        <pt x="1280" y="1141" on="1"/>
        <pt x="1104" y="0" on="1"/>
        <pt x="891" y="0" on="1"/>
        <pt x="974" y="537" on="1"/>
        <pt x="425" y="537" on="1"/>
        <pt x="342" y="0" on="1"/>
        <pt x="128" y="0" on="1"/>
      </contour>
    </TTGlyph>
    <TTGlyph name="afii10080" xMin="152" yMin="-20" xMax="1159" yMax="1161">
      <contour>
        <pt x="152" y="429" on="1"/>
        <pt x="152" y="513" on="0"/>
        <pt x="181" y="688" on="0"/>
        <pt x="243" y="850" on="0"/>
        <pt x="338" y="993" on="0"/>
        <pt x="469" y="1100" on="0"/>
        <pt x="638" y="1161" on="0"/>
        <pt x="742" y="1161" on="1"/>
        <pt x="860" y="1161" on="0"/>
        <pt x="1019" y="1088" on="0"/>
        <pt x="1115" y="965" on="0"/>
        <pt x="1157" y="804" on="0"/>
        <pt x="1158" y="716" on="1"/>
        <pt x="1159" y="616" on="0"/>
        <pt x="1122" y="430" on="0"/>
        <pt x="1051" y="267" on="0"/>
        <pt x="947" y="131" on="0"/>
        <pt x="816" y="34" on="0"/>
        <pt x="658" y="-20" on="0"/>
        <pt x="568" y="-20" on="1"/>
        <pt x="473" y="-20" on="0"/>
        <pt x="320" y="41" on="0"/>
        <pt x="212" y="157" on="0"/>
        <pt x="153" y="324" on="0"/>
      </contour>
      <contour>
        <pt x="592" y="136" on="1"/>
        <pt x="660" y="136" on="0"/>
        <pt x="767" y="187" on="0"/>
        <pt x="847" y="273" on="0"/>
        <pt x="904" y="387" on="0"/>
        <pt x="939" y="513" on="0"/>
        <pt x="955" y="644" on="0"/>
        <pt x="955" y="704" on="1"/>
        <pt x="955" y="768" on="0"/>
        <pt x="930" y="878" on="0"/>
        <pt x="875" y="958" on="0"/>
        <pt x="785" y="1004" on="0"/>
        <pt x="720" y="1004" on="1"/>
        <pt x="650" y="1004" on="0"/>
        <pt x="541" y="949" on="0"/>
        <pt x="460" y="858" on="0"/>
        <pt x="404" y="740" on="0"/>
        <pt x="370" y="613" on="0"/>
        <pt x="355" y="486" on="0"/>
        <pt x="355" y="433" on="1"/>
        <pt x="355" y="370" on="0"/>
        <pt x="380" y="261" on="0"/>
        <pt x="436" y="182" on="0"/>
        <pt x="526" y="136" on="0"/>
      </contour>
    </TTGlyph>
    <TTGlyph name="afii10081" xMin="128" yMin="0" xMax="1269" yMax="1141">
      <contour>
        <pt x="288" y="1141" on="1"/>
        <pt x="1269" y="1141" on="1"/>
        <pt x="1110" y="0" on="1"/>
        <pt x="897" y="0" on="1"/>
        <pt x="1039" y="993" on="1"/>
        <pt x="485" y="993" on="1"/>
        <pt x="342" y="0" on="1"/>
        <pt x="128" y="0" on="1"/>
      </contour>
    </TTGlyph>
    <TTGlyph name="afii10082" xMin="114" yMin="-467" xMax="1220" yMax="1161">
      <contour>
        <pt x="1220" y="714" on="1"/>
        <pt x="1220" y="627" on="0"/>
        <pt x="1192" y="451" on="0"/>
        <pt x="1134" y="288" on="0"/>
        <pt x="1046" y="146" on="0"/>
        <pt x="928" y="41" on="0"/>
        <pt x="779" y="-20" on="0"/>
        <pt x="688" y="-20" on="1"/>
        <pt x="643" y="-20" on="0"/>
        <pt x="559" y="6" on="0"/>
        <pt x="487" y="53" on="0"/>
        <pt x="429" y="115" on="0"/>
        <pt x="410" y="151" on="1"/>
        <pt x="326" y="-450" on="1"/>
        <pt x="114" y="-467" on="1"/>
        <pt x="340" y="1141" on="1"/>
        <pt x="500" y="1141" on="1"/>
        <pt x="509" y="957" on="1"/>
        <pt x="544" y="1000" on="0"/>
        <pt x="627" y="1075" on="0"/>
        <pt x="717" y="1130" on="0"/>
        <pt x="810" y="1161" on="0"/>
        <pt x="855" y="1161" on="1"/>
        <pt x="937" y="1161" on="0"/>
        <pt x="1071" y="1110" on="0"/>
        <pt x="1167" y="1002" on="0"/>
        <pt x="1220" y="832" on="0"/>
      </contour>
      <contour>
        <pt x="1012" y="679" on="1"/>
        <pt x="1015" y="754" on="0"/>
        <pt x="1004" y="818" on="1"/>
        <pt x="988" y="914" on="0"/>
        <pt x="900" y="1004" on="0"/>
        <pt x="828" y="1004" on="1"/>
        <pt x="753" y="1004" on="0"/>
        <pt x="588" y="933" on="0"/>
        <pt x="510" y="861" on="1"/>
        <pt x="430" y="288" on="1"/>
        <pt x="450" y="257" on="0"/>
        <pt x="514" y="202" on="0"/>
        <pt x="588" y="160" on="0"/>
        <pt x="666" y="136" on="0"/>
        <pt x="699" y="136" on="1"/>
        <pt x="761" y="136" on="0"/>
        <pt x="856" y="188" on="0"/>
        <pt x="925" y="274" on="0"/>
        <pt x="971" y="386" on="0"/>
        <pt x="999" y="507" on="0"/>
        <pt x="1011" y="628" on="0"/>
      </contour>
    </TTGlyph>
    <TTGlyph name="afii10083" xMin="152" yMin="-20" xMax="1064" yMax="1161">
      <contour>
        <pt x="153" y="424" on="1"/>
        <pt x="152" y="536" on="0"/>
        <pt x="194" y="732" on="0"/>
        <pt x="270" y="896" on="0"/>
        <pt x="376" y="1025" on="0"/>
        <pt x="503" y="1114" on="0"/>
        <pt x="648" y="1161" on="0"/>
        <pt x="725" y="1161" on="1"/>
        <pt x="830" y="1161" on="0"/>
        <pt x="992" y="1103" on="0"/>
        <pt x="1064" y="1045" on="1"/>
        <pt x="989" y="893" on="1"/>
        <pt x="973" y="913" on="0"/>
        <pt x="917" y="953" on="0"/>
        <pt x="848" y="984" on="0"/>
        <pt x="771" y="1004" on="0"/>
        <pt x="735" y="1004" on="1"/>
        <pt x="657" y="1004" on="0"/>
        <pt x="538" y="944" on="0"/>
        <pt x="453" y="841" on="0"/>
        <pt x="397" y="703" on="0"/>
        <pt x="382" y="626" on="1"/>
        <pt x="371" y="574" on="0"/>
        <pt x="361" y="474" on="0"/>
        <pt x="361" y="429" on="1"/>
        <pt x="362" y="281" on="0"/>
        <pt x="484" y="136" on="0"/>
        <pt x="593" y="136" on="1"/>
        <pt x="622" y="136" on="0"/>
        <pt x="673" y="147" on="0"/>
        <pt x="693" y="178" on="0"/>
        <pt x="670" y="233" on="0"/>
        <pt x="626" y="277" on="1"/>
        <pt x="695" y="269" on="0"/>
        <pt x="826" y="258" on="0"/>
        <pt x="895" y="254" on="1"/>
        <pt x="926" y="105" on="1"/>
        <pt x="832" y="42" on="0"/>
        <pt x="653" y="-19" on="0"/>
        <pt x="550" y="-20" on="1"/>
        <pt x="467" y="-19" on="0"/>
        <pt x="323" y="34" on="0"/>
        <pt x="216" y="142" on="0"/>
        <pt x="154" y="309" on="0"/>
      </contour>
    </TTGlyph>
    <TTGlyph name="afii10084" xMin="146" yMin="0" xMax="1772" yMax="1161">
      <contour>
        <pt x="1497" y="1161" on="1"/>
        <pt x="1638" y="1161" on="0"/>
        <pt x="1772" y="987" on="0"/>
        <pt x="1771" y="832" on="1"/>
        <pt x="1771" y="825" on="0"/>
        <pt x="1770" y="804" on="0"/>
        <pt x="1763" y="748" on="0"/>
        <pt x="1750" y="643" on="0"/>
        <pt x="1725" y="463" on="0"/>
        <pt x="1688" y="193" on="0"/>
        <pt x="1661" y="0" on="1"/>
        <pt x="1453" y="0" on="1"/>
        <pt x="1481" y="196" on="0"/>
        <pt x="1520" y="470" on="0"/>
        <pt x="1545" y="652" on="0"/>
        <pt x="1558" y="758" on="0"/>
        <pt x="1565" y="814" on="0"/>
        <pt x="1566" y="834" on="0"/>
        <pt x="1566" y="840" on="1"/>
        <pt x="1566" y="885" on="0"/>
        <pt x="1547" y="947" on="0"/>
        <pt x="1512" y="986" on="0"/>
        <pt x="1463" y="1004" on="0"/>
        <pt x="1434" y="1004" on="1"/>
        <pt x="1362" y="1004" on="0"/>
        <pt x="1207" y="926" on="0"/>
        <pt x="1119" y="845" on="1"/>
        <pt x="1000" y="0" on="1"/>
        <pt x="792" y="0" on="1"/>
        <pt x="814" y="157" on="0"/>
        <pt x="848" y="398" on="0"/>
        <pt x="873" y="581" on="0"/>
        <pt x="891" y="712" on="0"/>
        <pt x="897" y="760" on="1"/>
        <pt x="899" y="779" on="0"/>
        <pt x="902" y="805" on="0"/>
        <pt x="903" y="822" on="0"/>
        <pt x="904" y="834" on="0"/>
        <pt x="904" y="839" on="1"/>
        <pt x="904" y="923" on="0"/>
        <pt x="847" y="1004" on="0"/>
        <pt x="777" y="1004" on="1"/>
        <pt x="714" y="1004" on="0"/>
        <pt x="562" y="923" on="0"/>
        <pt x="474" y="838" on="1"/>
        <pt x="355" y="0" on="1"/>
        <pt x="146" y="0" on="1"/>
        <pt x="307" y="1141" on="1"/>
        <pt x="460" y="1141" on="1"/>
        <pt x="470" y="951" on="1"/>
        <pt x="503" y="997" on="0"/>
        <pt x="585" y="1075" on="0"/>
        <pt x="679" y="1130" on="0"/>
        <pt x="782" y="1161" on="0"/>
        <pt x="837" y="1161" on="1"/>
        <pt x="896" y="1161" on="0"/>
        <pt x="986" y="1131" on="0"/>
        <pt x="1051" y="1076" on="0"/>
        <pt x="1091" y="998" on="0"/>
        <pt x="1100" y="951" on="1"/>
        <pt x="1136" y="999" on="0"/>
        <pt x="1227" y="1077" on="0"/>
        <pt x="1330" y="1131" on="0"/>
        <pt x="1441" y="1161" on="0"/>
      </contour>
    </TTGlyph>
    <TTGlyph name="afii10085" xMin="64" yMin="-465" xMax="1141" yMax="1141">
      <contour>
        <pt x="64" y="-309" on="1"/>
        <pt x="127" y="-298" on="0"/>
        <pt x="218" y="-259" on="0"/>
        <pt x="256" y="-225" on="1"/>
        <pt x="310" y="-187" on="0"/>
        <pt x="394" y="-65" on="0"/>
        <pt x="425" y="16" on="1"/>
        <pt x="419" y="44" on="0"/>
        <pt x="408" y="100" on="0"/>
        <pt x="402" y="127" on="1"/>
        <pt x="177" y="1141" on="1"/>
        <pt x="376" y="1141" on="1"/>
        <pt x="556" y="278" on="1"/>
        <pt x="933" y="1141" on="1"/>
        <pt x="1141" y="1141" on="1"/>
        <pt x="641" y="61" on="1"/>
        <pt x="609" y="-10" on="0"/>
        <pt x="535" y="-160" on="0"/>
        <pt x="439" y="-295" on="0"/>
        <pt x="317" y="-404" on="0"/>
        <pt x="238" y="-434" on="1"/>
        <pt x="207" y="-446" on="0"/>
        <pt x="139" y="-461" on="0"/>
        <pt x="102" y="-465" on="1"/>
      </contour>
    </TTGlyph>
    <TTGlyph name="afii10086" xMin="152" yMin="-112" xMax="1307" yMax="1237">
      <contour>
        <pt x="769" y="215" on="1"/>
        <pt x="902" y="224" on="0"/>
        <pt x="984" y="312" on="1"/>
        <pt x="1014" y="343" on="0"/>
        <pt x="1059" y="424" on="0"/>
        <pt x="1090" y="514" on="0"/>
        <pt x="1106" y="611" on="0"/>
        <pt x="1107" y="659" on="1"/>
        <pt x="1109" y="737" on="0"/>
        <pt x="1085" y="791" on="1"/>
        <pt x="1062" y="863" on="0"/>
        <pt x="950" y="933" on="0"/>
        <pt x="872" y="938" on="1"/>
      </contour>
      <contour>
        <pt x="685" y="938" on="1"/>
        <pt x="598" y="930" on="0"/>
        <pt x="476" y="855" on="0"/>
        <pt x="434" y="794" on="1"/>
        <pt x="396" y="736" on="0"/>
        <pt x="355" y="580" on="0"/>
        <pt x="353" y="499" on="1"/>
        <pt x="351" y="434" on="0"/>
        <pt x="366" y="386" on="1"/>
        <pt x="387" y="301" on="0"/>
        <pt x="504" y="217" on="0"/>
        <pt x="591" y="215" on="1"/>
      </contour>
      <contour>
        <pt x="738" y="1237" on="1"/>
        <pt x="915" y="1237" on="1"/>
        <pt x="892" y="1076" on="1"/>
        <pt x="914" y="1074" on="0"/>
        <pt x="955" y="1070" on="0"/>
        <pt x="975" y="1065" on="1"/>
        <pt x="1039" y="1053" on="0"/>
        <pt x="1148" y="1000" on="0"/>
        <pt x="1232" y="921" on="0"/>
        <pt x="1289" y="815" on="0"/>
        <pt x="1300" y="749" on="1"/>
        <pt x="1303" y="728" on="0"/>
        <pt x="1307" y="686" on="0"/>
        <pt x="1307" y="664" on="1"/>
        <pt x="1304" y="538" on="0"/>
        <pt x="1225" y="337" on="0"/>
        <pt x="1094" y="190" on="0"/>
        <pt x="923" y="100" on="0"/>
        <pt x="828" y="85" on="1"/>
        <pt x="809" y="81" on="0"/>
        <pt x="768" y="76" on="0"/>
        <pt x="746" y="75" on="1"/>
        <pt x="721" y="-112" on="1"/>
        <pt x="539" y="-112" on="1"/>
        <pt x="568" y="75" on="1"/>
        <pt x="547" y="76" on="0"/>
        <pt x="506" y="82" on="0"/>
        <pt x="486" y="86" on="1"/>
        <pt x="423" y="97" on="0"/>
        <pt x="312" y="148" on="0"/>
        <pt x="227" y="226" on="0"/>
        <pt x="170" y="332" on="0"/>
        <pt x="160" y="398" on="1"/>
        <pt x="155" y="418" on="0"/>
        <pt x="152" y="461" on="0"/>
        <pt x="152" y="484" on="1"/>
        <pt x="153" y="510" on="0"/>
        <pt x="156" y="562" on="0"/>
        <pt x="161" y="587" on="1"/>
        <pt x="178" y="692" on="0"/>
        <pt x="264" y="859" on="0"/>
        <pt x="389" y="980" on="0"/>
        <pt x="545" y="1054" on="0"/>
        <pt x="631" y="1067" on="1"/>
        <pt x="673" y="1074" on="0"/>
        <pt x="715" y="1076" on="1"/>
      </contour>
    </TTGlyph>
    <TTGlyph name="afii10087" xMin="49" yMin="0" xMax="1138" yMax="1141">
      <contour>
        <pt x="576" y="435" on="1"/>
        <pt x="271" y="0" on="1"/>
        <pt x="49" y="0" on="1"/>
        <pt x="494" y="571" on="1"/>
        <pt x="211" y="1141" on="1"/>
        <pt x="438" y="1141" on="1"/>
        <pt x="612" y="718" on="1"/>
        <pt x="917" y="1141" on="1"/>
        <pt x="1138" y="1141" on="1"/>
        <pt x="694" y="571" on="1"/>
        <pt x="964" y="0" on="1"/>
        <pt x="748" y="0" on="1"/>
      </contour>
    </TTGlyph>
    <TTGlyph name="afii10088" xMin="173" yMin="-243" xMax="1236" yMax="1141">
      <contour>
        <pt x="415" y="-16" on="1"/>
        <pt x="173" y="35" on="0"/>
        <pt x="180" y="335" on="1"/>
        <pt x="182" y="371" on="0"/>
        <pt x="189" y="447" on="0"/>
        <pt x="196" y="489" on="1"/>
        <pt x="297" y="1141" on="1"/>
        <pt x="511" y="1141" on="1"/>
        <pt x="410" y="490" on="1"/>
        <pt x="404" y="452" on="0"/>
        <pt x="396" y="381" on="0"/>
        <pt x="394" y="348" on="1"/>
        <pt x="392" y="252" on="0"/>
        <pt x="459" y="150" on="0"/>
        <pt x="520" y="136" on="1"/>
        <pt x="614" y="136" on="0"/>
        <pt x="793" y="200" on="0"/>
        <pt x="887" y="260" on="1"/>
        <pt x="1023" y="1141" on="1"/>
        <pt x="1236" y="1141" on="1"/>
        <pt x="1074" y="90" on="1"/>
        <pt x="1173" y="90" on="1"/>
        <pt x="1127" y="-243" on="1"/>
        <pt x="958" y="-243" on="1"/>
        <pt x="994" y="0" on="1"/>
        <pt x="908" y="0" on="1"/>
        <pt x="808" y="135" on="1"/>
        <pt x="612" y="-16" on="0"/>
      </contour>
    </TTGlyph>
    <TTGlyph name="afii10089" xMin="199" yMin="0" xMax="1168" yMax="1146">
      <contour>
        <pt x="900" y="563" on="1"/>
        <pt x="838" y="503" on="0"/>
        <pt x="739" y="425" on="0"/>
        <pt x="649" y="381" on="0"/>
        <pt x="561" y="364" on="0"/>
        <pt x="510" y="364" on="1"/>
        <pt x="361" y="364" on="0"/>
        <pt x="199" y="521" on="0"/>
        <pt x="199" y="686" on="1"/>
        <pt x="199" y="693" on="0"/>
        <pt x="204" y="741" on="0"/>
        <pt x="213" y="808" on="0"/>
        <pt x="224" y="890" on="0"/>
        <pt x="230" y="931" on="1"/>
        <pt x="237" y="980" on="0"/>
        <pt x="253" y="1086" on="0"/>
        <pt x="262" y="1146" on="1"/>
        <pt x="439" y="1146" on="1"/>
        <pt x="430" y="1089" on="0"/>
        <pt x="415" y="988" on="0"/>
        <pt x="408" y="942" on="1"/>
        <pt x="402" y="903" on="0"/>
        <pt x="391" y="826" on="0"/>
        <pt x="382" y="761" on="0"/>
        <pt x="377" y="715" on="0"/>
        <pt x="377" y="708" on="1"/>
        <pt x="377" y="602" on="0"/>
        <pt x="461" y="507" on="0"/>
        <pt x="549" y="507" on="1"/>
        <pt x="604" y="507" on="0"/>
        <pt x="713" y="538" on="0"/>
        <pt x="810" y="584" on="0"/>
        <pt x="890" y="639" on="0"/>
        <pt x="916" y="662" on="1"/>
        <pt x="993" y="1146" on="1"/>
        <pt x="1168" y="1146" on="1"/>
        <pt x="987" y="0" on="1"/>
        <pt x="811" y="0" on="1"/>
      </contour>
    </TTGlyph>
    <TTGlyph name="afii10090" xMin="172" yMin="-16" xMax="1853" yMax="1141">
      <contour>
        <pt x="1692" y="0" on="1"/>
        <pt x="1592" y="0" on="1"/>
        <pt x="1534" y="135" on="1"/>
        <pt x="1491" y="104" on="0"/>
        <pt x="1397" y="49" on="0"/>
        <pt x="1295" y="8" on="0"/>
        <pt x="1183" y="-16" on="0"/>
        <pt x="1123" y="-16" on="1"/>
        <pt x="1011" y="-16" on="0"/>
        <pt x="858" y="50" on="0"/>
        <pt x="810" y="122" on="1"/>
        <pt x="767" y="91" on="0"/>
        <pt x="676" y="40" on="0"/>
        <pt x="576" y="4" on="0"/>
        <pt x="463" y="-16" on="0"/>
        <pt x="399" y="-16" on="1"/>
        <pt x="341" y="-10" on="0"/>
        <pt x="255" y="44" on="0"/>
        <pt x="199" y="127" on="0"/>
        <pt x="172" y="234" on="0"/>
        <pt x="173" y="294" on="1"/>
        <pt x="175" y="311" on="0"/>
        <pt x="186" y="396" on="0"/>
        <pt x="202" y="513" on="0"/>
        <pt x="220" y="653" on="0"/>
        <pt x="240" y="797" on="0"/>
        <pt x="258" y="935" on="0"/>
        <pt x="274" y="1049" on="0"/>
        <pt x="285" y="1128" on="0"/>
        <pt x="287" y="1141" on="1"/>
        <pt x="502" y="1141" on="1"/>
        <pt x="500" y="1131" on="0"/>
        <pt x="490" y="1059" on="0"/>
        <pt x="475" y="953" on="0"/>
        <pt x="457" y="823" on="0"/>
        <pt x="438" y="687" on="0"/>
        <pt x="421" y="555" on="0"/>
        <pt x="406" y="446" on="0"/>
        <pt x="396" y="369" on="0"/>
        <pt x="395" y="356" on="1"/>
        <pt x="393" y="268" on="0"/>
        <pt x="457" y="150" on="0"/>
        <pt x="520" y="136" on="1"/>
        <pt x="561" y="136" on="0"/>
        <pt x="637" y="145" on="0"/>
        <pt x="714" y="169" on="0"/>
        <pt x="798" y="211" on="0"/>
        <pt x="847" y="243" on="1"/>
        <pt x="972" y="1141" on="1"/>
        <pt x="1185" y="1141" on="1"/>
        <pt x="1183" y="1131" on="0"/>
        <pt x="1173" y="1057" on="0"/>
        <pt x="1158" y="948" on="0"/>
        <pt x="1140" y="813" on="0"/>
        <pt x="1120" y="673" on="0"/>
        <pt x="1102" y="536" on="0"/>
        <pt x="1087" y="423" on="0"/>
        <pt x="1076" y="342" on="0"/>
        <pt x="1075" y="328" on="1"/>
        <pt x="1073" y="247" on="0"/>
        <pt x="1119" y="150" on="0"/>
        <pt x="1179" y="136" on="1"/>
        <pt x="1254" y="136" on="0"/>
        <pt x="1421" y="194" on="0"/>
        <pt x="1515" y="260" on="1"/>
        <pt x="1639" y="1141" on="1"/>
        <pt x="1853" y="1141" on="1"/>
      </contour>
    </TTGlyph>
    <TTGlyph name="afii10091" xMin="171" yMin="-354" xMax="1859" yMax="1141">
      <contour>
        <pt x="1714" y="110" on="1"/>
        <pt x="1839" y="110" on="1"/>
        <pt x="1770" y="-354" on="1"/>
        <pt x="1579" y="-354" on="1"/>
        <pt x="1632" y="0" on="1"/>
        <pt x="1511" y="0" on="1"/>
        <pt x="1510" y="34" on="0"/>
        <pt x="1510" y="101" on="0"/>
        <pt x="1510" y="135" on="1"/>
        <pt x="1474" y="104" on="0"/>
        <pt x="1394" y="49" on="0"/>
        <pt x="1307" y="8" on="0"/>
        <pt x="1211" y="-16" on="0"/>
        <pt x="1159" y="-16" on="1"/>
        <pt x="1050" y="-16" on="0"/>
        <pt x="900" y="50" on="0"/>
        <pt x="855" y="122" on="1"/>
        <pt x="813" y="91" on="0"/>
        <pt x="724" y="40" on="0"/>
        <pt x="625" y="4" on="0"/>
        <pt x="515" y="-16" on="0"/>
        <pt x="451" y="-16" on="1"/>
        <pt x="348" y="-16" on="0"/>
        <pt x="269" y="19" on="1"/>
        <pt x="218" y="67" on="0"/>
        <pt x="171" y="209" on="0"/>
        <pt x="173" y="294" on="1"/>
        <pt x="175" y="311" on="0"/>
        <pt x="186" y="396" on="0"/>
        <pt x="202" y="513" on="0"/>
        <pt x="221" y="653" on="0"/>
        <pt x="241" y="797" on="0"/>
        <pt x="260" y="935" on="0"/>
        <pt x="276" y="1049" on="0"/>
        <pt x="287" y="1128" on="0"/>
        <pt x="289" y="1141" on="1"/>
        <pt x="504" y="1141" on="1"/>
        <pt x="502" y="1131" on="0"/>
        <pt x="492" y="1059" on="0"/>
        <pt x="477" y="953" on="0"/>
        <pt x="459" y="822" on="0"/>
        <pt x="440" y="686" on="0"/>
        <pt x="423" y="554" on="0"/>
        <pt x="408" y="444" on="0"/>
        <pt x="398" y="367" on="0"/>
        <pt x="397" y="354" on="1"/>
        <pt x="395" y="266" on="0"/>
        <pt x="458" y="147" on="0"/>
        <pt x="521" y="134" on="1"/>
        <pt x="562" y="134" on="0"/>
        <pt x="638" y="143" on="0"/>
        <pt x="716" y="167" on="0"/>
        <pt x="800" y="209" on="0"/>
        <pt x="849" y="241" on="1"/>
        <pt x="975" y="1141" on="1"/>
        <pt x="1189" y="1141" on="1"/>
        <pt x="1187" y="1131" on="0"/>
        <pt x="1177" y="1057" on="0"/>
        <pt x="1162" y="948" on="0"/>
        <pt x="1143" y="813" on="0"/>
        <pt x="1124" y="672" on="0"/>
        <pt x="1106" y="535" on="0"/>
        <pt x="1091" y="421" on="0"/>
        <pt x="1080" y="340" on="0"/>
        <pt x="1079" y="326" on="1"/>
        <pt x="1077" y="245" on="0"/>
        <pt x="1123" y="147" on="0"/>
        <pt x="1183" y="134" on="1"/>
        <pt x="1258" y="134" on="0"/>
        <pt x="1424" y="192" on="0"/>
        <pt x="1520" y="258" on="1"/>
        <pt x="1644" y="1141" on="1"/>
        <pt x="1859" y="1141" on="1"/>
      </contour>
    </TTGlyph>
    <TTGlyph name="afii10092" xMin="107" yMin="-1" xMax="1243" yMax="1141">
      <contour>
        <pt x="278" y="0" on="1"/>
        <pt x="417" y="992" on="1"/>
        <pt x="107" y="992" on="1"/>
        <pt x="127" y="1141" on="1"/>
        <pt x="653" y="1141" on="1"/>
        <pt x="602" y="781" on="1"/>
        <pt x="702" y="781" on="0"/>
        <pt x="785" y="775" on="1"/>
        <pt x="894" y="767" on="0"/>
        <pt x="1063" y="728" on="0"/>
        <pt x="1179" y="656" on="0"/>
        <pt x="1240" y="545" on="0"/>
        <pt x="1242" y="465" on="1"/>
        <pt x="1243" y="362" on="0"/>
        <pt x="1193" y="212" on="0"/>
        <pt x="1099" y="108" on="0"/>
        <pt x="966" y="44" on="0"/>
        <pt x="803" y="10" on="0"/>
        <pt x="614" y="-1" on="0"/>
        <pt x="511" y="0" on="1"/>
      </contour>
      <contour>
        <pt x="556" y="147" on="1"/>
        <pt x="675" y="147" on="0"/>
        <pt x="854" y="168" on="0"/>
        <pt x="972" y="238" on="0"/>
        <pt x="1031" y="368" on="0"/>
        <pt x="1030" y="478" on="1"/>
        <pt x="1030" y="544" on="0"/>
        <pt x="942" y="612" on="0"/>
        <pt x="842" y="626" on="1"/>
        <pt x="797" y="633" on="0"/>
        <pt x="672" y="639" on="0"/>
        <pt x="581" y="639" on="1"/>
        <pt x="522" y="213" on="1"/>
        <pt x="536" y="196" on="0"/>
        <pt x="551" y="164" on="0"/>
      </contour>
    </TTGlyph>
    <TTGlyph name="afii10093" xMin="128" yMin="-1" xMax="1631" yMax="1141">
      <contour>
        <pt x="1264" y="0" on="1"/>
        <pt x="1425" y="1141" on="1"/>
        <pt x="1631" y="1141" on="1"/>
        <pt x="1472" y="0" on="1"/>
      </contour>
      <contour>
        <pt x="128" y="0" on="1"/>
        <pt x="288" y="1141" on="1"/>
        <pt x="503" y="1141" on="1"/>
        <pt x="454" y="782" on="1"/>
        <pt x="505" y="782" on="0"/>
        <pt x="594" y="780" on="0"/>
        <pt x="636" y="776" on="1"/>
        <pt x="745" y="768" on="0"/>
        <pt x="914" y="730" on="0"/>
        <pt x="1030" y="658" on="0"/>
        <pt x="1091" y="546" on="0"/>
        <pt x="1092" y="465" on="1"/>
        <pt x="1093" y="362" on="0"/>
        <pt x="1043" y="212" on="0"/>
        <pt x="950" y="108" on="0"/>
        <pt x="817" y="44" on="0"/>
        <pt x="654" y="10" on="0"/>
        <pt x="464" y="-1" on="0"/>
        <pt x="361" y="0" on="1"/>
      </contour>
      <contour>
        <pt x="407" y="147" on="1"/>
        <pt x="521" y="147" on="0"/>
        <pt x="698" y="167" on="0"/>
        <pt x="819" y="235" on="0"/>
        <pt x="882" y="366" on="0"/>
        <pt x="881" y="478" on="1"/>
        <pt x="880" y="543" on="0"/>
        <pt x="793" y="612" on="0"/>
        <pt x="694" y="626" on="1"/>
        <pt x="649" y="633" on="0"/>
        <pt x="523" y="639" on="0"/>
        <pt x="432" y="639" on="1"/>
        <pt x="373" y="213" on="1"/>
        <pt x="387" y="196" on="0"/>
        <pt x="402" y="164" on="0"/>
      </contour>
    </TTGlyph>
    <TTGlyph name="afii10094" xMin="128" yMin="-2" xMax="1094" yMax="1141">
      <contour>
        <pt x="128" y="0" on="1"/>
        <pt x="288" y="1141" on="1"/>
        <pt x="503" y="1141" on="1"/>
        <pt x="452" y="781" on="1"/>
        <pt x="501" y="781" on="0"/>
        <pt x="590" y="777" on="0"/>
        <pt x="630" y="773" on="1"/>
        <pt x="737" y="763" on="0"/>
        <pt x="908" y="718" on="0"/>
        <pt x="1027" y="642" on="0"/>
        <pt x="1091" y="528" on="0"/>
        <pt x="1092" y="449" on="1"/>
        <pt x="1094" y="314" on="0"/>
        <pt x="984" y="139" on="0"/>
        <pt x="788" y="37" on="0"/>
        <pt x="518" y="-2" on="0"/>
        <pt x="361" y="0" on="1"/>
      </contour>
      <contour>
        <pt x="406" y="147" on="1"/>
        <pt x="519" y="147" on="0"/>
        <pt x="696" y="176" on="0"/>
        <pt x="817" y="246" on="0"/>
        <pt x="881" y="362" on="0"/>
        <pt x="881" y="448" on="1"/>
        <pt x="880" y="520" on="0"/>
        <pt x="789" y="602" on="0"/>
        <pt x="689" y="621" on="1"/>
        <pt x="644" y="630" on="0"/>
        <pt x="519" y="639" on="0"/>
        <pt x="431" y="639" on="1"/>
        <pt x="372" y="213" on="1"/>
        <pt x="386" y="196" on="0"/>
        <pt x="401" y="164" on="0"/>
      </contour>
    </TTGlyph>
    <TTGlyph name="afii10095" xMin="112" yMin="-20" xMax="1040" yMax="1161">
      <contour>
        <pt x="458" y="-20" on="1"/>
        <pt x="438" y="-20" on="0"/>
        <pt x="402" y="-18" on="0"/>
        <pt x="384" y="-14" on="1"/>
        <pt x="306" y="-5" on="0"/>
        <pt x="175" y="52" on="0"/>
        <pt x="112" y="103" on="1"/>
        <pt x="190" y="253" on="1"/>
        <pt x="210" y="231" on="0"/>
        <pt x="265" y="188" on="0"/>
        <pt x="332" y="153" on="0"/>
        <pt x="413" y="132" on="0"/>
        <pt x="458" y="132" on="1"/>
        <pt x="523" y="132" on="0"/>
        <pt x="638" y="187" on="0"/>
        <pt x="729" y="287" on="0"/>
        <pt x="792" y="427" on="0"/>
        <pt x="806" y="512" on="1"/>
        <pt x="455" y="512" on="1"/>
        <pt x="475" y="644" on="1"/>
        <pt x="826" y="644" on="1"/>
        <pt x="828" y="664" on="0"/>
        <pt x="830" y="702" on="0"/>
        <pt x="830" y="720" on="1"/>
        <pt x="829" y="792" on="0"/>
        <pt x="804" y="900" on="0"/>
        <pt x="747" y="972" on="0"/>
        <pt x="655" y="1008" on="0"/>
        <pt x="588" y="1008" on="1"/>
        <pt x="552" y="1008" on="0"/>
        <pt x="472" y="988" on="0"/>
        <pt x="393" y="955" on="0"/>
        <pt x="320" y="912" on="0"/>
        <pt x="291" y="888" on="1"/>
        <pt x="260" y="1038" on="1"/>
        <pt x="363" y="1103" on="0"/>
        <pt x="550" y="1161" on="0"/>
        <pt x="651" y="1161" on="1"/>
        <pt x="738" y="1161" on="0"/>
        <pt x="881" y="1098" on="0"/>
        <pt x="983" y="983" on="0"/>
        <pt x="1039" y="821" on="0"/>
        <pt x="1040" y="721" on="1"/>
        <pt x="1040" y="566" on="0"/>
        <pt x="958" y="296" on="0"/>
        <pt x="806" y="96" on="0"/>
        <pt x="591" y="-20" on="0"/>
      </contour>
    </TTGlyph>
    <TTGlyph name="afii10096" xMin="128" yMin="-22" xMax="1617" yMax="1162">
      <contour>
        <pt x="1180" y="1162" on="1"/>
        <pt x="1295" y="1162" on="0"/>
        <pt x="1460" y="1090" on="0"/>
        <pt x="1565" y="967" on="0"/>
        <pt x="1615" y="801" on="0"/>
        <pt x="1616" y="707" on="1"/>
        <pt x="1617" y="698" on="0"/>
        <pt x="1616" y="688" on="1"/>
        <pt x="1613" y="524" on="0"/>
        <pt x="1520" y="262" on="0"/>
        <pt x="1363" y="77" on="0"/>
        <pt x="1153" y="-22" on="0"/>
        <pt x="1032" y="-22" on="1"/>
        <pt x="826" y="-22" on="0"/>
        <pt x="602" y="197" on="0"/>
        <pt x="597" y="415" on="1"/>
        <pt x="597" y="438" on="0"/>
        <pt x="599" y="488" on="0"/>
        <pt x="601" y="514" on="1"/>
        <pt x="412" y="514" on="1"/>
        <pt x="341" y="0" on="1"/>
        <pt x="128" y="0" on="1"/>
        <pt x="288" y="1138" on="1"/>
        <pt x="500" y="1138" on="1"/>
        <pt x="431" y="653" on="1"/>
        <pt x="622" y="653" on="1"/>
        <pt x="647" y="765" on="0"/>
        <pt x="748" y="952" on="0"/>
        <pt x="891" y="1087" on="0"/>
        <pt x="1073" y="1162" on="0"/>
      </contour>
      <contour>
        <pt x="1046" y="130" on="1"/>
        <pt x="1134" y="130" on="0"/>
        <pt x="1258" y="206" on="0"/>
        <pt x="1301" y="269" on="1"/>
        <pt x="1328" y="309" on="0"/>
        <pt x="1368" y="410" on="0"/>
        <pt x="1394" y="520" on="0"/>
        <pt x="1408" y="634" on="0"/>
        <pt x="1409" y="688" on="1"/>
        <pt x="1410" y="739" on="0"/>
        <pt x="1401" y="791" on="1"/>
        <pt x="1384" y="893" on="0"/>
        <pt x="1266" y="1007" on="0"/>
        <pt x="1161" y="1007" on="1"/>
        <pt x="1083" y="1007" on="0"/>
        <pt x="964" y="939" on="0"/>
        <pt x="921" y="876" on="1"/>
        <pt x="892" y="835" on="0"/>
        <pt x="848" y="730" on="0"/>
        <pt x="818" y="610" on="0"/>
        <pt x="803" y="482" on="0"/>
        <pt x="804" y="419" on="1"/>
        <pt x="808" y="281" on="0"/>
        <pt x="926" y="130" on="0"/>
      </contour>
    </TTGlyph>
    <TTGlyph name="afii10097" xMin="132" yMin="0" xMax="1163" yMax="1145">
      <contour>
        <pt x="433" y="738" on="1"/>
        <pt x="431" y="727" on="0"/>
        <pt x="434" y="694" on="0"/>
        <pt x="436" y="683" on="1"/>
        <pt x="442" y="646" on="0"/>
        <pt x="483" y="586" on="0"/>
        <pt x="559" y="543" on="0"/>
        <pt x="676" y="520" on="0"/>
        <pt x="757" y="520" on="1"/>
        <pt x="869" y="520" on="1"/>
        <pt x="941" y="997" on="1"/>
        <pt x="874" y="997" on="0"/>
        <pt x="748" y="993" on="0"/>
        <pt x="636" y="976" on="0"/>
        <pt x="542" y="942" on="0"/>
        <pt x="473" y="885" on="0"/>
        <pt x="434" y="799" on="0"/>
      </contour>
      <contour>
        <pt x="1163" y="1035" on="1"/>
        <pt x="1003" y="0" on="1"/>
        <pt x="788" y="0" on="1"/>
        <pt x="850" y="393" on="1"/>
        <pt x="671" y="393" on="1"/>
        <pt x="372" y="0" on="1"/>
        <pt x="132" y="0" on="1"/>
        <pt x="480" y="418" on="1"/>
        <pt x="419" y="430" on="0"/>
        <pt x="321" y="484" on="0"/>
        <pt x="251" y="558" on="0"/>
        <pt x="213" y="647" on="0"/>
        <pt x="213" y="694" on="1"/>
        <pt x="211" y="844" on="0"/>
        <pt x="339" y="1029" on="0"/>
        <pt x="460" y="1075" on="1"/>
        <pt x="569" y="1118" on="0"/>
        <pt x="885" y="1145" on="0"/>
        <pt x="1093" y="1145" on="1"/>
      </contour>
    </TTGlyph>
    <TTGlyph name="afii10099" xMin="136" yMin="-370" xMax="1165" yMax="1631">
      <contour>
        <pt x="1162" y="813" on="1"/>
        <pt x="1161" y="796" on="0"/>
        <pt x="1158" y="760" on="0"/>
        <pt x="1152" y="708" on="0"/>
        <pt x="1143" y="635" on="0"/>
        <pt x="1129" y="528" on="0"/>
        <pt x="1110" y="382" on="0"/>
        <pt x="1097" y="283" on="1"/>
        <pt x="1077" y="138" on="0"/>
        <pt x="975" y="-88" on="0"/>
        <pt x="830" y="-251" on="0"/>
        <pt x="649" y="-351" on="0"/>
        <pt x="550" y="-370" on="1"/>
        <pt x="530" y="-220" on="1"/>
        <pt x="576" y="-196" on="0"/>
        <pt x="660" y="-150" on="0"/>
        <pt x="733" y="-91" on="0"/>
        <pt x="794" y="-13" on="0"/>
        <pt x="817" y="43" on="1"/>
        <pt x="843" y="97" on="0"/>
        <pt x="880" y="239" on="0"/>
        <pt x="893" y="336" on="1"/>
        <pt x="909" y="452" on="0"/>
        <pt x="931" y="604" on="0"/>
        <pt x="946" y="704" on="0"/>
        <pt x="953" y="765" on="0"/>
        <pt x="954" y="790" on="1"/>
        <pt x="954" y="822" on="0"/>
        <pt x="948" y="873" on="0"/>
        <pt x="940" y="894" on="1"/>
        <pt x="914" y="1004" on="0"/>
        <pt x="791" y="1004" on="1"/>
        <pt x="738" y="1004" on="0"/>
        <pt x="637" y="973" on="0"/>
        <pt x="550" y="928" on="0"/>
        <pt x="484" y="878" on="0"/>
        <pt x="466" y="859" on="1"/>
        <pt x="344" y="0" on="1"/>
        <pt x="136" y="0" on="1"/>
        <pt x="324" y="1332" on="1"/>
        <pt x="182" y="1332" on="1"/>
        <pt x="197" y="1439" on="1"/>
        <pt x="339" y="1439" on="1"/>
        <pt x="361" y="1587" on="1"/>
        <pt x="575" y="1631" on="1"/>
        <pt x="547" y="1439" on="1"/>
        <pt x="977" y="1439" on="1"/>
        <pt x="962" y="1332" on="1"/>
        <pt x="532" y="1332" on="1"/>
        <pt x="482" y="975" on="1"/>
        <pt x="529" y="1022" on="0"/>
        <pt x="614" y="1092" on="0"/>
        <pt x="701" y="1138" on="0"/>
        <pt x="794" y="1161" on="0"/>
        <pt x="849" y="1161" on="1"/>
        <pt x="1007" y="1161" on="0"/>
        <pt x="1165" y="1004" on="0"/>
        <pt x="1165" y="839" on="1"/>
        <pt x="1165" y="828" on="0"/>
      </contour>
    </TTGlyph>
    <TTGlyph name="afii10100" xMin="131" yMin="-20" xMax="978" yMax="1652">
      <component glyphName="acute" x="65" y="885" flags="0x4"/>
      <component glyphName="afii10068" x="0" y="0" flags="0x4"/>
    </TTGlyph>
    <TTGlyph name="afii10101" xMin="151" yMin="-21" xMax="1083" yMax="1161">
      <contour>
        <pt x="736" y="1161" on="1"/>
        <pt x="756" y="1161" on="0"/>
        <pt x="793" y="1159" on="0"/>
        <pt x="811" y="1155" on="1"/>
        <pt x="889" y="1145" on="0"/>
        <pt x="1020" y="1088" on="0"/>
        <pt x="1083" y="1037" on="1"/>
        <pt x="1005" y="888" on="1"/>
        <pt x="985" y="910" on="0"/>
        <pt x="933" y="953" on="0"/>
        <pt x="870" y="987" on="0"/>
        <pt x="799" y="1008" on="0"/>
        <pt x="760" y="1008" on="1"/>
        <pt x="610" y="1008" on="0"/>
        <pt x="433" y="825" on="0"/>
        <pt x="392" y="647" on="1"/>
        <pt x="744" y="647" on="1"/>
        <pt x="722" y="514" on="1"/>
        <pt x="369" y="514" on="1"/>
        <pt x="366" y="488" on="0"/>
        <pt x="364" y="438" on="0"/>
        <pt x="364" y="415" on="1"/>
        <pt x="365" y="281" on="0"/>
        <pt x="464" y="137" on="0"/>
        <pt x="567" y="134" on="1"/>
        <pt x="589" y="132" on="0"/>
        <pt x="633" y="136" on="0"/>
        <pt x="656" y="139" on="1"/>
        <pt x="724" y="151" on="0"/>
        <pt x="857" y="214" on="0"/>
        <pt x="904" y="252" on="1"/>
        <pt x="934" y="102" on="1"/>
        <pt x="831" y="37" on="0"/>
        <pt x="643" y="-21" on="0"/>
        <pt x="543" y="-21" on="1"/>
        <pt x="455" y="-21" on="0"/>
        <pt x="312" y="39" on="0"/>
        <pt x="210" y="152" on="0"/>
        <pt x="153" y="312" on="0"/>
        <pt x="152" y="412" on="1"/>
        <pt x="151" y="515" on="0"/>
        <pt x="189" y="706" on="0"/>
        <pt x="260" y="873" on="0"/>
        <pt x="364" y="1009" on="0"/>
        <pt x="495" y="1107" on="0"/>
        <pt x="649" y="1161" on="0"/>
      </contour>
    </TTGlyph>
    <TTGlyph name="afii10102" xMin="107" yMin="-20" xMax="969" yMax="1161">
      <contour>
        <pt x="207" y="846" on="1"/>
        <pt x="206" y="922" on="0"/>
        <pt x="267" y="1040" on="0"/>
        <pt x="375" y="1120" on="0"/>
        <pt x="522" y="1161" on="0"/>
        <pt x="608" y="1161" on="1"/>
        <pt x="660" y="1161" on="0"/>
        <pt x="760" y="1140" on="0"/>
        <pt x="852" y="1107" on="0"/>
        <pt x="935" y="1066" on="0"/>
        <pt x="969" y="1045" on="1"/>
        <pt x="896" y="909" on="1"/>
        <pt x="873" y="922" on="0"/>
        <pt x="809" y="955" on="0"/>
        <pt x="733" y="983" on="0"/>
        <pt x="649" y="1003" on="0"/>
        <pt x="607" y="1003" on="1"/>
        <pt x="507" y="1003" on="0"/>
        <pt x="390" y="936" on="0"/>
        <pt x="390" y="871" on="1"/>
        <pt x="390" y="844" on="0"/>
        <pt x="402" y="805" on="0"/>
        <pt x="429" y="775" on="0"/>
        <pt x="474" y="750" on="0"/>
        <pt x="506" y="737" on="1"/>
        <pt x="646" y="680" on="1"/>
        <pt x="697" y="659" on="0"/>
        <pt x="793" y="607" on="0"/>
        <pt x="868" y="537" on="0"/>
        <pt x="914" y="447" on="0"/>
        <pt x="914" y="388" on="1"/>
        <pt x="915" y="292" on="0"/>
        <pt x="845" y="140" on="0"/>
        <pt x="725" y="35" on="0"/>
        <pt x="567" y="-20" on="0"/>
        <pt x="480" y="-20" on="1"/>
        <pt x="408" y="-20" on="0"/>
        <pt x="292" y="2" on="0"/>
        <pt x="201" y="36" on="0"/>
        <pt x="132" y="79" on="0"/>
        <pt x="107" y="100" on="1"/>
        <pt x="187" y="244" on="1"/>
        <pt x="206" y="229" on="0"/>
        <pt x="266" y="192" on="0"/>
        <pt x="341" y="159" on="0"/>
        <pt x="428" y="137" on="0"/>
        <pt x="473" y="137" on="1"/>
        <pt x="527" y="137" on="0"/>
        <pt x="618" y="164" on="0"/>
        <pt x="684" y="218" on="0"/>
        <pt x="720" y="298" on="0"/>
        <pt x="720" y="352" on="1"/>
        <pt x="720" y="375" on="0"/>
        <pt x="706" y="412" on="0"/>
        <pt x="675" y="443" on="0"/>
        <pt x="623" y="472" on="0"/>
        <pt x="586" y="487" on="1"/>
        <pt x="440" y="549" on="1"/>
        <pt x="382" y="573" on="0"/>
        <pt x="295" y="627" on="0"/>
        <pt x="236" y="697" on="0"/>
        <pt x="207" y="786" on="0"/>
      </contour>
    </TTGlyph>
    <TTGlyph name="afii10103" xMin="183" yMin="0" xMax="615" yMax="1601">
      <contour>
        <pt x="615" y="1495" on="1"/>
        <pt x="615" y="1489" on="0"/>
        <pt x="614" y="1488" on="1"/>
        <pt x="613" y="1457" on="0"/>
        <pt x="591" y="1402" on="0"/>
        <pt x="554" y="1362" on="0"/>
        <pt x="505" y="1338" on="0"/>
        <pt x="477" y="1338" on="1"/>
        <pt x="429" y="1338" on="0"/>
        <pt x="375" y="1401" on="0"/>
        <pt x="375" y="1447" on="1"/>
        <pt x="375" y="1477" on="0"/>
        <pt x="397" y="1532" on="0"/>
        <pt x="435" y="1575" on="0"/>
        <pt x="485" y="1601" on="0"/>
        <pt x="514" y="1601" on="1"/>
        <pt x="559" y="1601" on="0"/>
        <pt x="614" y="1541" on="0"/>
      </contour>
      <contour>
        <pt x="386" y="0" on="1"/>
        <pt x="183" y="0" on="1"/>
        <pt x="342" y="1141" on="1"/>
        <pt x="546" y="1141" on="1"/>
      </contour>
    </TTGlyph>
    <TTGlyph name="afii10104" xMin="123" yMin="0" xMax="858" yMax="1586">
      <contour>
        <pt x="386" y="0" on="1"/>
        <pt x="183" y="0" on="1"/>
        <pt x="342" y="1140" on="1"/>
        <pt x="546" y="1140" on="1"/>
      </contour>
      <contour>
        <pt x="364" y="1472" on="1"/>
        <pt x="363" y="1441" on="0"/>
        <pt x="341" y="1387" on="0"/>
        <pt x="305" y="1346" on="0"/>
        <pt x="255" y="1323" on="0"/>
        <pt x="227" y="1323" on="1"/>
        <pt x="179" y="1323" on="0"/>
        <pt x="124" y="1386" on="0"/>
        <pt x="124" y="1431" on="1"/>
        <pt x="123" y="1461" on="0"/>
        <pt x="145" y="1516" on="0"/>
        <pt x="183" y="1560" on="0"/>
        <pt x="234" y="1586" on="0"/>
        <pt x="262" y="1586" on="1"/>
        <pt x="307" y="1586" on="0"/>
        <pt x="363" y="1525" on="0"/>
        <pt x="364" y="1480" on="1"/>
      </contour>
      <contour>
        <pt x="858" y="1472" on="1"/>
        <pt x="857" y="1441" on="0"/>
        <pt x="835" y="1387" on="0"/>
        <pt x="798" y="1346" on="0"/>
        <pt x="749" y="1323" on="0"/>
        <pt x="721" y="1323" on="1"/>
        <pt x="673" y="1323" on="0"/>
        <pt x="618" y="1386" on="0"/>
        <pt x="617" y="1431" on="1"/>
        <pt x="617" y="1461" on="0"/>
        <pt x="639" y="1517" on="0"/>
        <pt x="676" y="1560" on="0"/>
        <pt x="726" y="1586" on="0"/>
        <pt x="755" y="1586" on="1"/>
        <pt x="800" y="1586" on="0"/>
        <pt x="857" y="1525" on="0"/>
        <pt x="858" y="1480" on="1"/>
      </contour>
    </TTGlyph>
    <TTGlyph name="afii10105" xMin="-14" yMin="-369" xMax="614" yMax="1601">
      <contour>
        <pt x="613" y="1488" on="1"/>
        <pt x="612" y="1457" on="0"/>
        <pt x="590" y="1402" on="0"/>
        <pt x="553" y="1362" on="0"/>
        <pt x="504" y="1338" on="0"/>
        <pt x="476" y="1338" on="1"/>
        <pt x="428" y="1338" on="0"/>
        <pt x="373" y="1401" on="0"/>
        <pt x="373" y="1447" on="1"/>
        <pt x="373" y="1477" on="0"/>
        <pt x="395" y="1532" on="0"/>
        <pt x="433" y="1575" on="0"/>
        <pt x="483" y="1601" on="0"/>
        <pt x="512" y="1601" on="1"/>
        <pt x="557" y="1601" on="0"/>
        <pt x="613" y="1541" on="0"/>
        <pt x="614" y="1495" on="1"/>
        <pt x="614" y="1489" on="0"/>
      </contour>
      <contour>
        <pt x="-14" y="-225" on="1"/>
        <pt x="44" y="-188" on="0"/>
        <pt x="123" y="-108" on="0"/>
        <pt x="175" y="-11" on="0"/>
        <pt x="207" y="110" on="0"/>
        <pt x="218" y="188" on="1"/>
        <pt x="349" y="1141" on="1"/>
        <pt x="558" y="1141" on="1"/>
        <pt x="424" y="166" on="1"/>
        <pt x="410" y="61" on="0"/>
        <pt x="339" y="-118" on="0"/>
        <pt x="234" y="-256" on="0"/>
        <pt x="100" y="-350" on="0"/>
        <pt x="23" y="-369" on="1"/>
      </contour>
    </TTGlyph>
    <TTGlyph name="afii10106" xMin="-17" yMin="-16" xMax="1878" yMax="1141">
      <contour>
        <pt x="915" y="0" on="1"/>
        <pt x="1054" y="992" on="1"/>
        <pt x="614" y="992" on="1"/>
        <pt x="595" y="883" on="0"/>
        <pt x="559" y="664" on="0"/>
        <pt x="542" y="555" on="1"/>
        <pt x="519" y="418" on="0"/>
        <pt x="451" y="206" on="0"/>
        <pt x="327" y="60" on="0"/>
        <pt x="132" y="-16" on="0"/>
        <pt x="-17" y="-16" on="1"/>
        <pt x="7" y="161" on="1"/>
        <pt x="77" y="164" on="0"/>
        <pt x="180" y="194" on="0"/>
        <pt x="254" y="262" on="0"/>
        <pt x="302" y="374" on="0"/>
        <pt x="316" y="459" on="1"/>
        <pt x="345" y="631" on="0"/>
        <pt x="400" y="969" on="0"/>
        <pt x="428" y="1141" on="1"/>
        <pt x="1289" y="1141" on="1"/>
        <pt x="1239" y="781" on="1"/>
        <pt x="1356" y="781" on="0"/>
        <pt x="1446" y="769" on="1"/>
        <pt x="1526" y="761" on="0"/>
        <pt x="1666" y="731" on="0"/>
        <pt x="1776" y="678" on="0"/>
        <pt x="1849" y="599" on="0"/>
        <pt x="1863" y="542" on="1"/>
        <pt x="1871" y="510" on="0"/>
        <pt x="1878" y="444" on="0"/>
        <pt x="1876" y="411" on="1"/>
        <pt x="1870" y="286" on="0"/>
        <pt x="1754" y="126" on="0"/>
        <pt x="1560" y="34" on="0"/>
        <pt x="1299" y="-1" on="0"/>
        <pt x="1148" y="0" on="1"/>
      </contour>
      <contour>
        <pt x="1193" y="147" on="1"/>
        <pt x="1307" y="147" on="0"/>
        <pt x="1484" y="177" on="0"/>
        <pt x="1605" y="249" on="0"/>
        <pt x="1668" y="368" on="0"/>
        <pt x="1668" y="458" on="1"/>
        <pt x="1667" y="530" on="0"/>
        <pt x="1557" y="608" on="0"/>
        <pt x="1457" y="624" on="1"/>
        <pt x="1370" y="639" on="0"/>
        <pt x="1218" y="639" on="1"/>
        <pt x="1159" y="213" on="1"/>
        <pt x="1173" y="196" on="0"/>
        <pt x="1188" y="164" on="0"/>
      </contour>
    </TTGlyph>
    <TTGlyph name="afii10107" xMin="128" yMin="0" xMax="1825" yMax="1141">
      <contour>
        <pt x="289" y="1141" on="1"/>
        <pt x="503" y="1141" on="1"/>
        <pt x="438" y="678" on="1"/>
        <pt x="965" y="678" on="1"/>
        <pt x="1030" y="1141" on="1"/>
        <pt x="1245" y="1141" on="1"/>
        <pt x="1195" y="781" on="1"/>
        <pt x="1353" y="781" on="0"/>
        <pt x="1573" y="750" on="0"/>
        <pt x="1648" y="715" on="1"/>
        <pt x="1723" y="681" on="0"/>
        <pt x="1804" y="581" on="0"/>
        <pt x="1818" y="512" on="1"/>
        <pt x="1823" y="489" on="0"/>
        <pt x="1825" y="443" on="0"/>
        <pt x="1824" y="418" on="1"/>
        <pt x="1821" y="340" on="0"/>
        <pt x="1774" y="218" on="0"/>
        <pt x="1689" y="125" on="0"/>
        <pt x="1569" y="61" on="0"/>
        <pt x="1493" y="41" on="1"/>
        <pt x="1409" y="18" on="0"/>
        <pt x="1197" y="0" on="0"/>
        <pt x="1067" y="0" on="1"/>
        <pt x="869" y="0" on="1"/>
        <pt x="944" y="538" on="1"/>
        <pt x="419" y="538" on="1"/>
        <pt x="343" y="0" on="1"/>
        <pt x="128" y="0" on="1"/>
      </contour>
      <contour>
        <pt x="1614" y="426" on="1"/>
        <pt x="1616" y="434" on="0"/>
        <pt x="1615" y="461" on="0"/>
        <pt x="1613" y="469" on="1"/>
        <pt x="1608" y="502" on="0"/>
        <pt x="1576" y="556" on="0"/>
        <pt x="1514" y="597" on="0"/>
        <pt x="1419" y="625" on="0"/>
        <pt x="1352" y="632" on="1"/>
        <pt x="1310" y="635" on="0"/>
        <pt x="1221" y="639" on="0"/>
        <pt x="1172" y="639" on="1"/>
        <pt x="1104" y="148" on="1"/>
        <pt x="1121" y="148" on="0"/>
        <pt x="1156" y="149" on="0"/>
        <pt x="1173" y="149" on="1"/>
        <pt x="1210" y="151" on="0"/>
        <pt x="1288" y="154" on="0"/>
        <pt x="1317" y="159" on="1"/>
        <pt x="1384" y="168" on="0"/>
        <pt x="1492" y="204" on="0"/>
        <pt x="1569" y="266" on="0"/>
        <pt x="1612" y="359" on="0"/>
      </contour>
    </TTGlyph>
    <TTGlyph name="afii10108" xMin="138" yMin="0" xMax="1199" yMax="1650">
      <contour>
        <pt x="560" y="1457" on="1"/>
        <pt x="1147" y="1457" on="1"/>
        <pt x="1127" y="1314" on="1"/>
        <pt x="540" y="1314" on="1"/>
        <pt x="495" y="992" on="1"/>
        <pt x="519" y="1018" on="0"/>
        <pt x="567" y="1061" on="0"/>
        <pt x="590" y="1080" on="1"/>
        <pt x="626" y="1108" on="0"/>
        <pt x="693" y="1146" on="0"/>
        <pt x="761" y="1169" on="0"/>
        <pt x="832" y="1179" on="0"/>
        <pt x="872" y="1179" on="1"/>
        <pt x="947" y="1179" on="0"/>
        <pt x="1067" y="1140" on="0"/>
        <pt x="1151" y="1061" on="0"/>
        <pt x="1197" y="941" on="0"/>
        <pt x="1198" y="860" on="1"/>
        <pt x="1199" y="845" on="0"/>
        <pt x="1188" y="749" on="0"/>
        <pt x="1179" y="680" on="1"/>
        <pt x="1171" y="617" on="0"/>
        <pt x="1152" y="476" on="0"/>
        <pt x="1134" y="334" on="0"/>
        <pt x="1115" y="200" on="0"/>
        <pt x="1101" y="91" on="0"/>
        <pt x="1090" y="14" on="0"/>
        <pt x="1088" y="0" on="1"/>
        <pt x="871" y="0" on="1"/>
        <pt x="873" y="15" on="0"/>
        <pt x="886" y="107" on="0"/>
        <pt x="903" y="237" on="0"/>
        <pt x="925" y="392" on="0"/>
        <pt x="946" y="547" on="0"/>
        <pt x="965" y="690" on="0"/>
        <pt x="972" y="743" on="1"/>
        <pt x="976" y="768" on="0"/>
        <pt x="979" y="801" on="0"/>
        <pt x="980" y="806" on="1"/>
        <pt x="982" y="917" on="0"/>
        <pt x="903" y="1022" on="0"/>
        <pt x="818" y="1022" on="1"/>
        <pt x="761" y="1022" on="0"/>
        <pt x="657" y="991" on="0"/>
        <pt x="569" y="946" on="0"/>
        <pt x="500" y="895" on="0"/>
        <pt x="479" y="876" on="1"/>
        <pt x="356" y="0" on="1"/>
        <pt x="138" y="0" on="1"/>
        <pt x="323" y="1314" on="1"/>
        <pt x="166" y="1314" on="1"/>
        <pt x="185" y="1457" on="1"/>
        <pt x="343" y="1457" on="1"/>
        <pt x="365" y="1606" on="1"/>
        <pt x="588" y="1650" on="1"/>
      </contour>
    </TTGlyph>
    <TTGlyph name="afii10109" xMin="128" yMin="0" xMax="1224" yMax="1652">
      <component glyphName="acute" x="165" y="885" flags="0x4"/>
      <component glyphName="afii10076" x="0" y="0" flags="0x4"/>
    </TTGlyph>
    <TTGlyph name="afii10110" xMin="64" yMin="-465" xMax="1141" yMax="1525">
      <component glyphName="uni0306" x="173" y="885" flags="0x4"/>
      <component glyphName="afii10085" x="0" y="0" flags="0x4"/>
    </TTGlyph>
    <TTGlyph name="afii10145" xMin="128" yMin="-406" xMax="1537" yMax="1586">
      <contour>
        <pt x="1314" y="0" on="1"/>
        <pt x="836" y="0" on="1"/>
        <pt x="779" y="-406" on="1"/>
        <pt x="569" y="-406" on="1"/>
        <pt x="627" y="0" on="1"/>
        <pt x="128" y="0" on="1"/>
        <pt x="351" y="1586" on="1"/>
        <pt x="576" y="1586" on="1"/>
        <pt x="375" y="162" on="1"/>
        <pt x="1111" y="162" on="1"/>
        <pt x="1312" y="1586" on="1"/>
        <pt x="1537" y="1586" on="1"/>
      </contour>
    </TTGlyph>
    <TTGlyph name="afii10193" xMin="179" yMin="-364" xMax="1242" yMax="1141">
      <contour>
        <pt x="179" y="232" on="1"/>
        <pt x="182" y="261" on="0"/>
        <pt x="189" y="325" on="0"/>
        <pt x="200" y="415" on="0"/>
        <pt x="216" y="541" on="0"/>
        <pt x="241" y="724" on="0"/>
        <pt x="276" y="973" on="0"/>
        <pt x="300" y="1141" on="1"/>
        <pt x="515" y="1141" on="1"/>
        <pt x="493" y="983" on="0"/>
        <pt x="461" y="753" on="0"/>
        <pt x="439" y="589" on="0"/>
        <pt x="424" y="482" on="0"/>
        <pt x="415" y="411" on="0"/>
        <pt x="410" y="365" on="0"/>
        <pt x="408" y="345" on="1"/>
        <pt x="406" y="246" on="0"/>
        <pt x="473" y="145" on="0"/>
        <pt x="537" y="134" on="1"/>
        <pt x="631" y="134" on="0"/>
        <pt x="810" y="198" on="0"/>
        <pt x="904" y="258" on="1"/>
        <pt x="1028" y="1141" on="1"/>
        <pt x="1242" y="1141" on="1"/>
        <pt x="1082" y="0" on="1"/>
        <pt x="922" y="0" on="1"/>
        <pt x="892" y="135" on="1"/>
        <pt x="772" y="-3" on="0"/>
        <pt x="652" y="-39" on="1"/>
        <pt x="640" y="-120" on="0"/>
        <pt x="616" y="-283" on="0"/>
        <pt x="605" y="-364" on="1"/>
        <pt x="403" y="-364" on="1"/>
        <pt x="454" y="-10" on="1"/>
        <pt x="225" y="22" on="0"/>
      </contour>
    </TTGlyph>
    <TTGlyph name="afii61352" xMin="130" yMin="-23" xMax="2860" yMax="1586">
      <contour>
        <pt x="2272" y="133" on="1"/>
        <pt x="2362" y="133" on="0"/>
        <pt x="2489" y="211" on="0"/>
        <pt x="2534" y="277" on="1"/>
        <pt x="2563" y="320" on="0"/>
        <pt x="2607" y="429" on="0"/>
        <pt x="2635" y="546" on="0"/>
        <pt x="2648" y="666" on="0"/>
        <pt x="2647" y="721" on="1"/>
        <pt x="2647" y="785" on="0"/>
        <pt x="2622" y="894" on="0"/>
        <pt x="2565" y="975" on="0"/>
        <pt x="2474" y="1021" on="0"/>
        <pt x="2408" y="1021" on="1"/>
        <pt x="2345" y="1021" on="0"/>
        <pt x="2243" y="977" on="0"/>
        <pt x="2203" y="939" on="1"/>
        <pt x="2158" y="897" on="0"/>
        <pt x="2092" y="775" on="0"/>
        <pt x="2050" y="636" on="0"/>
        <pt x="2030" y="492" on="0"/>
        <pt x="2031" y="429" on="1"/>
        <pt x="2032" y="366" on="0"/>
        <pt x="2057" y="258" on="0"/>
        <pt x="2113" y="179" on="0"/>
        <pt x="2204" y="133" on="0"/>
      </contour>
      <contour>
        <pt x="2432" y="1179" on="1"/>
        <pt x="2551" y="1179" on="0"/>
        <pt x="2713" y="1106" on="0"/>
        <pt x="2813" y="984" on="0"/>
        <pt x="2858" y="824" on="0"/>
        <pt x="2860" y="737" on="1"/>
        <pt x="2860" y="717" on="1"/>
        <pt x="2857" y="551" on="0"/>
        <pt x="2762" y="279" on="0"/>
        <pt x="2598" y="84" on="0"/>
        <pt x="2376" y="-23" on="0"/>
        <pt x="2247" y="-23" on="1"/>
        <pt x="2150" y="-23" on="0"/>
        <pt x="1993" y="38" on="0"/>
        <pt x="1882" y="153" on="0"/>
        <pt x="1820" y="320" on="0"/>
        <pt x="1819" y="425" on="1"/>
        <pt x="1818" y="488" on="0"/>
        <pt x="1833" y="611" on="0"/>
        <pt x="1850" y="672" on="1"/>
        <pt x="1876" y="781" on="0"/>
        <pt x="1976" y="967" on="0"/>
        <pt x="2122" y="1102" on="0"/>
        <pt x="2314" y="1179" on="0"/>
      </contour>
      <contour>
        <pt x="1086" y="0" on="1"/>
        <pt x="537" y="1356" on="1"/>
        <pt x="346" y="0" on="1"/>
        <pt x="130" y="0" on="1"/>
        <pt x="354" y="1586" on="1"/>
        <pt x="656" y="1586" on="1"/>
        <pt x="1202" y="233" on="1"/>
        <pt x="1393" y="1586" on="1"/>
        <pt x="1608" y="1586" on="1"/>
        <pt x="1385" y="0" on="1"/>
      </contour>
    </TTGlyph>
    <TTGlyph name="agrave" xMin="152" yMin="-20" xMax="1139" yMax="1952">
      <component glyphName="a" x="0" y="0" flags="0x204"/>
      <component glyphName="grave" x="355" y="1161" flags="0x4"/>
    </TTGlyph>
    <TTGlyph name="amacron" xMin="152" yMin="-20" xMax="1139" yMax="1161">
      <component glyphName="a" x="0" y="0" flags="0x4"/>
    </TTGlyph>
    <TTGlyph name="ampersand" xMin="108" yMin="-39" xMax="1446" yMax="1491">
      <contour>
        <pt x="663" y="902" on="1"/>
        <pt x="677" y="907" on="0"/>
        <pt x="703" y="915" on="0"/>
        <pt x="717" y="920" on="1"/>
        <pt x="762" y="938" on="0"/>
        <pt x="845" y="982" on="0"/>
        <pt x="908" y="1043" on="0"/>
        <pt x="945" y="1126" on="0"/>
        <pt x="944" y="1184" on="1"/>
        <pt x="944" y="1257" on="0"/>
        <pt x="845" y="1334" on="0"/>
        <pt x="754" y="1334" on="1"/>
        <pt x="676" y="1334" on="0"/>
        <pt x="583" y="1292" on="0"/>
        <pt x="535" y="1230" on="0"/>
        <pt x="520" y="1162" on="0"/>
        <pt x="520" y="1136" on="1"/>
        <pt x="520" y="1097" on="0"/>
        <pt x="553" y="1026" on="0"/>
        <pt x="600" y="966" on="0"/>
        <pt x="648" y="918" on="0"/>
      </contour>
      <contour>
        <pt x="1118" y="1209" on="1"/>
        <pt x="1118" y="1134" on="0"/>
        <pt x="1070" y="1001" on="0"/>
        <pt x="979" y="892" on="0"/>
        <pt x="849" y="807" on="0"/>
        <pt x="768" y="780" on="1"/>
        <pt x="1130" y="409" on="1"/>
        <pt x="1172" y="501" on="0"/>
        <pt x="1242" y="690" on="0"/>
        <pt x="1270" y="790" on="1"/>
        <pt x="1436" y="789" on="1"/>
        <pt x="1421" y="721" on="0"/>
        <pt x="1377" y="580" on="0"/>
        <pt x="1326" y="448" on="0"/>
        <pt x="1273" y="333" on="0"/>
        <pt x="1249" y="291" on="1"/>
        <pt x="1446" y="104" on="1"/>
        <pt x="1337" y="-18" on="1"/>
        <pt x="1162" y="161" on="1"/>
        <pt x="1131" y="118" on="0"/>
        <pt x="1045" y="45" on="0"/>
        <pt x="917" y="-9" on="0"/>
        <pt x="739" y="-39" on="0"/>
        <pt x="616" y="-39" on="1"/>
        <pt x="505" y="-39" on="0"/>
        <pt x="320" y="8" on="0"/>
        <pt x="186" y="101" on="0"/>
        <pt x="110" y="238" on="0"/>
        <pt x="109" y="327" on="1"/>
        <pt x="108" y="413" on="0"/>
        <pt x="161" y="570" on="0"/>
        <pt x="264" y="702" on="0"/>
        <pt x="413" y="805" on="0"/>
        <pt x="508" y="836" on="1"/>
        <pt x="483" y="862" on="0"/>
        <pt x="423" y="927" on="0"/>
        <pt x="371" y="1004" on="0"/>
        <pt x="336" y="1091" on="0"/>
        <pt x="336" y="1139" on="1"/>
        <pt x="335" y="1194" on="0"/>
        <pt x="379" y="1318" on="0"/>
        <pt x="482" y="1422" on="0"/>
        <pt x="649" y="1491" on="0"/>
        <pt x="770" y="1491" on="1"/>
        <pt x="852" y="1491" on="0"/>
        <pt x="982" y="1450" on="0"/>
        <pt x="1071" y="1376" on="0"/>
        <pt x="1118" y="1272" on="0"/>
      </contour>
      <contour>
        <pt x="607" y="717" on="1"/>
        <pt x="537" y="701" on="0"/>
        <pt x="423" y="637" on="0"/>
        <pt x="342" y="547" on="0"/>
        <pt x="298" y="434" on="0"/>
        <pt x="298" y="370" on="1"/>
        <pt x="298" y="307" on="0"/>
        <pt x="346" y="213" on="0"/>
        <pt x="434" y="152" on="0"/>
        <pt x="559" y="122" on="0"/>
        <pt x="637" y="122" on="1"/>
        <pt x="720" y="122" on="0"/>
        <pt x="844" y="138" on="0"/>
        <pt x="939" y="174" on="0"/>
        <pt x="1013" y="232" on="0"/>
        <pt x="1045" y="273" on="1"/>
      </contour>
    </TTGlyph>
    <TTGlyph name="aogonek" xMin="152" yMin="-20" xMax="1139" yMax="1161">
      <component glyphName="a" x="0" y="0" flags="0x4"/>
    </TTGlyph>
    <TTGlyph name="aring" xMin="152" yMin="-20" xMax="1139" yMax="1764">
      <component glyphName="a" x="0" y="0" flags="0x204"/>
      <component glyphName="ring" x="473" y="1161" flags="0x4"/>
    </TTGlyph>
    <TTGlyph name="aringacute" xMin="152" yMin="-20" xMax="1139" yMax="1161">
      <component glyphName="a" x="0" y="0" flags="0x4"/>
    </TTGlyph>
    <TTGlyph name="asciicircum" xMin="475" yMin="408" xMax="1068" yMax="966">
      <contour>
        <pt x="797" y="966" on="1"/>
        <pt x="937" y="966" on="1"/>
        <pt x="1068" y="408" on="1"/>
        <pt x="904" y="408" on="1"/>
        <pt x="838" y="726" on="1"/>
        <pt x="659" y="408" on="1"/>
        <pt x="475" y="408" on="1"/>
      </contour>
    </TTGlyph>
    <TTGlyph name="asciitilde" xMin="85" yMin="131" xMax="858" yMax="421">
      <contour>
        <pt x="630" y="131" on="1"/>
        <pt x="583" y="131" on="0"/>
        <pt x="489" y="171" on="0"/>
        <pt x="405" y="219" on="0"/>
        <pt x="337" y="259" on="0"/>
        <pt x="316" y="259" on="1"/>
        <pt x="281" y="259" on="0"/>
        <pt x="250" y="202" on="0"/>
        <pt x="243" y="142" on="1"/>
        <pt x="85" y="142" on="1"/>
        <pt x="121" y="421" on="0"/>
        <pt x="318" y="421" on="1"/>
        <pt x="369" y="421" on="0"/>
        <pt x="453" y="381" on="0"/>
        <pt x="526" y="332" on="0"/>
        <pt x="593" y="292" on="0"/>
        <pt x="628" y="292" on="1"/>
        <pt x="662" y="292" on="0"/>
        <pt x="690" y="347" on="0"/>
        <pt x="698" y="401" on="1"/>
        <pt x="858" y="401" on="1"/>
        <pt x="822" y="131" on="0"/>
      </contour>
    </TTGlyph>
    <TTGlyph name="asterisk" xMin="146" yMin="803" xMax="925" yMax="1593">
      <contour>
        <pt x="554" y="1324" on="1"/>
        <pt x="728" y="1593" on="1"/>
        <pt x="834" y="1524" on="1"/>
        <pt x="639" y="1254" on="1"/>
        <pt x="925" y="1254" on="1"/>
        <pt x="906" y="1131" on="1"/>
        <pt x="626" y="1131" on="1"/>
        <pt x="737" y="872" on="1"/>
        <pt x="603" y="803" on="1"/>
        <pt x="509" y="1050" on="1"/>
        <pt x="341" y="803" on="1"/>
        <pt x="235" y="872" on="1"/>
        <pt x="428" y="1138" on="1"/>
        <pt x="146" y="1138" on="1"/>
        <pt x="165" y="1263" on="1"/>
        <pt x="446" y="1263" on="1"/>
        <pt x="339" y="1521" on="1"/>
        <pt x="467" y="1590" on="1"/>
      </contour>
    </TTGlyph>
</ttFont>
